<?xml version="1.0" encoding="UTF-8" standalone="no"?>
<!DOCTYPE svg PUBLIC "-//W3C//DTD SVG 1.1//EN"
 "http://www.w3.org/Graphics/SVG/1.1/DTD/svg11.dtd">
<!-- Generated by graphviz version 2.38.0 (20140413.2041)
 -->
<!-- Title: DataStructure Pages: 1 -->
<svg width="567pt" height="766pt"
 viewBox="0.00 0.00 566.50 766.00" xmlns="http://www.w3.org/2000/svg" xmlns:xlink="http://www.w3.org/1999/xlink">
<g id="graph0" class="graph" transform="scale(1 1) rotate(0) translate(4 762)">
<title>DataStructure</title>
<!-- Node0 -->
<g id="node1" class="node"><title>Node0</title>
<polygon fill="#bfbfbf" stroke="black" points="244,-667.5 244,-757.5 321,-757.5 321,-667.5 244,-667.5"/>
<text text-anchor="middle" x="282.5" y="-745.5" font-family="Helvetica,sans-Serif" font-size="10.00">DataStructure</text>
<polyline fill="none" stroke="black" points="244,-738.5 321,-738.5 "/>
<text text-anchor="middle" x="282.5" y="-726.5" font-family="Helvetica,sans-Serif" font-size="10.00"> </text>
<polyline fill="none" stroke="black" points="244,-719.5 321,-719.5 "/>
<text text-anchor="start" x="252" y="-707.5" font-family="Helvetica,sans-Serif" font-size="10.00">+ getSize()</text>
<text text-anchor="start" x="252" y="-696.5" font-family="Helvetica,sans-Serif" font-size="10.00">+ getName()</text>
<text text-anchor="start" x="252" y="-685.5" font-family="Helvetica,sans-Serif" font-size="10.00">+ isEmpty()</text>
<text text-anchor="start" x="252" y="-674.5" font-family="Helvetica,sans-Serif" font-size="10.00">+ isFull()</text>
</g>
<!-- Node1 -->
<g id="node2" class="node"><title>Node1</title>
<g id="a_node2"><a xlink:href="classProtectedLinkedList.html" target="_top" xlink:title="Doubly&#45;linked list implementation with dynamic memory allocation. ">
<polygon fill="none" stroke="black" points="219,-397.5 219,-630.5 346,-630.5 346,-397.5 219,-397.5"/>
<text text-anchor="middle" x="282.5" y="-618.5" font-family="Helvetica,sans-Serif" font-size="10.00">ProtectedLinkedList&lt; T &gt;</text>
<polyline fill="none" stroke="black" points="219,-611.5 346,-611.5 "/>
<text text-anchor="start" x="227" y="-599.5" font-family="Helvetica,sans-Serif" font-size="10.00">&#45; first</text>
<text text-anchor="start" x="227" y="-588.5" font-family="Helvetica,sans-Serif" font-size="10.00">&#45; last</text>
<text text-anchor="start" x="227" y="-577.5" font-family="Helvetica,sans-Serif" font-size="10.00">&#45; size</text>
<polyline fill="none" stroke="black" points="219,-570.5 346,-570.5 "/>
<text text-anchor="start" x="227" y="-558.5" font-family="Helvetica,sans-Serif" font-size="10.00">+ getName()</text>
<text text-anchor="start" x="227" y="-547.5" font-family="Helvetica,sans-Serif" font-size="10.00">+ ProtectedLinkedList()</text>
<text text-anchor="start" x="227" y="-536.5" font-family="Helvetica,sans-Serif" font-size="10.00">+ ~ProtectedLinkedList()</text>
<text text-anchor="start" x="227" y="-525.5" font-family="Helvetica,sans-Serif" font-size="10.00">+ getSize()</text>
<text text-anchor="start" x="227" y="-514.5" font-family="Helvetica,sans-Serif" font-size="10.00">+ isEmpty()</text>
<text text-anchor="start" x="227" y="-503.5" font-family="Helvetica,sans-Serif" font-size="10.00">+ isFull()</text>
<text text-anchor="start" x="227" y="-492.5" font-family="Helvetica,sans-Serif" font-size="10.00"># getNode()</text>
<text text-anchor="start" x="227" y="-481.5" font-family="Helvetica,sans-Serif" font-size="10.00"># ProtectedLinkedList()</text>
<text text-anchor="start" x="227" y="-470.5" font-family="Helvetica,sans-Serif" font-size="10.00"># getFirst()</text>
<text text-anchor="start" x="227" y="-459.5" font-family="Helvetica,sans-Serif" font-size="10.00"># getLast()</text>
<text text-anchor="start" x="227" y="-448.5" font-family="Helvetica,sans-Serif" font-size="10.00"># insert()</text>
<text text-anchor="start" x="227" y="-437.5" font-family="Helvetica,sans-Serif" font-size="10.00"># insert()</text>
<text text-anchor="start" x="227" y="-426.5" font-family="Helvetica,sans-Serif" font-size="10.00"># remove()</text>
<text text-anchor="start" x="227" y="-415.5" font-family="Helvetica,sans-Serif" font-size="10.00"># get()</text>
<text text-anchor="start" x="227" y="-404.5" font-family="Helvetica,sans-Serif" font-size="10.00"># iterator()</text>
</a>
</g>
</g>
<!-- Node0&#45;&gt;Node1 -->
<g id="edge1" class="edge"><title>Node0&#45;&gt;Node1</title>
<path fill="none" stroke="midnightblue" d="M282.5,-657.368C282.5,-648.898 282.5,-639.877 282.5,-630.644"/>
<polygon fill="none" stroke="midnightblue" points="279,-657.402 282.5,-667.402 286,-657.402 279,-657.402"/>
</g>
<!-- Node6 -->
<g id="node7" class="node"><title>Node6</title>
<g id="a_node7"><a xlink:href="classQueue.html" target="_top" xlink:title="Abstract queue interface. ">
<polygon fill="none" stroke="black" points="130,-469 130,-559 201,-559 201,-469 130,-469"/>
<text text-anchor="middle" x="165.5" y="-547" font-family="Helvetica,sans-Serif" font-size="10.00">Queue&lt; T &gt;</text>
<polyline fill="none" stroke="black" points="130,-540 201,-540 "/>
<text text-anchor="middle" x="165.5" y="-528" font-family="Helvetica,sans-Serif" font-size="10.00"> </text>
<polyline fill="none" stroke="black" points="130,-521 201,-521 "/>
<text text-anchor="start" x="138" y="-509" font-family="Helvetica,sans-Serif" font-size="10.00">+ getName()</text>
<text text-anchor="start" x="138" y="-498" font-family="Helvetica,sans-Serif" font-size="10.00">+ enqueue()</text>
<text text-anchor="start" x="138" y="-487" font-family="Helvetica,sans-Serif" font-size="10.00">+ dequeue()</text>
<text text-anchor="start" x="138" y="-476" font-family="Helvetica,sans-Serif" font-size="10.00">+ peek()</text>
</a>
</g>
</g>
<!-- Node0&#45;&gt;Node6 -->
<g id="edge6" class="edge"><title>Node0&#45;&gt;Node6</title>
<path fill="none" stroke="midnightblue" d="M236.849,-667.066C226.966,-655.924 217.186,-643.549 209.5,-631 195.887,-608.775 185.313,-581.645 177.946,-559.212"/>
<polygon fill="none" stroke="midnightblue" points="234.362,-669.534 243.684,-674.57 239.537,-664.82 234.362,-669.534"/>
</g>
<!-- Node8 -->
<g id="node9" class="node"><title>Node8</title>
<g id="a_node9"><a xlink:href="classStack.html" target="_top" xlink:title="Abstract stack interface. ">
<polygon fill="none" stroke="black" points="364,-469 364,-559 435,-559 435,-469 364,-469"/>
<text text-anchor="middle" x="399.5" y="-547" font-family="Helvetica,sans-Serif" font-size="10.00">Stack&lt; T &gt;</text>
<polyline fill="none" stroke="black" points="364,-540 435,-540 "/>
<text text-anchor="middle" x="399.5" y="-528" font-family="Helvetica,sans-Serif" font-size="10.00"> </text>
<polyline fill="none" stroke="black" points="364,-521 435,-521 "/>
<text text-anchor="start" x="372" y="-509" font-family="Helvetica,sans-Serif" font-size="10.00">+ getName()</text>
<text text-anchor="start" x="372" y="-498" font-family="Helvetica,sans-Serif" font-size="10.00">+ push()</text>
<text text-anchor="start" x="372" y="-487" font-family="Helvetica,sans-Serif" font-size="10.00">+ pop()</text>
<text text-anchor="start" x="372" y="-476" font-family="Helvetica,sans-Serif" font-size="10.00">+ peek()</text>
</a>
</g>
</g>
<!-- Node0&#45;&gt;Node8 -->
<g id="edge9" class="edge"><title>Node0&#45;&gt;Node8</title>
<path fill="none" stroke="midnightblue" d="M328.151,-667.066C338.034,-655.924 347.814,-643.549 355.5,-631 369.113,-608.775 379.687,-581.645 387.054,-559.212"/>
<polygon fill="none" stroke="midnightblue" points="325.463,-664.82 321.316,-674.57 330.638,-669.534 325.463,-664.82"/>
</g>
<!-- Node2 -->
<g id="node3" class="node"><title>Node2</title>
<g id="a_node3"><a xlink:href="classDynamicQueue.html" target="_top" xlink:title="Queue implementation with dynamic memory allocation. ">
<polygon fill="none" stroke="black" points="113.5,-188 113.5,-333 221.5,-333 221.5,-188 113.5,-188"/>
<text text-anchor="middle" x="167.5" y="-321" font-family="Helvetica,sans-Serif" font-size="10.00">DynamicQueue&lt; T &gt;</text>
<polyline fill="none" stroke="black" points="113.5,-314 221.5,-314 "/>
<text text-anchor="middle" x="167.5" y="-302" font-family="Helvetica,sans-Serif" font-size="10.00"> </text>
<polyline fill="none" stroke="black" points="113.5,-295 221.5,-295 "/>
<text text-anchor="start" x="121.5" y="-283" font-family="Helvetica,sans-Serif" font-size="10.00">+ getName()</text>
<text text-anchor="start" x="121.5" y="-272" font-family="Helvetica,sans-Serif" font-size="10.00">+ DynamicQueue()</text>
<text text-anchor="start" x="121.5" y="-261" font-family="Helvetica,sans-Serif" font-size="10.00">+ DynamicQueue()</text>
<text text-anchor="start" x="121.5" y="-250" font-family="Helvetica,sans-Serif" font-size="10.00">+ enqueue()</text>
<text text-anchor="start" x="121.5" y="-239" font-family="Helvetica,sans-Serif" font-size="10.00">+ dequeue()</text>
<text text-anchor="start" x="121.5" y="-228" font-family="Helvetica,sans-Serif" font-size="10.00">+ peek()</text>
<text text-anchor="start" x="121.5" y="-217" font-family="Helvetica,sans-Serif" font-size="10.00">+ getSize()</text>
<text text-anchor="start" x="121.5" y="-206" font-family="Helvetica,sans-Serif" font-size="10.00">+ isEmpty()</text>
<text text-anchor="start" x="121.5" y="-195" font-family="Helvetica,sans-Serif" font-size="10.00">+ isFull()</text>
</a>
</g>
</g>
<!-- Node1&#45;&gt;Node2 -->
<g id="edge2" class="edge"><title>Node1&#45;&gt;Node2</title>
<path fill="none" stroke="midnightblue" d="M225.334,-387.98C216.749,-369.204 208.153,-350.407 200.314,-333.263"/>
<polygon fill="none" stroke="midnightblue" points="222.203,-389.549 229.544,-397.188 228.569,-386.638 222.203,-389.549"/>
</g>
<!-- Node3 -->
<g id="node4" class="node"><title>Node3</title>
<g id="a_node4"><a xlink:href="classDynamicStack.html" target="_top" xlink:title="Stack implementation with dynamic memory allocation. ">
<polygon fill="none" stroke="black" points="343,-188 343,-333 448,-333 448,-188 343,-188"/>
<text text-anchor="middle" x="395.5" y="-321" font-family="Helvetica,sans-Serif" font-size="10.00">DynamicStack&lt; T &gt;</text>
<polyline fill="none" stroke="black" points="343,-314 448,-314 "/>
<text text-anchor="middle" x="395.5" y="-302" font-family="Helvetica,sans-Serif" font-size="10.00"> </text>
<polyline fill="none" stroke="black" points="343,-295 448,-295 "/>
<text text-anchor="start" x="351" y="-283" font-family="Helvetica,sans-Serif" font-size="10.00">+ DynamicStack()</text>
<text text-anchor="start" x="351" y="-272" font-family="Helvetica,sans-Serif" font-size="10.00">+ DynamicStack()</text>
<text text-anchor="start" x="351" y="-261" font-family="Helvetica,sans-Serif" font-size="10.00">+ getName()</text>
<text text-anchor="start" x="351" y="-250" font-family="Helvetica,sans-Serif" font-size="10.00">+ push()</text>
<text text-anchor="start" x="351" y="-239" font-family="Helvetica,sans-Serif" font-size="10.00">+ pop()</text>
<text text-anchor="start" x="351" y="-228" font-family="Helvetica,sans-Serif" font-size="10.00">+ peek()</text>
<text text-anchor="start" x="351" y="-217" font-family="Helvetica,sans-Serif" font-size="10.00">+ getSize()</text>
<text text-anchor="start" x="351" y="-206" font-family="Helvetica,sans-Serif" font-size="10.00">+ isEmpty()</text>
<text text-anchor="start" x="351" y="-195" font-family="Helvetica,sans-Serif" font-size="10.00">+ isFull()</text>
</a>
</g>
</g>
<!-- Node1&#45;&gt;Node3 -->
<g id="edge3" class="edge"><title>Node1&#45;&gt;Node3</title>
<path fill="none" stroke="midnightblue" d="M338.672,-387.98C347.108,-369.204 355.554,-350.407 363.257,-333.263"/>
<polygon fill="none" stroke="midnightblue" points="335.441,-386.632 334.535,-397.188 341.826,-389.501 335.441,-386.632"/>
</g>
<!-- Node4 -->
<g id="node5" class="node"><title>Node4</title>
<g id="a_node5"><a xlink:href="classLinkedList.html" target="_top" xlink:title="Doubly&#45;linked list implementation with dynamic memory allocation. ">
<polygon fill="none" stroke="black" points="240,-193.5 240,-327.5 325,-327.5 325,-193.5 240,-193.5"/>
<text text-anchor="middle" x="282.5" y="-315.5" font-family="Helvetica,sans-Serif" font-size="10.00">LinkedList&lt; T &gt;</text>
<polyline fill="none" stroke="black" points="240,-308.5 325,-308.5 "/>
<text text-anchor="middle" x="282.5" y="-296.5" font-family="Helvetica,sans-Serif" font-size="10.00"> </text>
<polyline fill="none" stroke="black" points="240,-289.5 325,-289.5 "/>
<text text-anchor="start" x="248" y="-277.5" font-family="Helvetica,sans-Serif" font-size="10.00">+ LinkedList()</text>
<text text-anchor="start" x="248" y="-266.5" font-family="Helvetica,sans-Serif" font-size="10.00">+ LinkedList()</text>
<text text-anchor="start" x="248" y="-255.5" font-family="Helvetica,sans-Serif" font-size="10.00">+ getName()</text>
<text text-anchor="start" x="248" y="-244.5" font-family="Helvetica,sans-Serif" font-size="10.00">+ insert()</text>
<text text-anchor="start" x="248" y="-233.5" font-family="Helvetica,sans-Serif" font-size="10.00">+ insert()</text>
<text text-anchor="start" x="248" y="-222.5" font-family="Helvetica,sans-Serif" font-size="10.00">+ remove()</text>
<text text-anchor="start" x="248" y="-211.5" font-family="Helvetica,sans-Serif" font-size="10.00">+ get()</text>
<text text-anchor="start" x="248" y="-200.5" font-family="Helvetica,sans-Serif" font-size="10.00">+ iterator()</text>
</a>
</g>
</g>
<!-- Node1&#45;&gt;Node4 -->
<g id="edge4" class="edge"><title>Node1&#45;&gt;Node4</title>
<path fill="none" stroke="midnightblue" d="M282.5,-387.107C282.5,-366.554 282.5,-346.006 282.5,-327.659"/>
<polygon fill="none" stroke="midnightblue" points="279,-387.188 282.5,-397.188 286,-387.188 279,-387.188"/>
</g>
<!-- Node5 -->
<g id="node6" class="node"><title>Node5</title>
<g id="a_node6"><a xlink:href="classOrderedList.html" target="_top" xlink:title="Doubly&#45;linked ordered list implementation with dynamic memory allocation. ">
<polygon fill="none" stroke="black" points="237,-0.5 237,-123.5 328,-123.5 328,-0.5 237,-0.5"/>
<text text-anchor="middle" x="282.5" y="-111.5" font-family="Helvetica,sans-Serif" font-size="10.00">OrderedList&lt; T &gt;</text>
<polyline fill="none" stroke="black" points="237,-104.5 328,-104.5 "/>
<text text-anchor="start" x="245" y="-92.5" font-family="Helvetica,sans-Serif" font-size="10.00">&#45; compare</text>
<polyline fill="none" stroke="black" points="237,-85.5 328,-85.5 "/>
<text text-anchor="start" x="245" y="-73.5" font-family="Helvetica,sans-Serif" font-size="10.00">+ getName()</text>
<text text-anchor="start" x="245" y="-62.5" font-family="Helvetica,sans-Serif" font-size="10.00">+ OrderedList()</text>
<text text-anchor="start" x="245" y="-51.5" font-family="Helvetica,sans-Serif" font-size="10.00">+ OrderedList()</text>
<text text-anchor="start" x="245" y="-40.5" font-family="Helvetica,sans-Serif" font-size="10.00">+ insert()</text>
<text text-anchor="start" x="245" y="-29.5" font-family="Helvetica,sans-Serif" font-size="10.00">+ insert()</text>
<text text-anchor="start" x="245" y="-18.5" font-family="Helvetica,sans-Serif" font-size="10.00">+ remove()</text>
<text text-anchor="start" x="245" y="-7.5" font-family="Helvetica,sans-Serif" font-size="10.00">+ get()</text>
</a>
</g>
</g>
<!-- Node4&#45;&gt;Node5 -->
<g id="edge5" class="edge"><title>Node4&#45;&gt;Node5</title>
<path fill="none" stroke="midnightblue" d="M282.5,-183.077C282.5,-163.379 282.5,-142.448 282.5,-123.672"/>
<polygon fill="none" stroke="midnightblue" points="279,-183.248 282.5,-193.248 286,-183.248 279,-183.248"/>
</g>
<!-- Node6&#45;&gt;Node2 -->
<g id="edge7" class="edge"><title>Node6&#45;&gt;Node2</title>
<path fill="none" stroke="midnightblue" d="M165.93,-458.883C166.223,-422.14 166.612,-373.155 166.93,-333.177"/>
<polygon fill="none" stroke="midnightblue" points="162.43,-458.877 165.851,-468.904 169.43,-458.932 162.43,-458.877"/>
</g>
<!-- Node7 -->
<g id="node8" class="node"><title>Node7</title>
<g id="a_node8"><a xlink:href="classStaticQueue.html" target="_top" xlink:title="Queue implementation using a native C++ array as data storage. ">
<polygon fill="none" stroke="black" points="0,-160.5 0,-360.5 95,-360.5 95,-160.5 0,-160.5"/>
<text text-anchor="middle" x="47.5" y="-348.5" font-family="Helvetica,sans-Serif" font-size="10.00">StaticQueue&lt; T &gt;</text>
<polyline fill="none" stroke="black" points="0,-341.5 95,-341.5 "/>
<text text-anchor="start" x="8" y="-329.5" font-family="Helvetica,sans-Serif" font-size="10.00">&#45; size</text>
<text text-anchor="start" x="8" y="-318.5" font-family="Helvetica,sans-Serif" font-size="10.00">&#45; head</text>
<text text-anchor="start" x="8" y="-307.5" font-family="Helvetica,sans-Serif" font-size="10.00">&#45; tail</text>
<text text-anchor="start" x="8" y="-296.5" font-family="Helvetica,sans-Serif" font-size="10.00">&#45; count</text>
<text text-anchor="start" x="8" y="-285.5" font-family="Helvetica,sans-Serif" font-size="10.00">&#45; data</text>
<polyline fill="none" stroke="black" points="0,-278.5 95,-278.5 "/>
<text text-anchor="start" x="8" y="-266.5" font-family="Helvetica,sans-Serif" font-size="10.00">+ getName()</text>
<text text-anchor="start" x="8" y="-255.5" font-family="Helvetica,sans-Serif" font-size="10.00">+ StaticQueue()</text>
<text text-anchor="start" x="8" y="-244.5" font-family="Helvetica,sans-Serif" font-size="10.00">+ StaticQueue()</text>
<text text-anchor="start" x="8" y="-233.5" font-family="Helvetica,sans-Serif" font-size="10.00">+ ~StaticQueue()</text>
<text text-anchor="start" x="8" y="-222.5" font-family="Helvetica,sans-Serif" font-size="10.00">+ enqueue()</text>
<text text-anchor="start" x="8" y="-211.5" font-family="Helvetica,sans-Serif" font-size="10.00">+ dequeue()</text>
<text text-anchor="start" x="8" y="-200.5" font-family="Helvetica,sans-Serif" font-size="10.00">+ peek()</text>
<text text-anchor="start" x="8" y="-189.5" font-family="Helvetica,sans-Serif" font-size="10.00">+ getSize()</text>
<text text-anchor="start" x="8" y="-178.5" font-family="Helvetica,sans-Serif" font-size="10.00">+ isEmpty()</text>
<text text-anchor="start" x="8" y="-167.5" font-family="Helvetica,sans-Serif" font-size="10.00">+ isFull()</text>
</a>
</g>
</g>
<!-- Node6&#45;&gt;Node7 -->
<g id="edge8" class="edge"><title>Node6&#45;&gt;Node7</title>
<path fill="none" stroke="midnightblue" d="M140.556,-459.836C127.04,-431.028 109.898,-394.491 94.0191,-360.649"/>
<polygon fill="none" stroke="midnightblue" points="137.395,-461.338 144.811,-468.904 143.732,-458.364 137.395,-461.338"/>
</g>
<!-- Node8&#45;&gt;Node3 -->
<g id="edge10" class="edge"><title>Node8&#45;&gt;Node3</title>
<path fill="none" stroke="midnightblue" d="M398.639,-458.883C398.055,-422.14 397.276,-373.155 396.64,-333.177"/>
<polygon fill="none" stroke="midnightblue" points="395.14,-458.961 398.799,-468.904 402.139,-458.85 395.14,-458.961"/>
</g>
<!-- Node9 -->
<g id="node10" class="node"><title>Node9</title>
<g id="a_node10"><a xlink:href="classStaticStack.html" target="_top" xlink:title="Stack implementation using a native C++ array as data storage. ">
<polygon fill="none" stroke="black" points="466.5,-171.5 466.5,-349.5 558.5,-349.5 558.5,-171.5 466.5,-171.5"/>
<text text-anchor="middle" x="512.5" y="-337.5" font-family="Helvetica,sans-Serif" font-size="10.00">StaticStack&lt; T &gt;</text>
<polyline fill="none" stroke="black" points="466.5,-330.5 558.5,-330.5 "/>
<text text-anchor="start" x="474.5" y="-318.5" font-family="Helvetica,sans-Serif" font-size="10.00">&#45; top</text>
<text text-anchor="start" x="474.5" y="-307.5" font-family="Helvetica,sans-Serif" font-size="10.00">&#45; size</text>
<text text-anchor="start" x="474.5" y="-296.5" font-family="Helvetica,sans-Serif" font-size="10.00">&#45; data</text>
<polyline fill="none" stroke="black" points="466.5,-289.5 558.5,-289.5 "/>
<text text-anchor="start" x="474.5" y="-277.5" font-family="Helvetica,sans-Serif" font-size="10.00">+ getName()</text>
<text text-anchor="start" x="474.5" y="-266.5" font-family="Helvetica,sans-Serif" font-size="10.00">+ StaticStack()</text>
<text text-anchor="start" x="474.5" y="-255.5" font-family="Helvetica,sans-Serif" font-size="10.00">+ StaticStack()</text>
<text text-anchor="start" x="474.5" y="-244.5" font-family="Helvetica,sans-Serif" font-size="10.00">+ ~StaticStack()</text>
<text text-anchor="start" x="474.5" y="-233.5" font-family="Helvetica,sans-Serif" font-size="10.00">+ push()</text>
<text text-anchor="start" x="474.5" y="-222.5" font-family="Helvetica,sans-Serif" font-size="10.00">+ pop()</text>
<text text-anchor="start" x="474.5" y="-211.5" font-family="Helvetica,sans-Serif" font-size="10.00">+ peek()</text>
<text text-anchor="start" x="474.5" y="-200.5" font-family="Helvetica,sans-Serif" font-size="10.00">+ getSize()</text>
<text text-anchor="start" x="474.5" y="-189.5" font-family="Helvetica,sans-Serif" font-size="10.00">+ isEmpty()</text>
<text text-anchor="start" x="474.5" y="-178.5" font-family="Helvetica,sans-Serif" font-size="10.00">+ isFull()</text>
</a>
</g>
</g>
<!-- Node8&#45;&gt;Node9 -->
<g id="edge11" class="edge"><title>Node8&#45;&gt;Node9</title>
<path fill="none" stroke="midnightblue" d="M423.433,-459.734C437.788,-427.785 456.401,-386.357 472.898,-349.64"/>
<polygon fill="none" stroke="midnightblue" points="420.218,-458.348 419.312,-468.904 426.603,-461.217 420.218,-458.348"/>
</g>
</g>
</svg>
