<?xml version="1.0" encoding="UTF-8" standalone="no"?>
<!DOCTYPE svg PUBLIC "-//W3C//DTD SVG 1.1//EN"
 "http://www.w3.org/Graphics/SVG/1.1/DTD/svg11.dtd">
<!-- Generated by graphviz version 2.38.0 (20140413.2041)
 -->
<!-- Title: Queue&lt; T &gt; Pages: 1 -->
<svg width="230pt" height="463pt"
 viewBox="0.00 0.00 229.50 463.00" xmlns="http://www.w3.org/2000/svg" xmlns:xlink="http://www.w3.org/1999/xlink">
<g id="graph0" class="graph" transform="scale(1 1) rotate(0) translate(4 459)">
<title>Queue&lt; T &gt;</title>
<!-- Node0 -->
<g id="node1" class="node"><title>Node0</title>
<polygon fill="#bfbfbf" stroke="black" points="78.5,-237.5 78.5,-327.5 149.5,-327.5 149.5,-237.5 78.5,-237.5"/>
<text text-anchor="middle" x="114" y="-315.5" font-family="Helvetica,sans-Serif" font-size="10.00">Queue&lt; T &gt;</text>
<polyline fill="none" stroke="black" points="78.5,-308.5 149.5,-308.5 "/>
<text text-anchor="middle" x="114" y="-296.5" font-family="Helvetica,sans-Serif" font-size="10.00"> </text>
<polyline fill="none" stroke="black" points="78.5,-289.5 149.5,-289.5 "/>
<text text-anchor="start" x="86.5" y="-277.5" font-family="Helvetica,sans-Serif" font-size="10.00">+ getName()</text>
<text text-anchor="start" x="86.5" y="-266.5" font-family="Helvetica,sans-Serif" font-size="10.00">+ enqueue()</text>
<text text-anchor="start" x="86.5" y="-255.5" font-family="Helvetica,sans-Serif" font-size="10.00">+ dequeue()</text>
<text text-anchor="start" x="86.5" y="-244.5" font-family="Helvetica,sans-Serif" font-size="10.00">+ peek()</text>
</g>
<!-- Node2 -->
<g id="node3" class="node"><title>Node2</title>
<g id="a_node3"><a xlink:href="classDynamicQueue.html" target="_top" xlink:title="Queue implementation with dynamic memory allocation. ">
<polygon fill="none" stroke="black" points="0,-28 0,-173 108,-173 108,-28 0,-28"/>
<text text-anchor="middle" x="54" y="-161" font-family="Helvetica,sans-Serif" font-size="10.00">DynamicQueue&lt; T &gt;</text>
<polyline fill="none" stroke="black" points="0,-154 108,-154 "/>
<text text-anchor="middle" x="54" y="-142" font-family="Helvetica,sans-Serif" font-size="10.00"> </text>
<polyline fill="none" stroke="black" points="0,-135 108,-135 "/>
<text text-anchor="start" x="8" y="-123" font-family="Helvetica,sans-Serif" font-size="10.00">+ getName()</text>
<text text-anchor="start" x="8" y="-112" font-family="Helvetica,sans-Serif" font-size="10.00">+ DynamicQueue()</text>
<text text-anchor="start" x="8" y="-101" font-family="Helvetica,sans-Serif" font-size="10.00">+ DynamicQueue()</text>
<text text-anchor="start" x="8" y="-90" font-family="Helvetica,sans-Serif" font-size="10.00">+ enqueue()</text>
<text text-anchor="start" x="8" y="-79" font-family="Helvetica,sans-Serif" font-size="10.00">+ dequeue()</text>
<text text-anchor="start" x="8" y="-68" font-family="Helvetica,sans-Serif" font-size="10.00">+ peek()</text>
<text text-anchor="start" x="8" y="-57" font-family="Helvetica,sans-Serif" font-size="10.00">+ getSize()</text>
<text text-anchor="start" x="8" y="-46" font-family="Helvetica,sans-Serif" font-size="10.00">+ isEmpty()</text>
<text text-anchor="start" x="8" y="-35" font-family="Helvetica,sans-Serif" font-size="10.00">+ isFull()</text>
</a>
</g>
</g>
<!-- Node0&#45;&gt;Node2 -->
<g id="edge2" class="edge"><title>Node0&#45;&gt;Node2</title>
<path fill="none" stroke="midnightblue" d="M96.0498,-227.649C90.3412,-210.524 83.9345,-191.304 77.8759,-173.128"/>
<polygon fill="none" stroke="midnightblue" points="92.8396,-229.087 99.3223,-237.467 99.4804,-226.873 92.8396,-229.087"/>
</g>
<!-- Node3 -->
<g id="node4" class="node"><title>Node3</title>
<g id="a_node4"><a xlink:href="classStaticQueue.html" target="_top" xlink:title="Queue implementation using a native C++ array as data storage. ">
<polygon fill="none" stroke="black" points="126.5,-0.5 126.5,-200.5 221.5,-200.5 221.5,-0.5 126.5,-0.5"/>
<text text-anchor="middle" x="174" y="-188.5" font-family="Helvetica,sans-Serif" font-size="10.00">StaticQueue&lt; T &gt;</text>
<polyline fill="none" stroke="black" points="126.5,-181.5 221.5,-181.5 "/>
<text text-anchor="start" x="134.5" y="-169.5" font-family="Helvetica,sans-Serif" font-size="10.00">&#45; size</text>
<text text-anchor="start" x="134.5" y="-158.5" font-family="Helvetica,sans-Serif" font-size="10.00">&#45; head</text>
<text text-anchor="start" x="134.5" y="-147.5" font-family="Helvetica,sans-Serif" font-size="10.00">&#45; tail</text>
<text text-anchor="start" x="134.5" y="-136.5" font-family="Helvetica,sans-Serif" font-size="10.00">&#45; count</text>
<text text-anchor="start" x="134.5" y="-125.5" font-family="Helvetica,sans-Serif" font-size="10.00">&#45; data</text>
<polyline fill="none" stroke="black" points="126.5,-118.5 221.5,-118.5 "/>
<text text-anchor="start" x="134.5" y="-106.5" font-family="Helvetica,sans-Serif" font-size="10.00">+ getName()</text>
<text text-anchor="start" x="134.5" y="-95.5" font-family="Helvetica,sans-Serif" font-size="10.00">+ StaticQueue()</text>
<text text-anchor="start" x="134.5" y="-84.5" font-family="Helvetica,sans-Serif" font-size="10.00">+ StaticQueue()</text>
<text text-anchor="start" x="134.5" y="-73.5" font-family="Helvetica,sans-Serif" font-size="10.00">+ ~StaticQueue()</text>
<text text-anchor="start" x="134.5" y="-62.5" font-family="Helvetica,sans-Serif" font-size="10.00">+ enqueue()</text>
<text text-anchor="start" x="134.5" y="-51.5" font-family="Helvetica,sans-Serif" font-size="10.00">+ dequeue()</text>
<text text-anchor="start" x="134.5" y="-40.5" font-family="Helvetica,sans-Serif" font-size="10.00">+ peek()</text>
<text text-anchor="start" x="134.5" y="-29.5" font-family="Helvetica,sans-Serif" font-size="10.00">+ getSize()</text>
<text text-anchor="start" x="134.5" y="-18.5" font-family="Helvetica,sans-Serif" font-size="10.00">+ isEmpty()</text>
<text text-anchor="start" x="134.5" y="-7.5" font-family="Helvetica,sans-Serif" font-size="10.00">+ isFull()</text>
</a>
</g>
</g>
<!-- Node0&#45;&gt;Node3 -->
<g id="edge3" class="edge"><title>Node0&#45;&gt;Node3</title>
<path fill="none" stroke="midnightblue" d="M131.872,-227.884C134.776,-219.171 137.863,-209.911 140.994,-200.518"/>
<polygon fill="none" stroke="midnightblue" points="128.52,-226.873 128.678,-237.467 135.16,-229.087 128.52,-226.873"/>
</g>
<!-- Node1 -->
<g id="node2" class="node"><title>Node1</title>
<g id="a_node2"><a xlink:href="classDataStructure.html" target="_top" xlink:title="Base class for all data structures. ">
<polygon fill="none" stroke="black" points="75.5,-364.5 75.5,-454.5 152.5,-454.5 152.5,-364.5 75.5,-364.5"/>
<text text-anchor="middle" x="114" y="-442.5" font-family="Helvetica,sans-Serif" font-size="10.00">DataStructure</text>
<polyline fill="none" stroke="black" points="75.5,-435.5 152.5,-435.5 "/>
<text text-anchor="middle" x="114" y="-423.5" font-family="Helvetica,sans-Serif" font-size="10.00"> </text>
<polyline fill="none" stroke="black" points="75.5,-416.5 152.5,-416.5 "/>
<text text-anchor="start" x="83.5" y="-404.5" font-family="Helvetica,sans-Serif" font-size="10.00">+ getSize()</text>
<text text-anchor="start" x="83.5" y="-393.5" font-family="Helvetica,sans-Serif" font-size="10.00">+ getName()</text>
<text text-anchor="start" x="83.5" y="-382.5" font-family="Helvetica,sans-Serif" font-size="10.00">+ isEmpty()</text>
<text text-anchor="start" x="83.5" y="-371.5" font-family="Helvetica,sans-Serif" font-size="10.00">+ isFull()</text>
</a>
</g>
</g>
<!-- Node1&#45;&gt;Node0 -->
<g id="edge1" class="edge"><title>Node1&#45;&gt;Node0</title>
<path fill="none" stroke="midnightblue" d="M114,-354.157C114,-345.282 114,-336.183 114,-327.594"/>
<polygon fill="none" stroke="midnightblue" points="110.5,-354.43 114,-364.43 117.5,-354.43 110.5,-354.43"/>
</g>
</g>
</svg>
