<?xml version="1.0" encoding="UTF-8" standalone="no"?>
<!DOCTYPE svg PUBLIC "-//W3C//DTD SVG 1.1//EN"
 "http://www.w3.org/Graphics/SVG/1.1/DTD/svg11.dtd">
<!-- Generated by graphviz version 2.38.0 (20140413.2041)
 -->
<!-- Title: DynamicStack::peek Pages: 1 -->
<svg width="411pt" height="53pt"
 viewBox="0.00 0.00 411.00 52.50" xmlns="http://www.w3.org/2000/svg" xmlns:xlink="http://www.w3.org/1999/xlink">
<g id="graph0" class="graph" transform="scale(1 1) rotate(0) translate(4 48.5)">
<title>DynamicStack::peek</title>
<!-- Node19 -->
<g id="node1" class="node"><title>Node19</title>
<polygon fill="#bfbfbf" stroke="black" points="0,-19.5 0,-38.5 108,-38.5 108,-19.5 0,-19.5"/>
<text text-anchor="middle" x="54" y="-26.5" font-family="Helvetica,sans-Serif" font-size="10.00">DynamicStack::peek</text>
</g>
<!-- Node20 -->
<g id="node2" class="node"><title>Node20</title>
<g id="a_node2"><a xlink:href="classProtectedLinkedList.html#a264e204dcc5d4aee73e8c67ae4b2b1fa" target="_top" xlink:title="Check whether the structure is full. ">
<polygon fill="none" stroke="black" points="300,-14 300,-44 403,-44 403,-14 300,-14"/>
<text text-anchor="start" x="308" y="-32" font-family="Helvetica,sans-Serif" font-size="10.00">ProtectedLinkedList</text>
<text text-anchor="middle" x="351.5" y="-21" font-family="Helvetica,sans-Serif" font-size="10.00">::isFull</text>
</a>
</g>
</g>
<!-- Node19&#45;&gt;Node20 -->
<g id="edge1" class="edge"><title>Node19&#45;&gt;Node20</title>
<path fill="none" stroke="midnightblue" d="M108.171,-29C159.217,-29 236.246,-29 289.703,-29"/>
<polygon fill="midnightblue" stroke="midnightblue" points="289.731,-32.5001 299.731,-29 289.731,-25.5001 289.731,-32.5001"/>
</g>
<!-- Node21 -->
<g id="node3" class="node"><title>Node21</title>
<g id="a_node3"><a xlink:href="classDynamicStack.html#a15be45eff5b9d214cc39e539d0bb0bf8" target="_top" xlink:title="Outputs the number of elements stored in the structure. ">
<polygon fill="none" stroke="black" points="144,-0.5 144,-19.5 264,-19.5 264,-0.5 144,-0.5"/>
<text text-anchor="middle" x="204" y="-7.5" font-family="Helvetica,sans-Serif" font-size="10.00">DynamicStack::getSize</text>
</a>
</g>
</g>
<!-- Node19&#45;&gt;Node21 -->
<g id="edge2" class="edge"><title>Node19&#45;&gt;Node21</title>
<path fill="none" stroke="midnightblue" d="M108.013,-22.1942C116.36,-21.1228 125.094,-20.0014 133.742,-18.8913"/>
<polygon fill="midnightblue" stroke="midnightblue" points="134.352,-22.3417 143.825,-17.5968 133.461,-15.3987 134.352,-22.3417"/>
</g>
<!-- Node21&#45;&gt;Node20 -->
<g id="edge3" class="edge"><title>Node21&#45;&gt;Node20</title>
<path fill="none" stroke="midnightblue" d="M264.18,-17.728C272.571,-18.8236 281.21,-19.9519 289.632,-21.0516"/>
<polygon fill="midnightblue" stroke="midnightblue" points="289.395,-24.5503 299.764,-22.3747 290.302,-17.6093 289.395,-24.5503"/>
</g>
</g>
</svg>
