<?xml version="1.0" encoding="UTF-8" standalone="no"?>
<!DOCTYPE svg PUBLIC "-//W3C//DTD SVG 1.1//EN"
 "http://www.w3.org/Graphics/SVG/1.1/DTD/svg11.dtd">
<!-- Generated by graphviz version 2.38.0 (20140413.2041)
 -->
<!-- Title: DynamicQueue&lt; T &gt; Pages: 1 -->
<svg width="239pt" height="552pt"
 viewBox="0.00 0.00 239.00 552.00" xmlns="http://www.w3.org/2000/svg" xmlns:xlink="http://www.w3.org/1999/xlink">
<g id="graph0" class="graph" transform="scale(1 1) rotate(0) translate(4 548)">
<title>DynamicQueue&lt; T &gt;</title>
<!-- Node4 -->
<g id="node1" class="node"><title>Node4</title>
<polygon fill="#bfbfbf" stroke="black" points="51.5,-0.5 51.5,-145.5 159.5,-145.5 159.5,-0.5 51.5,-0.5"/>
<text text-anchor="middle" x="105.5" y="-133.5" font-family="Helvetica,sans-Serif" font-size="10.00">DynamicQueue&lt; T &gt;</text>
<polyline fill="none" stroke="black" points="51.5,-126.5 159.5,-126.5 "/>
<text text-anchor="middle" x="105.5" y="-114.5" font-family="Helvetica,sans-Serif" font-size="10.00"> </text>
<polyline fill="none" stroke="black" points="51.5,-107.5 159.5,-107.5 "/>
<text text-anchor="start" x="59.5" y="-95.5" font-family="Helvetica,sans-Serif" font-size="10.00">+ getName()</text>
<text text-anchor="start" x="59.5" y="-84.5" font-family="Helvetica,sans-Serif" font-size="10.00">+ DynamicQueue()</text>
<text text-anchor="start" x="59.5" y="-73.5" font-family="Helvetica,sans-Serif" font-size="10.00">+ DynamicQueue()</text>
<text text-anchor="start" x="59.5" y="-62.5" font-family="Helvetica,sans-Serif" font-size="10.00">+ enqueue()</text>
<text text-anchor="start" x="59.5" y="-51.5" font-family="Helvetica,sans-Serif" font-size="10.00">+ dequeue()</text>
<text text-anchor="start" x="59.5" y="-40.5" font-family="Helvetica,sans-Serif" font-size="10.00">+ peek()</text>
<text text-anchor="start" x="59.5" y="-29.5" font-family="Helvetica,sans-Serif" font-size="10.00">+ getSize()</text>
<text text-anchor="start" x="59.5" y="-18.5" font-family="Helvetica,sans-Serif" font-size="10.00">+ isEmpty()</text>
<text text-anchor="start" x="59.5" y="-7.5" font-family="Helvetica,sans-Serif" font-size="10.00">+ isFull()</text>
</g>
<!-- Node5 -->
<g id="node2" class="node"><title>Node5</title>
<g id="a_node2"><a xlink:href="classProtectedLinkedList.html" target="_top" xlink:title="{ProtectedLinkedList\&lt; T \&gt;\n||+ getName()\l+ ProtectedLinkedList()\l+ ~ProtectedLinkedList()\l+ getSize()\l+ isEmpty()\l+ isFull()\l# getNode()\l# ProtectedLinkedList()\l# getFirst()\l# getLast()\l# insert()\l# insert()\l# remove()\l# get()\l# iterator()\l}">
<polygon fill="none" stroke="black" points="89,-183.5 89,-394.5 216,-394.5 216,-183.5 89,-183.5"/>
<text text-anchor="middle" x="152.5" y="-382.5" font-family="Helvetica,sans-Serif" font-size="10.00">ProtectedLinkedList&lt; T &gt;</text>
<polyline fill="none" stroke="black" points="89,-375.5 216,-375.5 "/>
<text text-anchor="middle" x="152.5" y="-363.5" font-family="Helvetica,sans-Serif" font-size="10.00"> </text>
<polyline fill="none" stroke="black" points="89,-356.5 216,-356.5 "/>
<text text-anchor="start" x="97" y="-344.5" font-family="Helvetica,sans-Serif" font-size="10.00">+ getName()</text>
<text text-anchor="start" x="97" y="-333.5" font-family="Helvetica,sans-Serif" font-size="10.00">+ ProtectedLinkedList()</text>
<text text-anchor="start" x="97" y="-322.5" font-family="Helvetica,sans-Serif" font-size="10.00">+ ~ProtectedLinkedList()</text>
<text text-anchor="start" x="97" y="-311.5" font-family="Helvetica,sans-Serif" font-size="10.00">+ getSize()</text>
<text text-anchor="start" x="97" y="-300.5" font-family="Helvetica,sans-Serif" font-size="10.00">+ isEmpty()</text>
<text text-anchor="start" x="97" y="-289.5" font-family="Helvetica,sans-Serif" font-size="10.00">+ isFull()</text>
<text text-anchor="start" x="97" y="-278.5" font-family="Helvetica,sans-Serif" font-size="10.00"># getNode()</text>
<text text-anchor="start" x="97" y="-267.5" font-family="Helvetica,sans-Serif" font-size="10.00"># ProtectedLinkedList()</text>
<text text-anchor="start" x="97" y="-256.5" font-family="Helvetica,sans-Serif" font-size="10.00"># getFirst()</text>
<text text-anchor="start" x="97" y="-245.5" font-family="Helvetica,sans-Serif" font-size="10.00"># getLast()</text>
<text text-anchor="start" x="97" y="-234.5" font-family="Helvetica,sans-Serif" font-size="10.00"># insert()</text>
<text text-anchor="start" x="97" y="-223.5" font-family="Helvetica,sans-Serif" font-size="10.00"># insert()</text>
<text text-anchor="start" x="97" y="-212.5" font-family="Helvetica,sans-Serif" font-size="10.00"># remove()</text>
<text text-anchor="start" x="97" y="-201.5" font-family="Helvetica,sans-Serif" font-size="10.00"># get()</text>
<text text-anchor="start" x="97" y="-190.5" font-family="Helvetica,sans-Serif" font-size="10.00"># iterator()</text>
</a>
</g>
</g>
<!-- Node5&#45;&gt;Node4 -->
<g id="edge1" class="edge"><title>Node5&#45;&gt;Node4</title>
<path fill="none" stroke="midnightblue" d="M127.324,-173.369C125.257,-163.957 123.207,-154.624 121.239,-145.663"/>
<polygon fill="none" stroke="midnightblue" points="123.918,-174.178 129.482,-183.194 130.755,-172.676 123.918,-174.178"/>
</g>
<!-- Node6 -->
<g id="node3" class="node"><title>Node6</title>
<g id="a_node3"><a xlink:href="classDataStructure.html" target="_top" xlink:title="Base class for all data structures. ">
<polygon fill="none" stroke="black" points="12,-453.5 12,-543.5 89,-543.5 89,-453.5 12,-453.5"/>
<text text-anchor="middle" x="50.5" y="-531.5" font-family="Helvetica,sans-Serif" font-size="10.00">DataStructure</text>
<polyline fill="none" stroke="black" points="12,-524.5 89,-524.5 "/>
<text text-anchor="middle" x="50.5" y="-512.5" font-family="Helvetica,sans-Serif" font-size="10.00"> </text>
<polyline fill="none" stroke="black" points="12,-505.5 89,-505.5 "/>
<text text-anchor="start" x="20" y="-493.5" font-family="Helvetica,sans-Serif" font-size="10.00">+ getSize()</text>
<text text-anchor="start" x="20" y="-482.5" font-family="Helvetica,sans-Serif" font-size="10.00">+ getName()</text>
<text text-anchor="start" x="20" y="-471.5" font-family="Helvetica,sans-Serif" font-size="10.00">+ isEmpty()</text>
<text text-anchor="start" x="20" y="-460.5" font-family="Helvetica,sans-Serif" font-size="10.00">+ isFull()</text>
</a>
</g>
</g>
<!-- Node6&#45;&gt;Node5 -->
<g id="edge2" class="edge"><title>Node6&#45;&gt;Node5</title>
<path fill="none" stroke="midnightblue" d="M76.6732,-444.255C84.1777,-428.989 92.6307,-411.793 101.098,-394.567"/>
<polygon fill="none" stroke="midnightblue" points="73.4021,-442.976 72.1316,-453.495 79.6841,-446.064 73.4021,-442.976"/>
</g>
<!-- Node9 -->
<g id="node6" class="node"><title>Node9</title>
<g id="a_node6"><a xlink:href="classQueue.html" target="_top" xlink:title="Abstract queue interface. ">
<polygon fill="none" stroke="black" points="0,-244 0,-334 71,-334 71,-244 0,-244"/>
<text text-anchor="middle" x="35.5" y="-322" font-family="Helvetica,sans-Serif" font-size="10.00">Queue&lt; T &gt;</text>
<polyline fill="none" stroke="black" points="0,-315 71,-315 "/>
<text text-anchor="middle" x="35.5" y="-303" font-family="Helvetica,sans-Serif" font-size="10.00"> </text>
<polyline fill="none" stroke="black" points="0,-296 71,-296 "/>
<text text-anchor="start" x="8" y="-284" font-family="Helvetica,sans-Serif" font-size="10.00">+ getName()</text>
<text text-anchor="start" x="8" y="-273" font-family="Helvetica,sans-Serif" font-size="10.00">+ enqueue()</text>
<text text-anchor="start" x="8" y="-262" font-family="Helvetica,sans-Serif" font-size="10.00">+ dequeue()</text>
<text text-anchor="start" x="8" y="-251" font-family="Helvetica,sans-Serif" font-size="10.00">+ peek()</text>
</a>
</g>
</g>
<!-- Node6&#45;&gt;Node9 -->
<g id="edge6" class="edge"><title>Node6&#45;&gt;Node9</title>
<path fill="none" stroke="midnightblue" d="M46.5806,-443.282C44.1275,-409.347 41.0065,-366.173 38.7024,-334.299"/>
<polygon fill="none" stroke="midnightblue" points="43.1069,-443.773 47.3189,-453.495 50.0887,-443.268 43.1069,-443.773"/>
</g>
<!-- Node7 -->
<g id="node4" class="node"><title>Node7</title>
<polygon fill="none" stroke="#bfbfbf" points="113,-470 113,-527 184,-527 184,-470 113,-470"/>
<text text-anchor="middle" x="148.5" y="-515" font-family="Helvetica,sans-Serif" font-size="10.00">Node&lt; T &gt; *</text>
<polyline fill="none" stroke="#bfbfbf" points="113,-508 184,-508 "/>
<text text-anchor="middle" x="148.5" y="-496" font-family="Helvetica,sans-Serif" font-size="10.00"> </text>
<polyline fill="none" stroke="#bfbfbf" points="113,-489 184,-489 "/>
<text text-anchor="middle" x="148.5" y="-477" font-family="Helvetica,sans-Serif" font-size="10.00"> </text>
</g>
<!-- Node7&#45;&gt;Node5 -->
<g id="edge3" class="edge"><title>Node7&#45;&gt;Node5</title>
<path fill="none" stroke="#404040" d="M149.031,-469.946C149.355,-453.159 149.793,-430.44 150.248,-406.803"/>
<polygon fill="none" stroke="#404040" points="150.249,-406.766 146.365,-400.69 150.48,-394.769 154.364,-400.845 150.249,-406.766"/>
<text text-anchor="middle" x="160.5" y="-427" font-family="Helvetica,sans-Serif" font-size="10.00"> &#45;last</text>
<text text-anchor="middle" x="160.5" y="-416" font-family="Helvetica,sans-Serif" font-size="10.00">&#45;first</text>
</g>
<!-- Node8 -->
<g id="node5" class="node"><title>Node8</title>
<polygon fill="none" stroke="#bfbfbf" points="202,-470 202,-527 231,-527 231,-470 202,-470"/>
<text text-anchor="middle" x="216.5" y="-515" font-family="Helvetica,sans-Serif" font-size="10.00">int</text>
<polyline fill="none" stroke="#bfbfbf" points="202,-508 231,-508 "/>
<text text-anchor="middle" x="216.5" y="-496" font-family="Helvetica,sans-Serif" font-size="10.00"> </text>
<polyline fill="none" stroke="#bfbfbf" points="202,-489 231,-489 "/>
<text text-anchor="middle" x="216.5" y="-477" font-family="Helvetica,sans-Serif" font-size="10.00"> </text>
</g>
<!-- Node8&#45;&gt;Node5 -->
<g id="edge4" class="edge"><title>Node8&#45;&gt;Node5</title>
<path fill="none" stroke="#404040" d="M208.001,-469.946C202.8,-453.082 195.752,-430.233 188.426,-406.48"/>
<polygon fill="none" stroke="#404040" points="188.351,-406.236 182.76,-401.681 184.814,-394.769 190.405,-399.323 188.351,-406.236"/>
<text text-anchor="middle" x="208" y="-421.5" font-family="Helvetica,sans-Serif" font-size="10.00"> &#45;size</text>
</g>
<!-- Node9&#45;&gt;Node4 -->
<g id="edge5" class="edge"><title>Node9&#45;&gt;Node4</title>
<path fill="none" stroke="midnightblue" d="M53.0534,-234.337C61.8177,-207.543 72.5432,-174.754 82.006,-145.825"/>
<polygon fill="none" stroke="midnightblue" points="49.7016,-233.326 49.9192,-243.919 56.3547,-235.502 49.7016,-233.326"/>
</g>
</g>
</svg>
