<?xml version="1.0" encoding="UTF-8" standalone="no"?>
<!DOCTYPE svg PUBLIC "-//W3C//DTD SVG 1.1//EN"
 "http://www.w3.org/Graphics/SVG/1.1/DTD/svg11.dtd">
<!-- Generated by graphviz version 2.38.0 (20140413.2041)
 -->
<!-- Title: OrderedList::remove Pages: 1 -->
<svg width="246pt" height="46pt"
 viewBox="0.00 0.00 246.00 46.00" xmlns="http://www.w3.org/2000/svg" xmlns:xlink="http://www.w3.org/1999/xlink">
<g id="graph0" class="graph" transform="scale(1 1) rotate(0) translate(4 42)">
<title>OrderedList::remove</title>
<!-- Node22 -->
<g id="node1" class="node"><title>Node22</title>
<polygon fill="#bfbfbf" stroke="black" points="0,-0.5 0,-19.5 105,-19.5 105,-0.5 0,-0.5"/>
<text text-anchor="middle" x="52.5" y="-7.5" font-family="Helvetica,sans-Serif" font-size="10.00">OrderedList::remove</text>
</g>
<!-- Node23 -->
<g id="node2" class="node"><title>Node23</title>
<g id="a_node2"><a xlink:href="classLinkedList.html#a2704854adf2cfec4aefce769d344aa1a" target="_top" xlink:title="Creates an Iterator, an object that allows the sequential access of values in a Linked List without t...">
<polygon fill="none" stroke="black" points="141,-0.5 141,-19.5 238,-19.5 238,-0.5 141,-0.5"/>
<text text-anchor="middle" x="189.5" y="-7.5" font-family="Helvetica,sans-Serif" font-size="10.00">LinkedList::iterator</text>
</a>
</g>
</g>
<!-- Node22&#45;&gt;Node23 -->
<g id="edge1" class="edge"><title>Node22&#45;&gt;Node23</title>
<path fill="none" stroke="midnightblue" d="M105.308,-10C113.555,-10 122.133,-10 130.511,-10"/>
<polygon fill="midnightblue" stroke="midnightblue" points="130.595,-13.5001 140.595,-10 130.595,-6.5001 130.595,-13.5001"/>
</g>
<!-- Node23&#45;&gt;Node23 -->
<g id="edge2" class="edge"><title>Node23&#45;&gt;Node23</title>
<path fill="none" stroke="midnightblue" d="M168.538,-19.7571C158.341,-28.5653 165.328,-38 189.5,-38 204.985,-38 213.418,-34.128 214.798,-29.0292"/>
<polygon fill="midnightblue" stroke="midnightblue" points="217.868,-27.3329 210.462,-19.7571 211.527,-30.2982 217.868,-27.3329"/>
</g>
</g>
</svg>
