<?xml version="1.0" encoding="UTF-8" standalone="no"?>
<!DOCTYPE svg PUBLIC "-//W3C//DTD SVG 1.1//EN"
 "http://www.w3.org/Graphics/SVG/1.1/DTD/svg11.dtd">
<!-- Generated by graphviz version 2.38.0 (20140413.2041)
 -->
<!-- Title: DynamicStack::getSize Pages: 1 -->
<svg width="272pt" height="104pt"
 viewBox="0.00 0.00 272.00 104.00" xmlns="http://www.w3.org/2000/svg" xmlns:xlink="http://www.w3.org/1999/xlink">
<g id="graph0" class="graph" transform="scale(1 1) rotate(0) translate(4 100)">
<title>DynamicStack::getSize</title>
<!-- Node7 -->
<g id="node1" class="node"><title>Node7</title>
<polygon fill="#bfbfbf" stroke="black" points="0,-38.5 0,-57.5 120,-57.5 120,-38.5 0,-38.5"/>
<text text-anchor="middle" x="60" y="-45.5" font-family="Helvetica,sans-Serif" font-size="10.00">DynamicStack::getSize</text>
</g>
<!-- Node8 -->
<g id="node2" class="node"><title>Node8</title>
<g id="a_node2"><a xlink:href="classDynamicStack.html#aa1158439339841e5f2b8cc046ae12e16" target="_top" xlink:title="Add an element to the top of the stack. ">
<polygon fill="none" stroke="black" points="156,-76.5 156,-95.5 264,-95.5 264,-76.5 156,-76.5"/>
<text text-anchor="middle" x="210" y="-83.5" font-family="Helvetica,sans-Serif" font-size="10.00">DynamicStack::push</text>
</a>
</g>
</g>
<!-- Node7&#45;&gt;Node8 -->
<g id="edge1" class="edge"><title>Node7&#45;&gt;Node8</title>
<path fill="none" stroke="midnightblue" d="M108.173,-60.1121C128.786,-65.4044 152.609,-71.5213 171.922,-76.4799"/>
<polygon fill="midnightblue" stroke="midnightblue" points="108.903,-56.6859 98.3466,-57.589 107.162,-63.466 108.903,-56.6859"/>
</g>
<!-- Node9 -->
<g id="node3" class="node"><title>Node9</title>
<g id="a_node3"><a xlink:href="classDynamicStack.html#a4c043733eaa25b1f3b74bb1365fbe767" target="_top" xlink:title="Remove an element from the top of the stack. ">
<polygon fill="none" stroke="black" points="158.5,-38.5 158.5,-57.5 261.5,-57.5 261.5,-38.5 158.5,-38.5"/>
<text text-anchor="middle" x="210" y="-45.5" font-family="Helvetica,sans-Serif" font-size="10.00">DynamicStack::pop</text>
</a>
</g>
</g>
<!-- Node7&#45;&gt;Node9 -->
<g id="edge2" class="edge"><title>Node7&#45;&gt;Node9</title>
<path fill="none" stroke="midnightblue" d="M130.437,-48C139.8,-48 149.26,-48 158.216,-48"/>
<polygon fill="midnightblue" stroke="midnightblue" points="130.345,-44.5001 120.344,-48 130.344,-51.5001 130.345,-44.5001"/>
</g>
<!-- Node10 -->
<g id="node4" class="node"><title>Node10</title>
<g id="a_node4"><a xlink:href="classDynamicStack.html#ae4893a1adca326d46846fa0fe13a6956" target="_top" xlink:title="See the value from the top of the stack, without removing it. ">
<polygon fill="none" stroke="black" points="156,-0.5 156,-19.5 264,-19.5 264,-0.5 156,-0.5"/>
<text text-anchor="middle" x="210" y="-7.5" font-family="Helvetica,sans-Serif" font-size="10.00">DynamicStack::peek</text>
</a>
</g>
</g>
<!-- Node7&#45;&gt;Node10 -->
<g id="edge3" class="edge"><title>Node7&#45;&gt;Node10</title>
<path fill="none" stroke="midnightblue" d="M108.173,-35.8879C128.786,-30.5956 152.609,-24.4787 171.922,-19.5201"/>
<polygon fill="midnightblue" stroke="midnightblue" points="107.162,-32.534 98.3466,-38.411 108.903,-39.3141 107.162,-32.534"/>
</g>
</g>
</svg>
