<?xml version="1.0" encoding="UTF-8" standalone="no"?>
<!DOCTYPE svg PUBLIC "-//W3C//DTD SVG 1.1//EN"
 "http://www.w3.org/Graphics/SVG/1.1/DTD/svg11.dtd">
<!-- Generated by graphviz version 2.38.0 (20140413.2041)
 -->
<!-- Title: Iterator&lt; T &gt; Pages: 1 -->
<svg width="142pt" height="226pt"
 viewBox="0.00 0.00 141.50 226.00" xmlns="http://www.w3.org/2000/svg" xmlns:xlink="http://www.w3.org/1999/xlink">
<g id="graph0" class="graph" transform="scale(1 1) rotate(0) translate(4 222)">
<title>Iterator&lt; T &gt;</title>
<!-- Node1 -->
<g id="node1" class="node"><title>Node1</title>
<polygon fill="#bfbfbf" stroke="black" points="27.5,-0.5 27.5,-112.5 113.5,-112.5 113.5,-0.5 27.5,-0.5"/>
<text text-anchor="middle" x="70.5" y="-100.5" font-family="Helvetica,sans-Serif" font-size="10.00">Iterator&lt; T &gt;</text>
<polyline fill="none" stroke="black" points="27.5,-93.5 113.5,-93.5 "/>
<text text-anchor="middle" x="70.5" y="-81.5" font-family="Helvetica,sans-Serif" font-size="10.00"> </text>
<polyline fill="none" stroke="black" points="27.5,-74.5 113.5,-74.5 "/>
<text text-anchor="start" x="35.5" y="-62.5" font-family="Helvetica,sans-Serif" font-size="10.00">+ Iterator()</text>
<text text-anchor="start" x="35.5" y="-51.5" font-family="Helvetica,sans-Serif" font-size="10.00">+ hasNext()</text>
<text text-anchor="start" x="35.5" y="-40.5" font-family="Helvetica,sans-Serif" font-size="10.00">+ hasPrevious()</text>
<text text-anchor="start" x="35.5" y="-29.5" font-family="Helvetica,sans-Serif" font-size="10.00">+ next()</text>
<text text-anchor="start" x="35.5" y="-18.5" font-family="Helvetica,sans-Serif" font-size="10.00">+ previous()</text>
<text text-anchor="start" x="35.5" y="-7.5" font-family="Helvetica,sans-Serif" font-size="10.00">+ current()</text>
</g>
<!-- Node2 -->
<g id="node2" class="node"><title>Node2</title>
<polygon fill="none" stroke="#bfbfbf" points="0,-160.5 0,-217.5 71,-217.5 71,-160.5 0,-160.5"/>
<text text-anchor="middle" x="35.5" y="-205.5" font-family="Helvetica,sans-Serif" font-size="10.00">Node&lt; T &gt; *</text>
<polyline fill="none" stroke="#bfbfbf" points="0,-198.5 71,-198.5 "/>
<text text-anchor="middle" x="35.5" y="-186.5" font-family="Helvetica,sans-Serif" font-size="10.00"> </text>
<polyline fill="none" stroke="#bfbfbf" points="0,-179.5 71,-179.5 "/>
<text text-anchor="middle" x="35.5" y="-167.5" font-family="Helvetica,sans-Serif" font-size="10.00"> </text>
</g>
<!-- Node2&#45;&gt;Node1 -->
<g id="edge1" class="edge"><title>Node2&#45;&gt;Node1</title>
<path fill="none" stroke="#404040" d="M42.9226,-160.324C45.7802,-149.67 49.1815,-136.987 52.6031,-124.23"/>
<polygon fill="none" stroke="#404040" points="52.6275,-124.139 50.3183,-117.307 55.7361,-112.548 58.0453,-119.38 52.6275,-124.139"/>
<text text-anchor="middle" x="64.5" y="-134" font-family="Helvetica,sans-Serif" font-size="10.00"> &#45;node</text>
</g>
<!-- Node3 -->
<g id="node3" class="node"><title>Node3</title>
<polygon fill="none" stroke="#bfbfbf" points="89,-160.5 89,-217.5 124,-217.5 124,-160.5 89,-160.5"/>
<text text-anchor="middle" x="106.5" y="-205.5" font-family="Helvetica,sans-Serif" font-size="10.00">bool</text>
<polyline fill="none" stroke="#bfbfbf" points="89,-198.5 124,-198.5 "/>
<text text-anchor="middle" x="106.5" y="-186.5" font-family="Helvetica,sans-Serif" font-size="10.00"> </text>
<polyline fill="none" stroke="#bfbfbf" points="89,-179.5 124,-179.5 "/>
<text text-anchor="middle" x="106.5" y="-167.5" font-family="Helvetica,sans-Serif" font-size="10.00"> </text>
</g>
<!-- Node3&#45;&gt;Node1 -->
<g id="edge2" class="edge"><title>Node3&#45;&gt;Node1</title>
<path fill="none" stroke="#404040" d="M98.8653,-160.324C95.9261,-149.67 92.4276,-136.987 88.9082,-124.23"/>
<polygon fill="none" stroke="#404040" points="88.8769,-124.116 83.4254,-119.396 85.6857,-112.548 91.1373,-117.268 88.8769,-124.116"/>
<text text-anchor="middle" x="113" y="-134" font-family="Helvetica,sans-Serif" font-size="10.00"> &#45;firstRun</text>
</g>
</g>
</svg>
