<?xml version="1.0" encoding="UTF-8" standalone="no"?>
<!DOCTYPE svg PUBLIC "-//W3C//DTD SVG 1.1//EN"
 "http://www.w3.org/Graphics/SVG/1.1/DTD/svg11.dtd">
<!-- Generated by graphviz version 2.38.0 (20140413.2041)
 -->
<!-- Title: OrderedList::get Pages: 1 -->
<svg width="227pt" height="46pt"
 viewBox="0.00 0.00 227.00 46.00" xmlns="http://www.w3.org/2000/svg" xmlns:xlink="http://www.w3.org/1999/xlink">
<g id="graph0" class="graph" transform="scale(1 1) rotate(0) translate(4 42)">
<title>OrderedList::get</title>
<!-- Node8 -->
<g id="node1" class="node"><title>Node8</title>
<polygon fill="#bfbfbf" stroke="black" points="0,-0.5 0,-19.5 86,-19.5 86,-0.5 0,-0.5"/>
<text text-anchor="middle" x="43" y="-7.5" font-family="Helvetica,sans-Serif" font-size="10.00">OrderedList::get</text>
</g>
<!-- Node9 -->
<g id="node2" class="node"><title>Node9</title>
<g id="a_node2"><a xlink:href="classLinkedList.html#a2704854adf2cfec4aefce769d344aa1a" target="_top" xlink:title="Creates an Iterator, an object that allows the sequential access of values in a Linked List without t...">
<polygon fill="none" stroke="black" points="122,-0.5 122,-19.5 219,-19.5 219,-0.5 122,-0.5"/>
<text text-anchor="middle" x="170.5" y="-7.5" font-family="Helvetica,sans-Serif" font-size="10.00">LinkedList::iterator</text>
</a>
</g>
</g>
<!-- Node8&#45;&gt;Node9 -->
<g id="edge1" class="edge"><title>Node8&#45;&gt;Node9</title>
<path fill="none" stroke="midnightblue" d="M86.1388,-10C94.2388,-10 102.854,-10 111.356,-10"/>
<polygon fill="midnightblue" stroke="midnightblue" points="111.629,-13.5001 121.629,-10 111.629,-6.5001 111.629,-13.5001"/>
</g>
<!-- Node9&#45;&gt;Node9 -->
<g id="edge2" class="edge"><title>Node9&#45;&gt;Node9</title>
<path fill="none" stroke="midnightblue" d="M151.08,-19.7571C141.632,-28.5653 148.105,-38 170.5,-38 184.846,-38 192.659,-34.128 193.937,-29.0292"/>
<polygon fill="midnightblue" stroke="midnightblue" points="197.107,-27.5415 189.92,-19.7571 190.684,-30.3243 197.107,-27.5415"/>
</g>
</g>
</svg>
