<?xml version="1.0" encoding="UTF-8" standalone="no"?>
<!DOCTYPE svg PUBLIC "-//W3C//DTD SVG 1.1//EN"
 "http://www.w3.org/Graphics/SVG/1.1/DTD/svg11.dtd">
<!-- Generated by graphviz version 2.38.0 (20140413.2041)
 -->
<!-- Title: ProtectedLinkedList::isFull Pages: 1 -->
<svg width="449pt" height="871pt"
 viewBox="0.00 0.00 449.00 871.00" xmlns="http://www.w3.org/2000/svg" xmlns:xlink="http://www.w3.org/1999/xlink">
<g id="graph0" class="graph" transform="scale(1 1) rotate(0) translate(4 867)">
<title>ProtectedLinkedList::isFull</title>
<!-- Node33 -->
<g id="node1" class="node"><title>Node33</title>
<polygon fill="#bfbfbf" stroke="black" points="0,-397 0,-427 103,-427 103,-397 0,-397"/>
<text text-anchor="start" x="8" y="-415" font-family="Helvetica,sans-Serif" font-size="10.00">ProtectedLinkedList</text>
<text text-anchor="middle" x="51.5" y="-404" font-family="Helvetica,sans-Serif" font-size="10.00">::isFull</text>
</g>
<!-- Node34 -->
<g id="node2" class="node"><title>Node34</title>
<g id="a_node2"><a xlink:href="classDynamicStack.html#aa29c7376351c331e50266fbf28d624df" target="_top" xlink:title="create the structure and populate it with the data from the array ">
<polygon fill="none" stroke="black" points="142,-843.5 142,-862.5 294,-862.5 294,-843.5 142,-843.5"/>
<text text-anchor="middle" x="218" y="-850.5" font-family="Helvetica,sans-Serif" font-size="10.00">DynamicStack::DynamicStack</text>
</a>
</g>
</g>
<!-- Node33&#45;&gt;Node34 -->
<g id="edge1" class="edge"><title>Node33&#45;&gt;Node34</title>
<path fill="none" stroke="midnightblue" d="M54.4266,-437.336C61.0956,-518.554 85.7635,-770.51 139,-829 144.722,-835.287 152.047,-839.945 159.908,-843.393"/>
<polygon fill="midnightblue" stroke="midnightblue" points="57.8899,-436.737 53.604,-427.047 50.9122,-437.294 57.8899,-436.737"/>
</g>
<!-- Node35 -->
<g id="node3" class="node"><title>Node35</title>
<g id="a_node3"><a xlink:href="classDynamicStack.html#aa1158439339841e5f2b8cc046ae12e16" target="_top" xlink:title="Add an element to the top of the stack. ">
<polygon fill="none" stroke="black" points="333,-795.5 333,-814.5 441,-814.5 441,-795.5 333,-795.5"/>
<text text-anchor="middle" x="387" y="-802.5" font-family="Helvetica,sans-Serif" font-size="10.00">DynamicStack::push</text>
</a>
</g>
</g>
<!-- Node33&#45;&gt;Node35 -->
<g id="edge2" class="edge"><title>Node33&#45;&gt;Node35</title>
<path fill="none" stroke="midnightblue" d="M54.3005,-437.425C60.4026,-515.549 83.1198,-749.614 139,-796 200.742,-847.252 304.078,-828.43 355.297,-814.561"/>
<polygon fill="midnightblue" stroke="midnightblue" points="57.7618,-436.78 53.5188,-427.071 50.7817,-437.307 57.7618,-436.78"/>
</g>
<!-- Node36 -->
<g id="node4" class="node"><title>Node36</title>
<g id="a_node4"><a xlink:href="classDynamicStack.html#a4c043733eaa25b1f3b74bb1365fbe767" target="_top" xlink:title="Remove an element from the top of the stack. ">
<polygon fill="none" stroke="black" points="335.5,-738.5 335.5,-757.5 438.5,-757.5 438.5,-738.5 335.5,-738.5"/>
<text text-anchor="middle" x="387" y="-745.5" font-family="Helvetica,sans-Serif" font-size="10.00">DynamicStack::pop</text>
</a>
</g>
</g>
<!-- Node33&#45;&gt;Node36 -->
<g id="edge3" class="edge"><title>Node33&#45;&gt;Node36</title>
<path fill="none" stroke="midnightblue" d="M56.0684,-437.096C65.9802,-503.084 95.9797,-678.932 139,-716 167.54,-740.591 271.664,-746.531 335.254,-747.818"/>
<polygon fill="midnightblue" stroke="midnightblue" points="59.5217,-436.522 54.601,-427.139 52.5965,-437.543 59.5217,-436.522"/>
</g>
<!-- Node37 -->
<g id="node5" class="node"><title>Node37</title>
<g id="a_node5"><a xlink:href="classDynamicStack.html#ae4893a1adca326d46846fa0fe13a6956" target="_top" xlink:title="See the value from the top of the stack, without removing it. ">
<polygon fill="none" stroke="black" points="333,-700.5 333,-719.5 441,-719.5 441,-700.5 333,-700.5"/>
<text text-anchor="middle" x="387" y="-707.5" font-family="Helvetica,sans-Serif" font-size="10.00">DynamicStack::peek</text>
</a>
</g>
</g>
<!-- Node33&#45;&gt;Node37 -->
<g id="edge4" class="edge"><title>Node33&#45;&gt;Node37</title>
<path fill="none" stroke="midnightblue" d="M52.1987,-437.504C53.0712,-492.049 63.5101,-620.098 139,-682 193.229,-726.468 278.136,-725.764 332.923,-719.319"/>
<polygon fill="midnightblue" stroke="midnightblue" points="55.6976,-437.301 52.1365,-427.323 48.6978,-437.344 55.6976,-437.301"/>
</g>
<!-- Node38 -->
<g id="node6" class="node"><title>Node38</title>
<g id="a_node6"><a xlink:href="classDynamicStack.html#a15be45eff5b9d214cc39e539d0bb0bf8" target="_top" xlink:title="Outputs the number of elements stored in the structure. ">
<polygon fill="none" stroke="black" points="158,-767.5 158,-786.5 278,-786.5 278,-767.5 158,-767.5"/>
<text text-anchor="middle" x="218" y="-774.5" font-family="Helvetica,sans-Serif" font-size="10.00">DynamicStack::getSize</text>
</a>
</g>
</g>
<!-- Node33&#45;&gt;Node38 -->
<g id="edge5" class="edge"><title>Node33&#45;&gt;Node38</title>
<path fill="none" stroke="midnightblue" d="M55.6873,-437.277C65.1083,-508.162 94.9493,-706.686 139,-753 144.956,-759.262 152.503,-763.903 160.543,-767.339"/>
<polygon fill="midnightblue" stroke="midnightblue" points="59.116,-436.502 54.3516,-427.039 52.1748,-437.408 59.116,-436.502"/>
</g>
<!-- Node39 -->
<g id="node7" class="node"><title>Node39</title>
<g id="a_node7"><a xlink:href="classDynamicStack.html#a3d288121e4154d66dba9b426716774e2" target="_top" xlink:title="Check whether the structure is empty. ">
<polygon fill="none" stroke="black" points="156.5,-653.5 156.5,-672.5 279.5,-672.5 279.5,-653.5 156.5,-653.5"/>
<text text-anchor="middle" x="218" y="-660.5" font-family="Helvetica,sans-Serif" font-size="10.00">DynamicStack::isEmpty</text>
</a>
</g>
</g>
<!-- Node33&#45;&gt;Node39 -->
<g id="edge9" class="edge"><title>Node33&#45;&gt;Node39</title>
<path fill="none" stroke="midnightblue" d="M54.3718,-437.247C59.316,-485.049 76.9904,-588.904 139,-644 144.105,-648.536 150.114,-652.032 156.493,-654.719"/>
<polygon fill="midnightblue" stroke="midnightblue" points="57.8435,-436.78 53.4332,-427.147 50.8735,-437.428 57.8435,-436.78"/>
</g>
<!-- Node40 -->
<g id="node8" class="node"><title>Node40</title>
<g id="a_node8"><a xlink:href="classDynamicStack.html#acc3eaee635eaad8f7d783386e5bd3f71" target="_top" xlink:title="Check whether the structure is full. ">
<polygon fill="none" stroke="black" points="163,-615.5 163,-634.5 273,-634.5 273,-615.5 163,-615.5"/>
<text text-anchor="middle" x="218" y="-622.5" font-family="Helvetica,sans-Serif" font-size="10.00">DynamicStack::isFull</text>
</a>
</g>
</g>
<!-- Node33&#45;&gt;Node40 -->
<g id="edge10" class="edge"><title>Node33&#45;&gt;Node40</title>
<path fill="none" stroke="midnightblue" d="M56.397,-436.921C64.2499,-478.493 85.9844,-561.783 139,-606 145.85,-611.713 154.15,-615.758 162.747,-618.61"/>
<polygon fill="midnightblue" stroke="midnightblue" points="59.8419,-436.302 54.6504,-427.066 52.9494,-437.524 59.8419,-436.302"/>
</g>
<!-- Node41 -->
<g id="node9" class="node"><title>Node41</title>
<g id="a_node9"><a xlink:href="classProtectedLinkedList.html#a0d10fb09a1ca2f9f6627be9e9594de62" target="_top" xlink:title="Insert an element at the end of the list. ">
<polygon fill="none" stroke="black" points="166.5,-566 166.5,-596 269.5,-596 269.5,-566 166.5,-566"/>
<text text-anchor="start" x="174.5" y="-584" font-family="Helvetica,sans-Serif" font-size="10.00">ProtectedLinkedList</text>
<text text-anchor="middle" x="218" y="-573" font-family="Helvetica,sans-Serif" font-size="10.00">::insert</text>
</a>
</g>
</g>
<!-- Node33&#45;&gt;Node41 -->
<g id="edge11" class="edge"><title>Node33&#45;&gt;Node41</title>
<path fill="none" stroke="midnightblue" d="M60.871,-436.817C73.0322,-469.158 98.6432,-525.308 139,-557 147.023,-563.3 156.703,-567.955 166.473,-571.392"/>
<polygon fill="midnightblue" stroke="midnightblue" points="64.0895,-435.426 57.3935,-427.215 57.5078,-437.809 64.0895,-435.426"/>
</g>
<!-- Node42 -->
<g id="node10" class="node"><title>Node42</title>
<g id="a_node10"><a xlink:href="classProtectedLinkedList.html#a560a9d6a109a056542bbb51295c08be5" target="_top" xlink:title="Creates an Iterator, an object that allows the sequential access of values in a Linked List without t...">
<polygon fill="none" stroke="black" points="166.5,-517 166.5,-547 269.5,-547 269.5,-517 166.5,-517"/>
<text text-anchor="start" x="174.5" y="-535" font-family="Helvetica,sans-Serif" font-size="10.00">ProtectedLinkedList</text>
<text text-anchor="middle" x="218" y="-524" font-family="Helvetica,sans-Serif" font-size="10.00">::iterator</text>
</a>
</g>
</g>
<!-- Node33&#45;&gt;Node42 -->
<g id="edge12" class="edge"><title>Node33&#45;&gt;Node42</title>
<path fill="none" stroke="midnightblue" d="M68.1466,-435.698C83.6835,-457.464 109.413,-489.121 139,-508 147.241,-513.259 156.706,-517.426 166.137,-520.708"/>
<polygon fill="midnightblue" stroke="midnightblue" points="70.9052,-433.534 62.3217,-427.323 65.1586,-437.531 70.9052,-433.534"/>
</g>
<!-- Node43 -->
<g id="node11" class="node"><title>Node43</title>
<g id="a_node11"><a xlink:href="classProtectedLinkedList.html#a2c645bc1c92a52d7856a6cb1f07e9d5f" target="_top" xlink:title="Outputs the number of elements stored in the structure. ">
<polygon fill="none" stroke="black" points="166.5,-468 166.5,-498 269.5,-498 269.5,-468 166.5,-468"/>
<text text-anchor="start" x="174.5" y="-486" font-family="Helvetica,sans-Serif" font-size="10.00">ProtectedLinkedList</text>
<text text-anchor="middle" x="218" y="-475" font-family="Helvetica,sans-Serif" font-size="10.00">::getSize</text>
</a>
</g>
</g>
<!-- Node33&#45;&gt;Node43 -->
<g id="edge13" class="edge"><title>Node33&#45;&gt;Node43</title>
<path fill="none" stroke="midnightblue" d="M86.0239,-432.245C101.747,-441.207 120.958,-451.412 139,-459 147.62,-462.625 156.979,-465.976 166.124,-468.954"/>
<polygon fill="midnightblue" stroke="midnightblue" points="87.613,-429.121 77.2047,-427.141 84.1067,-435.179 87.613,-429.121"/>
</g>
<!-- Node44 -->
<g id="node12" class="node"><title>Node44</title>
<g id="a_node12"><a xlink:href="classProtectedLinkedList.html#a822ace4da4397285a6d0211e1c38c779" target="_top" xlink:title="Check whether the structure is empty. ">
<polygon fill="none" stroke="black" points="166.5,-419 166.5,-449 269.5,-449 269.5,-419 166.5,-419"/>
<text text-anchor="start" x="174.5" y="-437" font-family="Helvetica,sans-Serif" font-size="10.00">ProtectedLinkedList</text>
<text text-anchor="middle" x="218" y="-426" font-family="Helvetica,sans-Serif" font-size="10.00">::isEmpty</text>
</a>
</g>
</g>
<!-- Node33&#45;&gt;Node44 -->
<g id="edge14" class="edge"><title>Node33&#45;&gt;Node44</title>
<path fill="none" stroke="midnightblue" d="M113.308,-420.132C130.796,-422.471 149.675,-424.996 166.47,-427.242"/>
<polygon fill="midnightblue" stroke="midnightblue" points="113.573,-416.637 103.198,-418.78 112.645,-423.575 113.573,-416.637"/>
</g>
<!-- Node45 -->
<g id="node13" class="node"><title>Node45</title>
<g id="a_node13"><a xlink:href="classDynamicQueue.html#a2b8cf8757d1a927b55c7e8f934b824c6" target="_top" xlink:title="create the structure and populate it with the data from the array ">
<polygon fill="none" stroke="black" points="139,-380.5 139,-399.5 297,-399.5 297,-380.5 139,-380.5"/>
<text text-anchor="middle" x="218" y="-387.5" font-family="Helvetica,sans-Serif" font-size="10.00">DynamicQueue::DynamicQueue</text>
</a>
</g>
</g>
<!-- Node33&#45;&gt;Node45 -->
<g id="edge15" class="edge"><title>Node33&#45;&gt;Node45</title>
<path fill="none" stroke="midnightblue" d="M113.216,-403.88C123.856,-402.457 135.014,-400.965 145.906,-399.508"/>
<polygon fill="midnightblue" stroke="midnightblue" points="112.645,-400.425 103.198,-405.22 113.573,-407.363 112.645,-400.425"/>
</g>
<!-- Node46 -->
<g id="node14" class="node"><title>Node46</title>
<g id="a_node14"><a xlink:href="classDynamicQueue.html#aa0df1f79d65a9a331de7c2fd6bbb00eb" target="_top" xlink:title="Add an element to the end of the queue. ">
<polygon fill="none" stroke="black" points="154.5,-342.5 154.5,-361.5 281.5,-361.5 281.5,-342.5 154.5,-342.5"/>
<text text-anchor="middle" x="218" y="-349.5" font-family="Helvetica,sans-Serif" font-size="10.00">DynamicQueue::enqueue</text>
</a>
</g>
</g>
<!-- Node33&#45;&gt;Node46 -->
<g id="edge16" class="edge"><title>Node33&#45;&gt;Node46</title>
<path fill="none" stroke="midnightblue" d="M89.69,-392.331C104.713,-384.929 122.397,-376.888 139,-371 149.246,-367.367 160.49,-364.183 171.172,-361.513"/>
<polygon fill="midnightblue" stroke="midnightblue" points="88.0836,-389.221 80.7133,-396.832 91.2213,-395.478 88.0836,-389.221"/>
</g>
<!-- Node47 -->
<g id="node15" class="node"><title>Node47</title>
<g id="a_node15"><a xlink:href="classDynamicQueue.html#aaba481ddc48bb2327a23326e69c6f245" target="_top" xlink:title="Remove an element from the queue. ">
<polygon fill="none" stroke="black" points="154.5,-304.5 154.5,-323.5 281.5,-323.5 281.5,-304.5 154.5,-304.5"/>
<text text-anchor="middle" x="218" y="-311.5" font-family="Helvetica,sans-Serif" font-size="10.00">DynamicQueue::dequeue</text>
</a>
</g>
</g>
<!-- Node33&#45;&gt;Node47 -->
<g id="edge17" class="edge"><title>Node33&#45;&gt;Node47</title>
<path fill="none" stroke="midnightblue" d="M71.7016,-389.029C87.8685,-371.157 112.539,-347.098 139,-333 146.257,-329.133 154.313,-326.04 162.413,-323.568"/>
<polygon fill="midnightblue" stroke="midnightblue" points="68.8844,-386.932 64.896,-396.748 74.1349,-391.562 68.8844,-386.932"/>
</g>
<!-- Node48 -->
<g id="node16" class="node"><title>Node48</title>
<g id="a_node16"><a xlink:href="classDynamicQueue.html#ae99fcbe790a08cac54ff1f641ddbff55" target="_top" xlink:title="See the first value from the queue, without removing it. ">
<polygon fill="none" stroke="black" points="162.5,-266.5 162.5,-285.5 273.5,-285.5 273.5,-266.5 162.5,-266.5"/>
<text text-anchor="middle" x="218" y="-273.5" font-family="Helvetica,sans-Serif" font-size="10.00">DynamicQueue::peek</text>
</a>
</g>
</g>
<!-- Node33&#45;&gt;Node48 -->
<g id="edge18" class="edge"><title>Node33&#45;&gt;Node48</title>
<path fill="none" stroke="midnightblue" d="M63.9689,-387.657C77.9019,-360.793 103.961,-318.286 139,-295 145.965,-290.371 153.95,-286.869 162.093,-284.218"/>
<polygon fill="midnightblue" stroke="midnightblue" points="60.747,-386.273 59.3901,-396.781 67.0035,-389.413 60.747,-386.273"/>
</g>
<!-- Node49 -->
<g id="node17" class="node"><title>Node49</title>
<g id="a_node17"><a xlink:href="classDynamicQueue.html#ae43a2dd0394a06d03481a3bffb196a7a" target="_top" xlink:title="Outputs the number of elements stored in the structure. ">
<polygon fill="none" stroke="black" points="156.5,-228.5 156.5,-247.5 279.5,-247.5 279.5,-228.5 156.5,-228.5"/>
<text text-anchor="middle" x="218" y="-235.5" font-family="Helvetica,sans-Serif" font-size="10.00">DynamicQueue::getSize</text>
</a>
</g>
</g>
<!-- Node33&#45;&gt;Node49 -->
<g id="edge19" class="edge"><title>Node33&#45;&gt;Node49</title>
<path fill="none" stroke="midnightblue" d="M59.4404,-387.16C70.4303,-352.545 95.2138,-290.311 139,-257 144.213,-253.034 150.142,-249.883 156.347,-247.383"/>
<polygon fill="midnightblue" stroke="midnightblue" points="56.0232,-386.368 56.4668,-396.953 62.7212,-388.401 56.0232,-386.368"/>
</g>
<!-- Node50 -->
<g id="node18" class="node"><title>Node50</title>
<g id="a_node18"><a xlink:href="classDynamicQueue.html#a4c0b86d73c9b3c64f64cab764a3baad7" target="_top" xlink:title="Check whether the structure is empty. ">
<polygon fill="none" stroke="black" points="155,-190.5 155,-209.5 281,-209.5 281,-190.5 155,-190.5"/>
<text text-anchor="middle" x="218" y="-197.5" font-family="Helvetica,sans-Serif" font-size="10.00">DynamicQueue::isEmpty</text>
</a>
</g>
</g>
<!-- Node33&#45;&gt;Node50 -->
<g id="edge20" class="edge"><title>Node33&#45;&gt;Node50</title>
<path fill="none" stroke="midnightblue" d="M56.5467,-386.634C64.5499,-345.085 86.4116,-262.775 139,-219 143.713,-215.077 149.111,-211.941 154.818,-209.437"/>
<polygon fill="midnightblue" stroke="midnightblue" points="53.0547,-386.277 54.7211,-396.74 59.9432,-387.522 53.0547,-386.277"/>
</g>
<!-- Node51 -->
<g id="node19" class="node"><title>Node51</title>
<g id="a_node19"><a xlink:href="classDynamicQueue.html#afe36f5bc7b10e0a213ae927d905d0c51" target="_top" xlink:title="Check whether the structure is full. ">
<polygon fill="none" stroke="black" points="161.5,-152.5 161.5,-171.5 274.5,-171.5 274.5,-152.5 161.5,-152.5"/>
<text text-anchor="middle" x="218" y="-159.5" font-family="Helvetica,sans-Serif" font-size="10.00">DynamicQueue::isFull</text>
</a>
</g>
</g>
<!-- Node33&#45;&gt;Node51 -->
<g id="edge21" class="edge"><title>Node33&#45;&gt;Node51</title>
<path fill="none" stroke="midnightblue" d="M54.4074,-386.859C59.4124,-339.259 77.1862,-235.843 139,-181 145.36,-175.357 153.117,-171.325 161.245,-168.456"/>
<polygon fill="midnightblue" stroke="midnightblue" points="50.9133,-386.632 53.4554,-396.917 57.8822,-387.291 50.9133,-386.632"/>
</g>
<!-- Node52 -->
<g id="node20" class="node"><title>Node52</title>
<g id="a_node20"><a xlink:href="classLinkedList.html#a2a85fa8f0c355604d8b4e81ad8f60f9b" target="_top" xlink:title="create the structure and populate it with the data from the array ">
<polygon fill="none" stroke="black" points="162.5,-114.5 162.5,-133.5 273.5,-133.5 273.5,-114.5 162.5,-114.5"/>
<text text-anchor="middle" x="218" y="-121.5" font-family="Helvetica,sans-Serif" font-size="10.00">LinkedList::LinkedList</text>
</a>
</g>
</g>
<!-- Node33&#45;&gt;Node52 -->
<g id="edge22" class="edge"><title>Node33&#45;&gt;Node52</title>
<path fill="none" stroke="midnightblue" d="M52.8753,-386.581C55.1019,-333.21 68.0795,-208.978 139,-143 145.531,-136.924 153.671,-132.699 162.208,-129.778"/>
<polygon fill="midnightblue" stroke="midnightblue" points="49.3684,-386.741 52.5463,-396.848 56.3648,-386.965 49.3684,-386.741"/>
</g>
<!-- Node53 -->
<g id="node21" class="node"><title>Node53</title>
<g id="a_node21"><a xlink:href="classLinkedList.html#a3b7a53185b8caf67f4ed06064b334a1f" target="_top" xlink:title="Insert an element at the end of the list. ">
<polygon fill="none" stroke="black" points="172.5,-76.5 172.5,-95.5 263.5,-95.5 263.5,-76.5 172.5,-76.5"/>
<text text-anchor="middle" x="218" y="-83.5" font-family="Helvetica,sans-Serif" font-size="10.00">LinkedList::insert</text>
</a>
</g>
</g>
<!-- Node33&#45;&gt;Node53 -->
<g id="edge23" class="edge"><title>Node33&#45;&gt;Node53</title>
<path fill="none" stroke="midnightblue" d="M51.6747,-386.728C51.2213,-328.206 58.7014,-182.482 139,-105 147.926,-96.3867 160.074,-91.4659 172.123,-88.7112"/>
<polygon fill="midnightblue" stroke="midnightblue" points="48.1782,-386.974 51.8439,-396.915 55.1773,-386.858 48.1782,-386.974"/>
</g>
<!-- Node54 -->
<g id="node22" class="node"><title>Node54</title>
<g id="a_node22"><a xlink:href="classLinkedList.html#a59892db564e687eb178a73acfeec5b8b" target="_top" xlink:title="Remove an element from the list. ">
<polygon fill="none" stroke="black" points="168.5,-38.5 168.5,-57.5 267.5,-57.5 267.5,-38.5 168.5,-38.5"/>
<text text-anchor="middle" x="218" y="-45.5" font-family="Helvetica,sans-Serif" font-size="10.00">LinkedList::remove</text>
</a>
</g>
</g>
<!-- Node33&#45;&gt;Node54 -->
<g id="edge24" class="edge"><title>Node33&#45;&gt;Node54</title>
<path fill="none" stroke="midnightblue" d="M55.453,-386.739C64.3345,-315.061 93.0577,-112.634 139,-67 146.911,-59.1422 157.495,-54.3401 168.308,-51.4512"/>
<polygon fill="midnightblue" stroke="midnightblue" points="51.9738,-386.356 54.2424,-396.705 58.9228,-387.2 51.9738,-386.356"/>
</g>
<!-- Node55 -->
<g id="node23" class="node"><title>Node55</title>
<g id="a_node23"><a xlink:href="classLinkedList.html#a5a63288e20c681b7b4422f3587986532" target="_top" xlink:title="Get the element at the specified position in the list, without removing it. ">
<polygon fill="none" stroke="black" points="178,-0.5 178,-19.5 258,-19.5 258,-0.5 178,-0.5"/>
<text text-anchor="middle" x="218" y="-7.5" font-family="Helvetica,sans-Serif" font-size="10.00">LinkedList::get</text>
</a>
</g>
</g>
<!-- Node33&#45;&gt;Node55 -->
<g id="edge25" class="edge"><title>Node33&#45;&gt;Node55</title>
<path fill="none" stroke="midnightblue" d="M54.7902,-386.589C62.2465,-309.52 88.3205,-80.5389 139,-29 149.163,-18.6646 163.942,-13.5909 177.908,-11.2096"/>
<polygon fill="midnightblue" stroke="midnightblue" points="51.28,-386.534 53.8245,-396.819 58.249,-387.192 51.28,-386.534"/>
</g>
<!-- Node38&#45;&gt;Node35 -->
<g id="edge6" class="edge"><title>Node38&#45;&gt;Node35</title>
<path fill="none" stroke="midnightblue" d="M286.099,-788.25C301.67,-790.861 318.034,-793.604 332.906,-796.098"/>
<polygon fill="midnightblue" stroke="midnightblue" points="286.446,-784.76 276.005,-786.558 285.288,-791.663 286.446,-784.76"/>
</g>
<!-- Node38&#45;&gt;Node36 -->
<g id="edge7" class="edge"><title>Node38&#45;&gt;Node36</title>
<path fill="none" stroke="midnightblue" d="M284.042,-765.705C301.104,-762.742 319.247,-759.592 335.427,-756.782"/>
<polygon fill="midnightblue" stroke="midnightblue" points="283.399,-762.265 274.145,-767.424 284.596,-769.161 283.399,-762.265"/>
</g>
<!-- Node38&#45;&gt;Node37 -->
<g id="edge8" class="edge"><title>Node38&#45;&gt;Node37</title>
<path fill="none" stroke="midnightblue" d="M249.902,-763.453C272.73,-753.576 304.635,-740.047 333,-729 341.198,-725.808 350.182,-722.511 358.386,-719.579"/>
<polygon fill="midnightblue" stroke="midnightblue" points="248.489,-760.25 240.711,-767.444 251.278,-766.671 248.489,-760.25"/>
</g>
</g>
</svg>
