<?xml version="1.0" encoding="UTF-8" standalone="no"?>
<!DOCTYPE svg PUBLIC "-//W3C//DTD SVG 1.1//EN"
 "http://www.w3.org/Graphics/SVG/1.1/DTD/svg11.dtd">
<!-- Generated by graphviz version 2.38.0 (20140413.2041)
 -->
<!-- Title: Node&lt; T &gt; Pages: 1 -->
<svg width="152pt" height="248pt"
 viewBox="0.00 0.00 152.00 248.00" xmlns="http://www.w3.org/2000/svg" xmlns:xlink="http://www.w3.org/1999/xlink">
<g id="graph0" class="graph" transform="scale(1 1) rotate(0) translate(4 244)">
<title>Node&lt; T &gt;</title>
<!-- Node1 -->
<g id="node1" class="node"><title>Node1</title>
<polygon fill="#bfbfbf" stroke="black" points="0,-0.5 0,-134.5 83,-134.5 83,-0.5 0,-0.5"/>
<text text-anchor="middle" x="41.5" y="-122.5" font-family="Helvetica,sans-Serif" font-size="10.00">Node&lt; T &gt;</text>
<polyline fill="none" stroke="black" points="0,-115.5 83,-115.5 "/>
<text text-anchor="middle" x="41.5" y="-103.5" font-family="Helvetica,sans-Serif" font-size="10.00"> </text>
<polyline fill="none" stroke="black" points="0,-96.5 83,-96.5 "/>
<text text-anchor="start" x="8" y="-84.5" font-family="Helvetica,sans-Serif" font-size="10.00">+ Node()</text>
<text text-anchor="start" x="8" y="-73.5" font-family="Helvetica,sans-Serif" font-size="10.00">+ ~Node()</text>
<text text-anchor="start" x="8" y="-62.5" font-family="Helvetica,sans-Serif" font-size="10.00">+ getValue()</text>
<text text-anchor="start" x="8" y="-51.5" font-family="Helvetica,sans-Serif" font-size="10.00">+ setValue()</text>
<text text-anchor="start" x="8" y="-40.5" font-family="Helvetica,sans-Serif" font-size="10.00">+ getNext()</text>
<text text-anchor="start" x="8" y="-29.5" font-family="Helvetica,sans-Serif" font-size="10.00">+ setNext()</text>
<text text-anchor="start" x="8" y="-18.5" font-family="Helvetica,sans-Serif" font-size="10.00">+ getPrevious()</text>
<text text-anchor="start" x="8" y="-7.5" font-family="Helvetica,sans-Serif" font-size="10.00">+ setPrevious()</text>
</g>
<!-- Node1&#45;&gt;Node1 -->
<g id="edge1" class="edge"><title>Node1&#45;&gt;Node1</title>
<path fill="none" stroke="#404040" d="M83.2052,-84.1113C93.4076,-82.8809 101,-77.3437 101,-67.5 101,-61.9629 98.5977,-57.7884 94.6799,-54.9766"/>
<polygon fill="none" stroke="#404040" points="94.5093,-54.9159 87.5148,-56.6703 83.2052,-50.8887 90.1996,-49.1343 94.5093,-54.9159"/>
<text text-anchor="middle" x="122.5" y="-70.5" font-family="Helvetica,sans-Serif" font-size="10.00"> &#45;previous</text>
<text text-anchor="middle" x="122.5" y="-59.5" font-family="Helvetica,sans-Serif" font-size="10.00">&#45;next</text>
</g>
<!-- Node2 -->
<g id="node2" class="node"><title>Node2</title>
<polygon fill="none" stroke="#bfbfbf" points="27,-182.5 27,-239.5 56,-239.5 56,-182.5 27,-182.5"/>
<text text-anchor="middle" x="41.5" y="-227.5" font-family="Helvetica,sans-Serif" font-size="10.00">T</text>
<polyline fill="none" stroke="#bfbfbf" points="27,-220.5 56,-220.5 "/>
<text text-anchor="middle" x="41.5" y="-208.5" font-family="Helvetica,sans-Serif" font-size="10.00"> </text>
<polyline fill="none" stroke="#bfbfbf" points="27,-201.5 56,-201.5 "/>
<text text-anchor="middle" x="41.5" y="-189.5" font-family="Helvetica,sans-Serif" font-size="10.00"> </text>
</g>
<!-- Node2&#45;&gt;Node1 -->
<g id="edge2" class="edge"><title>Node2&#45;&gt;Node1</title>
<path fill="none" stroke="#404040" d="M41.5,-182.381C41.5,-172.02 41.5,-159.663 41.5,-146.97"/>
<polygon fill="none" stroke="#404040" points="41.5001,-146.753 37.5,-140.753 41.5,-134.753 45.5,-140.753 41.5001,-146.753"/>
<text text-anchor="middle" x="56.5" y="-156" font-family="Helvetica,sans-Serif" font-size="10.00"> &#45;value</text>
</g>
</g>
</svg>
