<?xml version="1.0" encoding="UTF-8" standalone="no"?>
<!DOCTYPE svg PUBLIC "-//W3C//DTD SVG 1.1//EN"
 "http://www.w3.org/Graphics/SVG/1.1/DTD/svg11.dtd">
<!-- Generated by graphviz version 2.38.0 (20140413.2041)
 -->
<!-- Title: ProtectedLinkedList::getNode Pages: 1 -->
<svg width="269pt" height="127pt"
 viewBox="0.00 0.00 269.00 126.50" xmlns="http://www.w3.org/2000/svg" xmlns:xlink="http://www.w3.org/1999/xlink">
<g id="graph0" class="graph" transform="scale(1 1) rotate(0) translate(4 122.5)">
<title>ProtectedLinkedList::getNode</title>
<!-- Node16 -->
<g id="node1" class="node"><title>Node16</title>
<polygon fill="#bfbfbf" stroke="black" points="0,-39 0,-69 103,-69 103,-39 0,-39"/>
<text text-anchor="start" x="8" y="-57" font-family="Helvetica,sans-Serif" font-size="10.00">ProtectedLinkedList</text>
<text text-anchor="middle" x="51.5" y="-46" font-family="Helvetica,sans-Serif" font-size="10.00">::getNode</text>
</g>
<!-- Node17 -->
<g id="node2" class="node"><title>Node17</title>
<g id="a_node2"><a xlink:href="classProtectedLinkedList.html#a88a61a6e3b3f3f108ead1b8086f841a3" target="_top" xlink:title="Insert an element at the specified position in the list. ">
<polygon fill="none" stroke="black" points="148.5,-88 148.5,-118 251.5,-118 251.5,-88 148.5,-88"/>
<text text-anchor="start" x="156.5" y="-106" font-family="Helvetica,sans-Serif" font-size="10.00">ProtectedLinkedList</text>
<text text-anchor="middle" x="200" y="-95" font-family="Helvetica,sans-Serif" font-size="10.00">::insert</text>
</a>
</g>
</g>
<!-- Node16&#45;&gt;Node17 -->
<g id="edge1" class="edge"><title>Node16&#45;&gt;Node17</title>
<path fill="none" stroke="midnightblue" d="M107.529,-72.4055C122.857,-77.5322 139.321,-83.0392 153.999,-87.9484"/>
<polygon fill="midnightblue" stroke="midnightblue" points="108.244,-68.9542 97.6502,-69.1014 106.024,-75.5928 108.244,-68.9542"/>
</g>
<!-- Node18 -->
<g id="node3" class="node"><title>Node18</title>
<g id="a_node3"><a xlink:href="classProtectedLinkedList.html#a87b0381dac498114329cc0ebbf7433dc" target="_top" xlink:title="Remove an element from the list. ">
<polygon fill="none" stroke="black" points="148.5,-39 148.5,-69 251.5,-69 251.5,-39 148.5,-39"/>
<text text-anchor="start" x="156.5" y="-57" font-family="Helvetica,sans-Serif" font-size="10.00">ProtectedLinkedList</text>
<text text-anchor="middle" x="200" y="-46" font-family="Helvetica,sans-Serif" font-size="10.00">::remove</text>
</a>
</g>
</g>
<!-- Node16&#45;&gt;Node18 -->
<g id="edge2" class="edge"><title>Node16&#45;&gt;Node18</title>
<path fill="none" stroke="midnightblue" d="M113.384,-54C124.987,-54 137.017,-54 148.262,-54"/>
<polygon fill="midnightblue" stroke="midnightblue" points="113.327,-50.5001 103.327,-54 113.327,-57.5001 113.327,-50.5001"/>
</g>
<!-- Node19 -->
<g id="node4" class="node"><title>Node19</title>
<g id="a_node4"><a xlink:href="classProtectedLinkedList.html#a93c97821e8c139b44c9bd4ba9f5946c4" target="_top" xlink:title="Get the element at the specified position in the list, without removing it. ">
<polygon fill="none" stroke="black" points="139,-0.5 139,-19.5 261,-19.5 261,-0.5 139,-0.5"/>
<text text-anchor="middle" x="200" y="-7.5" font-family="Helvetica,sans-Serif" font-size="10.00">ProtectedLinkedList::get</text>
</a>
</g>
</g>
<!-- Node16&#45;&gt;Node19 -->
<g id="edge3" class="edge"><title>Node16&#45;&gt;Node19</title>
<path fill="none" stroke="midnightblue" d="M112.198,-36.0702C130.997,-30.4241 151.03,-24.4073 167.109,-19.5783"/>
<polygon fill="midnightblue" stroke="midnightblue" points="111.078,-32.7521 102.507,-38.9808 113.091,-39.4563 111.078,-32.7521"/>
</g>
</g>
</svg>
