<?xml version="1.0" encoding="UTF-8" standalone="no"?>
<!DOCTYPE svg PUBLIC "-//W3C//DTD SVG 1.1//EN"
 "http://www.w3.org/Graphics/SVG/1.1/DTD/svg11.dtd">
<!-- Generated by graphviz version 2.38.0 (20140413.2041)
 -->
<!-- Title: StaticQueue&lt; T &gt; Pages: 1 -->
<svg width="178pt" height="464pt"
 viewBox="0.00 0.00 177.50 464.00" xmlns="http://www.w3.org/2000/svg" xmlns:xlink="http://www.w3.org/1999/xlink">
<g id="graph0" class="graph" transform="scale(1 1) rotate(0) translate(4 460)">
<title>StaticQueue&lt; T &gt;</title>
<!-- Node3 -->
<g id="node1" class="node"><title>Node3</title>
<polygon fill="#bfbfbf" stroke="black" points="59,-0.5 59,-156.5 154,-156.5 154,-0.5 59,-0.5"/>
<text text-anchor="middle" x="106.5" y="-144.5" font-family="Helvetica,sans-Serif" font-size="10.00">StaticQueue&lt; T &gt;</text>
<polyline fill="none" stroke="black" points="59,-137.5 154,-137.5 "/>
<text text-anchor="middle" x="106.5" y="-125.5" font-family="Helvetica,sans-Serif" font-size="10.00"> </text>
<polyline fill="none" stroke="black" points="59,-118.5 154,-118.5 "/>
<text text-anchor="start" x="67" y="-106.5" font-family="Helvetica,sans-Serif" font-size="10.00">+ getName()</text>
<text text-anchor="start" x="67" y="-95.5" font-family="Helvetica,sans-Serif" font-size="10.00">+ StaticQueue()</text>
<text text-anchor="start" x="67" y="-84.5" font-family="Helvetica,sans-Serif" font-size="10.00">+ StaticQueue()</text>
<text text-anchor="start" x="67" y="-73.5" font-family="Helvetica,sans-Serif" font-size="10.00">+ ~StaticQueue()</text>
<text text-anchor="start" x="67" y="-62.5" font-family="Helvetica,sans-Serif" font-size="10.00">+ enqueue()</text>
<text text-anchor="start" x="67" y="-51.5" font-family="Helvetica,sans-Serif" font-size="10.00">+ dequeue()</text>
<text text-anchor="start" x="67" y="-40.5" font-family="Helvetica,sans-Serif" font-size="10.00">+ peek()</text>
<text text-anchor="start" x="67" y="-29.5" font-family="Helvetica,sans-Serif" font-size="10.00">+ getSize()</text>
<text text-anchor="start" x="67" y="-18.5" font-family="Helvetica,sans-Serif" font-size="10.00">+ isEmpty()</text>
<text text-anchor="start" x="67" y="-7.5" font-family="Helvetica,sans-Serif" font-size="10.00">+ isFull()</text>
</g>
<!-- Node4 -->
<g id="node2" class="node"><title>Node4</title>
<g id="a_node2"><a xlink:href="classQueue.html" target="_top" xlink:title="Abstract queue interface. ">
<polygon fill="none" stroke="black" points="3,-237.5 3,-327.5 74,-327.5 74,-237.5 3,-237.5"/>
<text text-anchor="middle" x="38.5" y="-315.5" font-family="Helvetica,sans-Serif" font-size="10.00">Queue&lt; T &gt;</text>
<polyline fill="none" stroke="black" points="3,-308.5 74,-308.5 "/>
<text text-anchor="middle" x="38.5" y="-296.5" font-family="Helvetica,sans-Serif" font-size="10.00"> </text>
<polyline fill="none" stroke="black" points="3,-289.5 74,-289.5 "/>
<text text-anchor="start" x="11" y="-277.5" font-family="Helvetica,sans-Serif" font-size="10.00">+ getName()</text>
<text text-anchor="start" x="11" y="-266.5" font-family="Helvetica,sans-Serif" font-size="10.00">+ enqueue()</text>
<text text-anchor="start" x="11" y="-255.5" font-family="Helvetica,sans-Serif" font-size="10.00">+ dequeue()</text>
<text text-anchor="start" x="11" y="-244.5" font-family="Helvetica,sans-Serif" font-size="10.00">+ peek()</text>
</a>
</g>
</g>
<!-- Node4&#45;&gt;Node3 -->
<g id="edge1" class="edge"><title>Node4&#45;&gt;Node3</title>
<path fill="none" stroke="midnightblue" d="M56.6868,-227.474C63.9975,-205.757 72.5631,-180.312 80.5098,-156.706"/>
<polygon fill="none" stroke="midnightblue" points="53.2963,-226.576 53.4229,-237.17 59.9305,-228.809 53.2963,-226.576"/>
</g>
<!-- Node5 -->
<g id="node3" class="node"><title>Node5</title>
<g id="a_node3"><a xlink:href="classDataStructure.html" target="_top" xlink:title="Base class for all data structures. ">
<polygon fill="none" stroke="black" points="0,-365.5 0,-455.5 77,-455.5 77,-365.5 0,-365.5"/>
<text text-anchor="middle" x="38.5" y="-443.5" font-family="Helvetica,sans-Serif" font-size="10.00">DataStructure</text>
<polyline fill="none" stroke="black" points="0,-436.5 77,-436.5 "/>
<text text-anchor="middle" x="38.5" y="-424.5" font-family="Helvetica,sans-Serif" font-size="10.00"> </text>
<polyline fill="none" stroke="black" points="0,-417.5 77,-417.5 "/>
<text text-anchor="start" x="8" y="-405.5" font-family="Helvetica,sans-Serif" font-size="10.00">+ getSize()</text>
<text text-anchor="start" x="8" y="-394.5" font-family="Helvetica,sans-Serif" font-size="10.00">+ getName()</text>
<text text-anchor="start" x="8" y="-383.5" font-family="Helvetica,sans-Serif" font-size="10.00">+ isEmpty()</text>
<text text-anchor="start" x="8" y="-372.5" font-family="Helvetica,sans-Serif" font-size="10.00">+ isFull()</text>
</a>
</g>
</g>
<!-- Node5&#45;&gt;Node4 -->
<g id="edge2" class="edge"><title>Node5&#45;&gt;Node4</title>
<path fill="none" stroke="midnightblue" d="M38.5,-355.226C38.5,-346.056 38.5,-336.633 38.5,-327.757"/>
<polygon fill="none" stroke="midnightblue" points="35.0001,-355.431 38.5,-365.431 42.0001,-355.431 35.0001,-355.431"/>
</g>
<!-- Node6 -->
<g id="node4" class="node"><title>Node6</title>
<polygon fill="none" stroke="#bfbfbf" points="92,-254 92,-311 121,-311 121,-254 92,-254"/>
<text text-anchor="middle" x="106.5" y="-299" font-family="Helvetica,sans-Serif" font-size="10.00">T *</text>
<polyline fill="none" stroke="#bfbfbf" points="92,-292 121,-292 "/>
<text text-anchor="middle" x="106.5" y="-280" font-family="Helvetica,sans-Serif" font-size="10.00"> </text>
<polyline fill="none" stroke="#bfbfbf" points="92,-273 121,-273 "/>
<text text-anchor="middle" x="106.5" y="-261" font-family="Helvetica,sans-Serif" font-size="10.00"> </text>
</g>
<!-- Node6&#45;&gt;Node3 -->
<g id="edge3" class="edge"><title>Node6&#45;&gt;Node3</title>
<path fill="none" stroke="#404040" d="M106.5,-253.836C106.5,-231.801 106.5,-199.662 106.5,-168.963"/>
<polygon fill="none" stroke="#404040" points="106.5,-168.842 102.5,-162.842 106.5,-156.842 110.5,-162.841 106.5,-168.842"/>
<text text-anchor="middle" x="119" y="-194.5" font-family="Helvetica,sans-Serif" font-size="10.00"> &#45;data</text>
</g>
<!-- Node7 -->
<g id="node5" class="node"><title>Node7</title>
<polygon fill="none" stroke="#bfbfbf" points="140,-254 140,-311 169,-311 169,-254 140,-254"/>
<text text-anchor="middle" x="154.5" y="-299" font-family="Helvetica,sans-Serif" font-size="10.00">int</text>
<polyline fill="none" stroke="#bfbfbf" points="140,-292 169,-292 "/>
<text text-anchor="middle" x="154.5" y="-280" font-family="Helvetica,sans-Serif" font-size="10.00"> </text>
<polyline fill="none" stroke="#bfbfbf" points="140,-273 169,-273 "/>
<text text-anchor="middle" x="154.5" y="-261" font-family="Helvetica,sans-Serif" font-size="10.00"> </text>
</g>
<!-- Node7&#45;&gt;Node3 -->
<g id="edge4" class="edge"><title>Node7&#45;&gt;Node3</title>
<path fill="none" stroke="#404040" d="M149.27,-253.813C145.08,-232.256 138.868,-201.625 132.5,-175 131.983,-172.838 131.452,-170.65 130.909,-168.446"/>
<polygon fill="none" stroke="#404040" points="130.841,-168.174 125.498,-163.33 127.914,-156.536 133.257,-161.379 130.841,-168.174"/>
<text text-anchor="middle" x="155.5" y="-211" font-family="Helvetica,sans-Serif" font-size="10.00"> &#45;head</text>
<text text-anchor="middle" x="155.5" y="-200" font-family="Helvetica,sans-Serif" font-size="10.00">&#45;tail</text>
<text text-anchor="middle" x="155.5" y="-189" font-family="Helvetica,sans-Serif" font-size="10.00">&#45;size</text>
<text text-anchor="middle" x="155.5" y="-178" font-family="Helvetica,sans-Serif" font-size="10.00">&#45;count</text>
</g>
</g>
</svg>
