<?xml version="1.0" encoding="UTF-8" standalone="no"?>
<!DOCTYPE svg PUBLIC "-//W3C//DTD SVG 1.1//EN"
 "http://www.w3.org/Graphics/SVG/1.1/DTD/svg11.dtd">
<!-- Generated by graphviz version 2.38.0 (20140413.2041)
 -->
<!-- Title: LinkedList::iterator Pages: 1 -->
<svg width="394pt" height="218pt"
 viewBox="0.00 0.00 394.00 218.00" xmlns="http://www.w3.org/2000/svg" xmlns:xlink="http://www.w3.org/1999/xlink">
<g id="graph0" class="graph" transform="scale(1 1) rotate(0) translate(4 214)">
<title>LinkedList::iterator</title>
<!-- Node17 -->
<g id="node1" class="node"><title>Node17</title>
<polygon fill="#bfbfbf" stroke="black" points="0,-95.5 0,-114.5 97,-114.5 97,-95.5 0,-95.5"/>
<text text-anchor="middle" x="48.5" y="-102.5" font-family="Helvetica,sans-Serif" font-size="10.00">LinkedList::iterator</text>
</g>
<!-- Node17&#45;&gt;Node17 -->
<g id="edge3" class="edge"><title>Node17&#45;&gt;Node17</title>
<path fill="none" stroke="midnightblue" d="M22.8305,-124.029C24.2307,-129.128 32.7872,-133 48.5,-133 73.0273,-133 80.1173,-123.565 69.7698,-114.757"/>
<polygon fill="midnightblue" stroke="midnightblue" points="26.1052,-125.292 27.2302,-114.757 19.7811,-122.291 26.1052,-125.292"/>
</g>
<!-- Node18 -->
<g id="node2" class="node"><title>Node18</title>
<g id="a_node2"><a xlink:href="main_8cpp.html#ad449bc12ea39030953553ed521ae297a" target="_top" xlink:title="testaUnderflow">
<polygon fill="none" stroke="black" points="145,-190.5 145,-209.5 228,-209.5 228,-190.5 145,-190.5"/>
<text text-anchor="middle" x="186.5" y="-197.5" font-family="Helvetica,sans-Serif" font-size="10.00">testaUnderflow</text>
</a>
</g>
</g>
<!-- Node17&#45;&gt;Node18 -->
<g id="edge1" class="edge"><title>Node17&#45;&gt;Node18</title>
<path fill="none" stroke="midnightblue" d="M64.6364,-122.262C80.2922,-139.212 106.171,-164.815 133,-181 139.142,-184.705 146.12,-187.856 152.937,-190.463"/>
<polygon fill="midnightblue" stroke="midnightblue" points="67.1156,-119.785 57.8127,-114.715 61.9234,-124.48 67.1156,-119.785"/>
</g>
<!-- Node19 -->
<g id="node3" class="node"><title>Node19</title>
<g id="a_node3"><a xlink:href="main_8cpp.html#a0ecb3f6b9893ec879ef237538c33314e" target="_top" xlink:title="testaUsoSatanico">
<polygon fill="none" stroke="black" points="139,-152.5 139,-171.5 234,-171.5 234,-152.5 139,-152.5"/>
<text text-anchor="middle" x="186.5" y="-159.5" font-family="Helvetica,sans-Serif" font-size="10.00">testaUsoSatanico</text>
</a>
</g>
</g>
<!-- Node17&#45;&gt;Node19 -->
<g id="edge2" class="edge"><title>Node17&#45;&gt;Node19</title>
<path fill="none" stroke="midnightblue" d="M78.5356,-118.903C94.4788,-126.363 114.68,-135.53 133,-143 140.988,-146.257 149.768,-149.546 157.823,-152.451"/>
<polygon fill="midnightblue" stroke="midnightblue" points="79.7517,-115.607 69.2138,-114.51 76.7676,-121.939 79.7517,-115.607"/>
</g>
<!-- Node20 -->
<g id="node4" class="node"><title>Node20</title>
<g id="a_node4"><a xlink:href="classOrderedList.html#a630adf103a541785d2ed2954bad3da84" target="_top" xlink:title="Insert an element at its position on the list. ">
<polygon fill="none" stroke="black" points="138,-114.5 138,-133.5 235,-133.5 235,-114.5 138,-114.5"/>
<text text-anchor="middle" x="186.5" y="-121.5" font-family="Helvetica,sans-Serif" font-size="10.00">OrderedList::insert</text>
</a>
</g>
</g>
<!-- Node17&#45;&gt;Node20 -->
<g id="edge4" class="edge"><title>Node17&#45;&gt;Node20</title>
<path fill="none" stroke="midnightblue" d="M107.124,-113.05C117.323,-114.475 127.841,-115.945 137.731,-117.326"/>
<polygon fill="midnightblue" stroke="midnightblue" points="107.454,-109.563 97.0662,-111.645 106.486,-116.495 107.454,-109.563"/>
</g>
<!-- Node21 -->
<g id="node5" class="node"><title>Node21</title>
<g id="a_node5"><a xlink:href="classOrderedList.html#ac85cb35a59ea846ff79eebd3743e0b67" target="_top" xlink:title="Finds an element in the ordered list and returns its index. ">
<polygon fill="none" stroke="black" points="133,-76.5 133,-95.5 240,-95.5 240,-76.5 133,-76.5"/>
<text text-anchor="middle" x="186.5" y="-83.5" font-family="Helvetica,sans-Serif" font-size="10.00">OrderedList::indexOf</text>
</a>
</g>
</g>
<!-- Node17&#45;&gt;Node21 -->
<g id="edge5" class="edge"><title>Node17&#45;&gt;Node21</title>
<path fill="none" stroke="midnightblue" d="M107.209,-96.9377C115.642,-95.7596 124.291,-94.5513 132.621,-93.3875"/>
<polygon fill="midnightblue" stroke="midnightblue" points="106.486,-93.5047 97.0662,-98.3547 107.454,-100.437 106.486,-93.5047"/>
</g>
<!-- Node23 -->
<g id="node7" class="node"><title>Node23</title>
<g id="a_node7"><a xlink:href="classOrderedList.html#a5351bc375507ce98efac7102e26ac66d" target="_top" xlink:title="Remove an element from the list. ">
<polygon fill="none" stroke="black" points="134,-38.5 134,-57.5 239,-57.5 239,-38.5 134,-38.5"/>
<text text-anchor="middle" x="186.5" y="-45.5" font-family="Helvetica,sans-Serif" font-size="10.00">OrderedList::remove</text>
</a>
</g>
</g>
<!-- Node17&#45;&gt;Node23 -->
<g id="edge7" class="edge"><title>Node17&#45;&gt;Node23</title>
<path fill="none" stroke="midnightblue" d="M78.5356,-91.0966C94.4788,-83.6375 114.68,-74.4698 133,-67 140.988,-63.7428 149.768,-60.454 157.823,-57.5492"/>
<polygon fill="midnightblue" stroke="midnightblue" points="76.7676,-88.0605 69.2138,-95.4897 79.7517,-94.3926 76.7676,-88.0605"/>
</g>
<!-- Node24 -->
<g id="node8" class="node"><title>Node24</title>
<g id="a_node8"><a xlink:href="classOrderedList.html#aa45cc48c177b9b1325ef724679bc212a" target="_top" xlink:title="Get the element at the specified position in the list, without removing it. ">
<polygon fill="none" stroke="black" points="143.5,-0.5 143.5,-19.5 229.5,-19.5 229.5,-0.5 143.5,-0.5"/>
<text text-anchor="middle" x="186.5" y="-7.5" font-family="Helvetica,sans-Serif" font-size="10.00">OrderedList::get</text>
</a>
</g>
</g>
<!-- Node17&#45;&gt;Node24 -->
<g id="edge8" class="edge"><title>Node17&#45;&gt;Node24</title>
<path fill="none" stroke="midnightblue" d="M64.6364,-87.7382C80.2922,-70.7882 106.171,-45.1852 133,-29 139.142,-25.2948 146.12,-22.1441 152.937,-19.5369"/>
<polygon fill="midnightblue" stroke="midnightblue" points="61.9234,-85.52 57.8127,-95.2849 67.1156,-90.2149 61.9234,-85.52"/>
</g>
<!-- Node22 -->
<g id="node6" class="node"><title>Node22</title>
<g id="a_node6"><a xlink:href="classOrderedList.html#a7ae22e189c25baa8748b5bf3de4520f8" target="_top" xlink:title="Answers whether the ordered list contains an enemy. ">
<polygon fill="none" stroke="black" points="276,-76.5 276,-95.5 386,-95.5 386,-76.5 276,-76.5"/>
<text text-anchor="middle" x="331" y="-83.5" font-family="Helvetica,sans-Serif" font-size="10.00">OrderedList::contains</text>
</a>
</g>
</g>
<!-- Node21&#45;&gt;Node22 -->
<g id="edge6" class="edge"><title>Node21&#45;&gt;Node22</title>
<path fill="none" stroke="midnightblue" d="M250.339,-86C258.778,-86 267.376,-86 275.652,-86"/>
<polygon fill="midnightblue" stroke="midnightblue" points="250.157,-82.5001 240.157,-86 250.157,-89.5001 250.157,-82.5001"/>
</g>
</g>
</svg>
