<?xml version="1.0" encoding="UTF-8" standalone="no"?>
<!DOCTYPE svg PUBLIC "-//W3C//DTD SVG 1.1//EN"
 "http://www.w3.org/Graphics/SVG/1.1/DTD/svg11.dtd">
<!-- Generated by graphviz version 2.38.0 (20140413.2041)
 -->
<!-- Title: OrderedList::contains Pages: 1 -->
<svg width="394pt" height="46pt"
 viewBox="0.00 0.00 394.00 46.00" xmlns="http://www.w3.org/2000/svg" xmlns:xlink="http://www.w3.org/1999/xlink">
<g id="graph0" class="graph" transform="scale(1 1) rotate(0) translate(4 42)">
<title>OrderedList::contains</title>
<!-- Node4 -->
<g id="node1" class="node"><title>Node4</title>
<polygon fill="#bfbfbf" stroke="black" points="0,-0.5 0,-19.5 110,-19.5 110,-0.5 0,-0.5"/>
<text text-anchor="middle" x="55" y="-7.5" font-family="Helvetica,sans-Serif" font-size="10.00">OrderedList::contains</text>
</g>
<!-- Node5 -->
<g id="node2" class="node"><title>Node5</title>
<g id="a_node2"><a xlink:href="classOrderedList.html#ac85cb35a59ea846ff79eebd3743e0b67" target="_top" xlink:title="Finds an element in the ordered list and returns its index. ">
<polygon fill="none" stroke="black" points="146,-0.5 146,-19.5 253,-19.5 253,-0.5 146,-0.5"/>
<text text-anchor="middle" x="199.5" y="-7.5" font-family="Helvetica,sans-Serif" font-size="10.00">OrderedList::indexOf</text>
</a>
</g>
</g>
<!-- Node4&#45;&gt;Node5 -->
<g id="edge1" class="edge"><title>Node4&#45;&gt;Node5</title>
<path fill="none" stroke="midnightblue" d="M110.28,-10C118.555,-10 127.156,-10 135.597,-10"/>
<polygon fill="midnightblue" stroke="midnightblue" points="135.783,-13.5001 145.783,-10 135.783,-6.5001 135.783,-13.5001"/>
</g>
<!-- Node6 -->
<g id="node3" class="node"><title>Node6</title>
<g id="a_node3"><a xlink:href="classLinkedList.html#a2704854adf2cfec4aefce769d344aa1a" target="_top" xlink:title="Creates an Iterator, an object that allows the sequential access of values in a Linked List without t...">
<polygon fill="none" stroke="black" points="289,-0.5 289,-19.5 386,-19.5 386,-0.5 289,-0.5"/>
<text text-anchor="middle" x="337.5" y="-7.5" font-family="Helvetica,sans-Serif" font-size="10.00">LinkedList::iterator</text>
</a>
</g>
</g>
<!-- Node5&#45;&gt;Node6 -->
<g id="edge2" class="edge"><title>Node5&#45;&gt;Node6</title>
<path fill="none" stroke="midnightblue" d="M253.081,-10C261.477,-10 270.205,-10 278.713,-10"/>
<polygon fill="midnightblue" stroke="midnightblue" points="278.947,-13.5001 288.947,-10 278.947,-6.5001 278.947,-13.5001"/>
</g>
<!-- Node6&#45;&gt;Node6 -->
<g id="edge3" class="edge"><title>Node6&#45;&gt;Node6</title>
<path fill="none" stroke="midnightblue" d="M316.23,-19.7571C305.883,-28.5653 312.973,-38 337.5,-38 353.213,-38 361.769,-34.128 363.17,-29.0292"/>
<polygon fill="midnightblue" stroke="midnightblue" points="366.219,-27.2911 358.77,-19.7571 359.895,-30.292 366.219,-27.2911"/>
</g>
</g>
</svg>
