<?xml version="1.0" encoding="UTF-8" standalone="no"?>
<!DOCTYPE svg PUBLIC "-//W3C//DTD SVG 1.1//EN"
 "http://www.w3.org/Graphics/SVG/1.1/DTD/svg11.dtd">
<!-- Generated by graphviz version 2.38.0 (20140413.2041)
 -->
<!-- Title: ProtectedLinkedList&lt; T &gt; Pages: 1 -->
<svg width="221pt" height="369pt"
 viewBox="0.00 0.00 221.00 369.00" xmlns="http://www.w3.org/2000/svg" xmlns:xlink="http://www.w3.org/1999/xlink">
<g id="graph0" class="graph" transform="scale(1 1) rotate(0) translate(4 365)">
<title>ProtectedLinkedList&lt; T &gt;</title>
<!-- Node6 -->
<g id="node1" class="node"><title>Node6</title>
<polygon fill="#bfbfbf" stroke="black" points="67,-0.5 67,-211.5 194,-211.5 194,-0.5 67,-0.5"/>
<text text-anchor="middle" x="130.5" y="-199.5" font-family="Helvetica,sans-Serif" font-size="10.00">ProtectedLinkedList&lt; T &gt;</text>
<polyline fill="none" stroke="black" points="67,-192.5 194,-192.5 "/>
<text text-anchor="middle" x="130.5" y="-180.5" font-family="Helvetica,sans-Serif" font-size="10.00"> </text>
<polyline fill="none" stroke="black" points="67,-173.5 194,-173.5 "/>
<text text-anchor="start" x="75" y="-161.5" font-family="Helvetica,sans-Serif" font-size="10.00">+ getName()</text>
<text text-anchor="start" x="75" y="-150.5" font-family="Helvetica,sans-Serif" font-size="10.00">+ ProtectedLinkedList()</text>
<text text-anchor="start" x="75" y="-139.5" font-family="Helvetica,sans-Serif" font-size="10.00">+ ~ProtectedLinkedList()</text>
<text text-anchor="start" x="75" y="-128.5" font-family="Helvetica,sans-Serif" font-size="10.00">+ getSize()</text>
<text text-anchor="start" x="75" y="-117.5" font-family="Helvetica,sans-Serif" font-size="10.00">+ isEmpty()</text>
<text text-anchor="start" x="75" y="-106.5" font-family="Helvetica,sans-Serif" font-size="10.00">+ isFull()</text>
<text text-anchor="start" x="75" y="-95.5" font-family="Helvetica,sans-Serif" font-size="10.00"># getNode()</text>
<text text-anchor="start" x="75" y="-84.5" font-family="Helvetica,sans-Serif" font-size="10.00"># ProtectedLinkedList()</text>
<text text-anchor="start" x="75" y="-73.5" font-family="Helvetica,sans-Serif" font-size="10.00"># getFirst()</text>
<text text-anchor="start" x="75" y="-62.5" font-family="Helvetica,sans-Serif" font-size="10.00"># getLast()</text>
<text text-anchor="start" x="75" y="-51.5" font-family="Helvetica,sans-Serif" font-size="10.00"># insert()</text>
<text text-anchor="start" x="75" y="-40.5" font-family="Helvetica,sans-Serif" font-size="10.00"># insert()</text>
<text text-anchor="start" x="75" y="-29.5" font-family="Helvetica,sans-Serif" font-size="10.00"># remove()</text>
<text text-anchor="start" x="75" y="-18.5" font-family="Helvetica,sans-Serif" font-size="10.00"># get()</text>
<text text-anchor="start" x="75" y="-7.5" font-family="Helvetica,sans-Serif" font-size="10.00"># iterator()</text>
</g>
<!-- Node7 -->
<g id="node2" class="node"><title>Node7</title>
<g id="a_node2"><a xlink:href="classDataStructure.html" target="_top" xlink:title="Base class for all data structures. ">
<polygon fill="none" stroke="black" points="0,-270.5 0,-360.5 77,-360.5 77,-270.5 0,-270.5"/>
<text text-anchor="middle" x="38.5" y="-348.5" font-family="Helvetica,sans-Serif" font-size="10.00">DataStructure</text>
<polyline fill="none" stroke="black" points="0,-341.5 77,-341.5 "/>
<text text-anchor="middle" x="38.5" y="-329.5" font-family="Helvetica,sans-Serif" font-size="10.00"> </text>
<polyline fill="none" stroke="black" points="0,-322.5 77,-322.5 "/>
<text text-anchor="start" x="8" y="-310.5" font-family="Helvetica,sans-Serif" font-size="10.00">+ getSize()</text>
<text text-anchor="start" x="8" y="-299.5" font-family="Helvetica,sans-Serif" font-size="10.00">+ getName()</text>
<text text-anchor="start" x="8" y="-288.5" font-family="Helvetica,sans-Serif" font-size="10.00">+ isEmpty()</text>
<text text-anchor="start" x="8" y="-277.5" font-family="Helvetica,sans-Serif" font-size="10.00">+ isFull()</text>
</a>
</g>
</g>
<!-- Node7&#45;&gt;Node6 -->
<g id="edge1" class="edge"><title>Node7&#45;&gt;Node6</title>
<path fill="none" stroke="midnightblue" d="M62.1072,-261.255C68.8759,-245.989 76.5002,-228.793 84.1378,-211.567"/>
<polygon fill="none" stroke="midnightblue" points="58.8645,-259.934 58.0108,-270.495 65.2637,-262.771 58.8645,-259.934"/>
</g>
<!-- Node8 -->
<g id="node3" class="node"><title>Node8</title>
<polygon fill="none" stroke="#bfbfbf" points="95,-287 95,-344 166,-344 166,-287 95,-287"/>
<text text-anchor="middle" x="130.5" y="-332" font-family="Helvetica,sans-Serif" font-size="10.00">Node&lt; T &gt; *</text>
<polyline fill="none" stroke="#bfbfbf" points="95,-325 166,-325 "/>
<text text-anchor="middle" x="130.5" y="-313" font-family="Helvetica,sans-Serif" font-size="10.00"> </text>
<polyline fill="none" stroke="#bfbfbf" points="95,-306 166,-306 "/>
<text text-anchor="middle" x="130.5" y="-294" font-family="Helvetica,sans-Serif" font-size="10.00"> </text>
</g>
<!-- Node8&#45;&gt;Node6 -->
<g id="edge2" class="edge"><title>Node8&#45;&gt;Node6</title>
<path fill="none" stroke="#404040" d="M130.5,-286.946C130.5,-270.159 130.5,-247.44 130.5,-223.803"/>
<polygon fill="none" stroke="#404040" points="130.5,-223.769 126.5,-217.769 130.5,-211.769 134.5,-217.769 130.5,-223.769"/>
<text text-anchor="middle" x="141.5" y="-244" font-family="Helvetica,sans-Serif" font-size="10.00"> &#45;last</text>
<text text-anchor="middle" x="141.5" y="-233" font-family="Helvetica,sans-Serif" font-size="10.00">&#45;first</text>
</g>
<!-- Node9 -->
<g id="node4" class="node"><title>Node9</title>
<polygon fill="none" stroke="#bfbfbf" points="184,-287 184,-344 213,-344 213,-287 184,-287"/>
<text text-anchor="middle" x="198.5" y="-332" font-family="Helvetica,sans-Serif" font-size="10.00">int</text>
<polyline fill="none" stroke="#bfbfbf" points="184,-325 213,-325 "/>
<text text-anchor="middle" x="198.5" y="-313" font-family="Helvetica,sans-Serif" font-size="10.00"> </text>
<polyline fill="none" stroke="#bfbfbf" points="184,-306 213,-306 "/>
<text text-anchor="middle" x="198.5" y="-294" font-family="Helvetica,sans-Serif" font-size="10.00"> </text>
</g>
<!-- Node9&#45;&gt;Node6 -->
<g id="edge3" class="edge"><title>Node9&#45;&gt;Node6</title>
<path fill="none" stroke="#404040" d="M189.47,-286.946C183.944,-270.082 176.456,-247.233 168.672,-223.48"/>
<polygon fill="none" stroke="#404040" points="168.571,-223.172 162.901,-218.716 164.834,-211.769 170.503,-216.225 168.571,-223.172"/>
<text text-anchor="middle" x="189" y="-238.5" font-family="Helvetica,sans-Serif" font-size="10.00"> &#45;size</text>
</g>
</g>
</svg>
