<?xml version="1.0" encoding="UTF-8" standalone="no"?>
<!DOCTYPE svg PUBLIC "-//W3C//DTD SVG 1.1//EN"
 "http://www.w3.org/Graphics/SVG/1.1/DTD/svg11.dtd">
<!-- Generated by graphviz version 2.38.0 (20140413.2041)
 -->
<!-- Title: DataStructure Pages: 1 -->
<svg width="567pt" height="788pt"
 viewBox="0.00 0.00 566.50 788.00" xmlns="http://www.w3.org/2000/svg" xmlns:xlink="http://www.w3.org/1999/xlink">
<g id="graph0" class="graph" transform="scale(1 1) rotate(0) translate(4 784)">
<title>DataStructure</title>
<!-- Node0 -->
<g id="node1" class="node"><title>Node0</title>
<polygon fill="#bfbfbf" stroke="black" points="244,-689.5 244,-779.5 321,-779.5 321,-689.5 244,-689.5"/>
<text text-anchor="middle" x="282.5" y="-767.5" font-family="Helvetica,sans-Serif" font-size="10.00">DataStructure</text>
<polyline fill="none" stroke="black" points="244,-760.5 321,-760.5 "/>
<text text-anchor="middle" x="282.5" y="-748.5" font-family="Helvetica,sans-Serif" font-size="10.00"> </text>
<polyline fill="none" stroke="black" points="244,-741.5 321,-741.5 "/>
<text text-anchor="start" x="252" y="-729.5" font-family="Helvetica,sans-Serif" font-size="10.00">+ getSize()</text>
<text text-anchor="start" x="252" y="-718.5" font-family="Helvetica,sans-Serif" font-size="10.00">+ getName()</text>
<text text-anchor="start" x="252" y="-707.5" font-family="Helvetica,sans-Serif" font-size="10.00">+ isEmpty()</text>
<text text-anchor="start" x="252" y="-696.5" font-family="Helvetica,sans-Serif" font-size="10.00">+ isFull()</text>
</g>
<!-- Node1 -->
<g id="node2" class="node"><title>Node1</title>
<g id="a_node2"><a xlink:href="classProtectedLinkedList.html" target="_top" xlink:title="{ProtectedLinkedList\&lt; T \&gt;\n|&#45; first\l&#45; last\l&#45; size\l|+ getName()\l+ ProtectedLinkedList()\l+ ~ProtectedLinkedList()\l+ getSize()\l+ isEmpty()\l+ isFull()\l# getNode()\l# ProtectedLinkedList()\l# getFirst()\l# getLast()\l# insert()\l# insert()\l# remove()\l# get()\l# iterator()\l}">
<polygon fill="none" stroke="black" points="219,-419.5 219,-652.5 346,-652.5 346,-419.5 219,-419.5"/>
<text text-anchor="middle" x="282.5" y="-640.5" font-family="Helvetica,sans-Serif" font-size="10.00">ProtectedLinkedList&lt; T &gt;</text>
<polyline fill="none" stroke="black" points="219,-633.5 346,-633.5 "/>
<text text-anchor="start" x="227" y="-621.5" font-family="Helvetica,sans-Serif" font-size="10.00">&#45; first</text>
<text text-anchor="start" x="227" y="-610.5" font-family="Helvetica,sans-Serif" font-size="10.00">&#45; last</text>
<text text-anchor="start" x="227" y="-599.5" font-family="Helvetica,sans-Serif" font-size="10.00">&#45; size</text>
<polyline fill="none" stroke="black" points="219,-592.5 346,-592.5 "/>
<text text-anchor="start" x="227" y="-580.5" font-family="Helvetica,sans-Serif" font-size="10.00">+ getName()</text>
<text text-anchor="start" x="227" y="-569.5" font-family="Helvetica,sans-Serif" font-size="10.00">+ ProtectedLinkedList()</text>
<text text-anchor="start" x="227" y="-558.5" font-family="Helvetica,sans-Serif" font-size="10.00">+ ~ProtectedLinkedList()</text>
<text text-anchor="start" x="227" y="-547.5" font-family="Helvetica,sans-Serif" font-size="10.00">+ getSize()</text>
<text text-anchor="start" x="227" y="-536.5" font-family="Helvetica,sans-Serif" font-size="10.00">+ isEmpty()</text>
<text text-anchor="start" x="227" y="-525.5" font-family="Helvetica,sans-Serif" font-size="10.00">+ isFull()</text>
<text text-anchor="start" x="227" y="-514.5" font-family="Helvetica,sans-Serif" font-size="10.00"># getNode()</text>
<text text-anchor="start" x="227" y="-503.5" font-family="Helvetica,sans-Serif" font-size="10.00"># ProtectedLinkedList()</text>
<text text-anchor="start" x="227" y="-492.5" font-family="Helvetica,sans-Serif" font-size="10.00"># getFirst()</text>
<text text-anchor="start" x="227" y="-481.5" font-family="Helvetica,sans-Serif" font-size="10.00"># getLast()</text>
<text text-anchor="start" x="227" y="-470.5" font-family="Helvetica,sans-Serif" font-size="10.00"># insert()</text>
<text text-anchor="start" x="227" y="-459.5" font-family="Helvetica,sans-Serif" font-size="10.00"># insert()</text>
<text text-anchor="start" x="227" y="-448.5" font-family="Helvetica,sans-Serif" font-size="10.00"># remove()</text>
<text text-anchor="start" x="227" y="-437.5" font-family="Helvetica,sans-Serif" font-size="10.00"># get()</text>
<text text-anchor="start" x="227" y="-426.5" font-family="Helvetica,sans-Serif" font-size="10.00"># iterator()</text>
</a>
</g>
</g>
<!-- Node0&#45;&gt;Node1 -->
<g id="edge1" class="edge"><title>Node0&#45;&gt;Node1</title>
<path fill="none" stroke="midnightblue" d="M282.5,-679.368C282.5,-670.898 282.5,-661.877 282.5,-652.644"/>
<polygon fill="none" stroke="midnightblue" points="279,-679.402 282.5,-689.402 286,-679.402 279,-679.402"/>
</g>
<!-- Node6 -->
<g id="node7" class="node"><title>Node6</title>
<g id="a_node7"><a xlink:href="classQueue.html" target="_top" xlink:title="Abstract queue interface. ">
<polygon fill="none" stroke="black" points="130,-491 130,-581 201,-581 201,-491 130,-491"/>
<text text-anchor="middle" x="165.5" y="-569" font-family="Helvetica,sans-Serif" font-size="10.00">Queue&lt; T &gt;</text>
<polyline fill="none" stroke="black" points="130,-562 201,-562 "/>
<text text-anchor="middle" x="165.5" y="-550" font-family="Helvetica,sans-Serif" font-size="10.00"> </text>
<polyline fill="none" stroke="black" points="130,-543 201,-543 "/>
<text text-anchor="start" x="138" y="-531" font-family="Helvetica,sans-Serif" font-size="10.00">+ getName()</text>
<text text-anchor="start" x="138" y="-520" font-family="Helvetica,sans-Serif" font-size="10.00">+ enqueue()</text>
<text text-anchor="start" x="138" y="-509" font-family="Helvetica,sans-Serif" font-size="10.00">+ dequeue()</text>
<text text-anchor="start" x="138" y="-498" font-family="Helvetica,sans-Serif" font-size="10.00">+ peek()</text>
</a>
</g>
</g>
<!-- Node0&#45;&gt;Node6 -->
<g id="edge6" class="edge"><title>Node0&#45;&gt;Node6</title>
<path fill="none" stroke="midnightblue" d="M236.849,-689.066C226.966,-677.924 217.186,-665.549 209.5,-653 195.887,-630.775 185.313,-603.645 177.946,-581.212"/>
<polygon fill="none" stroke="midnightblue" points="234.362,-691.534 243.684,-696.57 239.537,-686.82 234.362,-691.534"/>
</g>
<!-- Node8 -->
<g id="node9" class="node"><title>Node8</title>
<g id="a_node9"><a xlink:href="classStack.html" target="_top" xlink:title="Abstract stack interface. ">
<polygon fill="none" stroke="black" points="364,-491 364,-581 435,-581 435,-491 364,-491"/>
<text text-anchor="middle" x="399.5" y="-569" font-family="Helvetica,sans-Serif" font-size="10.00">Stack&lt; T &gt;</text>
<polyline fill="none" stroke="black" points="364,-562 435,-562 "/>
<text text-anchor="middle" x="399.5" y="-550" font-family="Helvetica,sans-Serif" font-size="10.00"> </text>
<polyline fill="none" stroke="black" points="364,-543 435,-543 "/>
<text text-anchor="start" x="372" y="-531" font-family="Helvetica,sans-Serif" font-size="10.00">+ getName()</text>
<text text-anchor="start" x="372" y="-520" font-family="Helvetica,sans-Serif" font-size="10.00">+ push()</text>
<text text-anchor="start" x="372" y="-509" font-family="Helvetica,sans-Serif" font-size="10.00">+ pop()</text>
<text text-anchor="start" x="372" y="-498" font-family="Helvetica,sans-Serif" font-size="10.00">+ peek()</text>
</a>
</g>
</g>
<!-- Node0&#45;&gt;Node8 -->
<g id="edge9" class="edge"><title>Node0&#45;&gt;Node8</title>
<path fill="none" stroke="midnightblue" d="M328.151,-689.066C338.034,-677.924 347.814,-665.549 355.5,-653 369.113,-630.775 379.687,-603.645 387.054,-581.212"/>
<polygon fill="none" stroke="midnightblue" points="325.463,-686.82 321.316,-696.57 330.638,-691.534 325.463,-686.82"/>
</g>
<!-- Node2 -->
<g id="node3" class="node"><title>Node2</title>
<g id="a_node3"><a xlink:href="classDynamicQueue.html" target="_top" xlink:title="Queue implementation with dynamic memory allocation. ">
<polygon fill="none" stroke="black" points="113.5,-210 113.5,-355 221.5,-355 221.5,-210 113.5,-210"/>
<text text-anchor="middle" x="167.5" y="-343" font-family="Helvetica,sans-Serif" font-size="10.00">DynamicQueue&lt; T &gt;</text>
<polyline fill="none" stroke="black" points="113.5,-336 221.5,-336 "/>
<text text-anchor="middle" x="167.5" y="-324" font-family="Helvetica,sans-Serif" font-size="10.00"> </text>
<polyline fill="none" stroke="black" points="113.5,-317 221.5,-317 "/>
<text text-anchor="start" x="121.5" y="-305" font-family="Helvetica,sans-Serif" font-size="10.00">+ getName()</text>
<text text-anchor="start" x="121.5" y="-294" font-family="Helvetica,sans-Serif" font-size="10.00">+ DynamicQueue()</text>
<text text-anchor="start" x="121.5" y="-283" font-family="Helvetica,sans-Serif" font-size="10.00">+ DynamicQueue()</text>
<text text-anchor="start" x="121.5" y="-272" font-family="Helvetica,sans-Serif" font-size="10.00">+ enqueue()</text>
<text text-anchor="start" x="121.5" y="-261" font-family="Helvetica,sans-Serif" font-size="10.00">+ dequeue()</text>
<text text-anchor="start" x="121.5" y="-250" font-family="Helvetica,sans-Serif" font-size="10.00">+ peek()</text>
<text text-anchor="start" x="121.5" y="-239" font-family="Helvetica,sans-Serif" font-size="10.00">+ getSize()</text>
<text text-anchor="start" x="121.5" y="-228" font-family="Helvetica,sans-Serif" font-size="10.00">+ isEmpty()</text>
<text text-anchor="start" x="121.5" y="-217" font-family="Helvetica,sans-Serif" font-size="10.00">+ isFull()</text>
</a>
</g>
</g>
<!-- Node1&#45;&gt;Node2 -->
<g id="edge2" class="edge"><title>Node1&#45;&gt;Node2</title>
<path fill="none" stroke="midnightblue" d="M225.334,-409.98C216.749,-391.204 208.153,-372.407 200.314,-355.263"/>
<polygon fill="none" stroke="midnightblue" points="222.203,-411.549 229.544,-419.188 228.569,-408.638 222.203,-411.549"/>
</g>
<!-- Node3 -->
<g id="node4" class="node"><title>Node3</title>
<g id="a_node4"><a xlink:href="classDynamicStack.html" target="_top" xlink:title="Stack implementation with dynamic memory allocation. ">
<polygon fill="none" stroke="black" points="343,-210 343,-355 448,-355 448,-210 343,-210"/>
<text text-anchor="middle" x="395.5" y="-343" font-family="Helvetica,sans-Serif" font-size="10.00">DynamicStack&lt; T &gt;</text>
<polyline fill="none" stroke="black" points="343,-336 448,-336 "/>
<text text-anchor="middle" x="395.5" y="-324" font-family="Helvetica,sans-Serif" font-size="10.00"> </text>
<polyline fill="none" stroke="black" points="343,-317 448,-317 "/>
<text text-anchor="start" x="351" y="-305" font-family="Helvetica,sans-Serif" font-size="10.00">+ DynamicStack()</text>
<text text-anchor="start" x="351" y="-294" font-family="Helvetica,sans-Serif" font-size="10.00">+ DynamicStack()</text>
<text text-anchor="start" x="351" y="-283" font-family="Helvetica,sans-Serif" font-size="10.00">+ getName()</text>
<text text-anchor="start" x="351" y="-272" font-family="Helvetica,sans-Serif" font-size="10.00">+ push()</text>
<text text-anchor="start" x="351" y="-261" font-family="Helvetica,sans-Serif" font-size="10.00">+ pop()</text>
<text text-anchor="start" x="351" y="-250" font-family="Helvetica,sans-Serif" font-size="10.00">+ peek()</text>
<text text-anchor="start" x="351" y="-239" font-family="Helvetica,sans-Serif" font-size="10.00">+ getSize()</text>
<text text-anchor="start" x="351" y="-228" font-family="Helvetica,sans-Serif" font-size="10.00">+ isEmpty()</text>
<text text-anchor="start" x="351" y="-217" font-family="Helvetica,sans-Serif" font-size="10.00">+ isFull()</text>
</a>
</g>
</g>
<!-- Node1&#45;&gt;Node3 -->
<g id="edge3" class="edge"><title>Node1&#45;&gt;Node3</title>
<path fill="none" stroke="midnightblue" d="M338.672,-409.98C347.108,-391.204 355.554,-372.407 363.257,-355.263"/>
<polygon fill="none" stroke="midnightblue" points="335.441,-408.632 334.535,-419.188 341.826,-411.501 335.441,-408.632"/>
</g>
<!-- Node4 -->
<g id="node5" class="node"><title>Node4</title>
<g id="a_node5"><a xlink:href="classLinkedList.html" target="_top" xlink:title="Doubly&#45;linked list implementation with dynamic memory allocation. ">
<polygon fill="none" stroke="black" points="240,-215.5 240,-349.5 325,-349.5 325,-215.5 240,-215.5"/>
<text text-anchor="middle" x="282.5" y="-337.5" font-family="Helvetica,sans-Serif" font-size="10.00">LinkedList&lt; T &gt;</text>
<polyline fill="none" stroke="black" points="240,-330.5 325,-330.5 "/>
<text text-anchor="middle" x="282.5" y="-318.5" font-family="Helvetica,sans-Serif" font-size="10.00"> </text>
<polyline fill="none" stroke="black" points="240,-311.5 325,-311.5 "/>
<text text-anchor="start" x="248" y="-299.5" font-family="Helvetica,sans-Serif" font-size="10.00">+ LinkedList()</text>
<text text-anchor="start" x="248" y="-288.5" font-family="Helvetica,sans-Serif" font-size="10.00">+ LinkedList()</text>
<text text-anchor="start" x="248" y="-277.5" font-family="Helvetica,sans-Serif" font-size="10.00">+ getName()</text>
<text text-anchor="start" x="248" y="-266.5" font-family="Helvetica,sans-Serif" font-size="10.00">+ insert()</text>
<text text-anchor="start" x="248" y="-255.5" font-family="Helvetica,sans-Serif" font-size="10.00">+ insert()</text>
<text text-anchor="start" x="248" y="-244.5" font-family="Helvetica,sans-Serif" font-size="10.00">+ remove()</text>
<text text-anchor="start" x="248" y="-233.5" font-family="Helvetica,sans-Serif" font-size="10.00">+ get()</text>
<text text-anchor="start" x="248" y="-222.5" font-family="Helvetica,sans-Serif" font-size="10.00">+ iterator()</text>
</a>
</g>
</g>
<!-- Node1&#45;&gt;Node4 -->
<g id="edge4" class="edge"><title>Node1&#45;&gt;Node4</title>
<path fill="none" stroke="midnightblue" d="M282.5,-409.107C282.5,-388.554 282.5,-368.006 282.5,-349.659"/>
<polygon fill="none" stroke="midnightblue" points="279,-409.188 282.5,-419.188 286,-409.188 279,-409.188"/>
</g>
<!-- Node5 -->
<g id="node6" class="node"><title>Node5</title>
<g id="a_node6"><a xlink:href="classOrderedList.html" target="_top" xlink:title="Doubly&#45;linked ordered list implementation with dynamic memory allocation. ">
<polygon fill="none" stroke="black" points="237,-0.5 237,-145.5 328,-145.5 328,-0.5 237,-0.5"/>
<text text-anchor="middle" x="282.5" y="-133.5" font-family="Helvetica,sans-Serif" font-size="10.00">OrderedList&lt; T &gt;</text>
<polyline fill="none" stroke="black" points="237,-126.5 328,-126.5 "/>
<text text-anchor="start" x="245" y="-114.5" font-family="Helvetica,sans-Serif" font-size="10.00">&#45; compare</text>
<polyline fill="none" stroke="black" points="237,-107.5 328,-107.5 "/>
<text text-anchor="start" x="245" y="-95.5" font-family="Helvetica,sans-Serif" font-size="10.00">+ getName()</text>
<text text-anchor="start" x="245" y="-84.5" font-family="Helvetica,sans-Serif" font-size="10.00">+ OrderedList()</text>
<text text-anchor="start" x="245" y="-73.5" font-family="Helvetica,sans-Serif" font-size="10.00">+ OrderedList()</text>
<text text-anchor="start" x="245" y="-62.5" font-family="Helvetica,sans-Serif" font-size="10.00">+ insert()</text>
<text text-anchor="start" x="245" y="-51.5" font-family="Helvetica,sans-Serif" font-size="10.00">+ insert()</text>
<text text-anchor="start" x="245" y="-40.5" font-family="Helvetica,sans-Serif" font-size="10.00">+ indexOf()</text>
<text text-anchor="start" x="245" y="-29.5" font-family="Helvetica,sans-Serif" font-size="10.00">+ contains()</text>
<text text-anchor="start" x="245" y="-18.5" font-family="Helvetica,sans-Serif" font-size="10.00">+ remove()</text>
<text text-anchor="start" x="245" y="-7.5" font-family="Helvetica,sans-Serif" font-size="10.00">+ get()</text>
</a>
</g>
</g>
<!-- Node4&#45;&gt;Node5 -->
<g id="edge5" class="edge"><title>Node4&#45;&gt;Node5</title>
<path fill="none" stroke="midnightblue" d="M282.5,-205.24C282.5,-185.776 282.5,-164.921 282.5,-145.695"/>
<polygon fill="none" stroke="midnightblue" points="279,-205.275 282.5,-215.275 286,-205.275 279,-205.275"/>
</g>
<!-- Node6&#45;&gt;Node2 -->
<g id="edge7" class="edge"><title>Node6&#45;&gt;Node2</title>
<path fill="none" stroke="midnightblue" d="M165.93,-480.883C166.223,-444.14 166.612,-395.155 166.93,-355.177"/>
<polygon fill="none" stroke="midnightblue" points="162.43,-480.877 165.851,-490.904 169.43,-480.932 162.43,-480.877"/>
</g>
<!-- Node7 -->
<g id="node8" class="node"><title>Node7</title>
<g id="a_node8"><a xlink:href="classStaticQueue.html" target="_top" xlink:title="Queue implementation using a native C++ array as data storage. ">
<polygon fill="none" stroke="black" points="0,-182.5 0,-382.5 95,-382.5 95,-182.5 0,-182.5"/>
<text text-anchor="middle" x="47.5" y="-370.5" font-family="Helvetica,sans-Serif" font-size="10.00">StaticQueue&lt; T &gt;</text>
<polyline fill="none" stroke="black" points="0,-363.5 95,-363.5 "/>
<text text-anchor="start" x="8" y="-351.5" font-family="Helvetica,sans-Serif" font-size="10.00">&#45; size</text>
<text text-anchor="start" x="8" y="-340.5" font-family="Helvetica,sans-Serif" font-size="10.00">&#45; head</text>
<text text-anchor="start" x="8" y="-329.5" font-family="Helvetica,sans-Serif" font-size="10.00">&#45; tail</text>
<text text-anchor="start" x="8" y="-318.5" font-family="Helvetica,sans-Serif" font-size="10.00">&#45; count</text>
<text text-anchor="start" x="8" y="-307.5" font-family="Helvetica,sans-Serif" font-size="10.00">&#45; data</text>
<polyline fill="none" stroke="black" points="0,-300.5 95,-300.5 "/>
<text text-anchor="start" x="8" y="-288.5" font-family="Helvetica,sans-Serif" font-size="10.00">+ getName()</text>
<text text-anchor="start" x="8" y="-277.5" font-family="Helvetica,sans-Serif" font-size="10.00">+ StaticQueue()</text>
<text text-anchor="start" x="8" y="-266.5" font-family="Helvetica,sans-Serif" font-size="10.00">+ StaticQueue()</text>
<text text-anchor="start" x="8" y="-255.5" font-family="Helvetica,sans-Serif" font-size="10.00">+ ~StaticQueue()</text>
<text text-anchor="start" x="8" y="-244.5" font-family="Helvetica,sans-Serif" font-size="10.00">+ enqueue()</text>
<text text-anchor="start" x="8" y="-233.5" font-family="Helvetica,sans-Serif" font-size="10.00">+ dequeue()</text>
<text text-anchor="start" x="8" y="-222.5" font-family="Helvetica,sans-Serif" font-size="10.00">+ peek()</text>
<text text-anchor="start" x="8" y="-211.5" font-family="Helvetica,sans-Serif" font-size="10.00">+ getSize()</text>
<text text-anchor="start" x="8" y="-200.5" font-family="Helvetica,sans-Serif" font-size="10.00">+ isEmpty()</text>
<text text-anchor="start" x="8" y="-189.5" font-family="Helvetica,sans-Serif" font-size="10.00">+ isFull()</text>
</a>
</g>
</g>
<!-- Node6&#45;&gt;Node7 -->
<g id="edge8" class="edge"><title>Node6&#45;&gt;Node7</title>
<path fill="none" stroke="midnightblue" d="M140.556,-481.836C127.04,-453.028 109.898,-416.491 94.0191,-382.649"/>
<polygon fill="none" stroke="midnightblue" points="137.395,-483.338 144.811,-490.904 143.732,-480.364 137.395,-483.338"/>
</g>
<!-- Node8&#45;&gt;Node3 -->
<g id="edge10" class="edge"><title>Node8&#45;&gt;Node3</title>
<path fill="none" stroke="midnightblue" d="M398.639,-480.883C398.055,-444.14 397.276,-395.155 396.64,-355.177"/>
<polygon fill="none" stroke="midnightblue" points="395.14,-480.961 398.799,-490.904 402.139,-480.85 395.14,-480.961"/>
</g>
<!-- Node9 -->
<g id="node10" class="node"><title>Node9</title>
<g id="a_node10"><a xlink:href="classStaticStack.html" target="_top" xlink:title="Stack implementation using a native C++ array as data storage. ">
<polygon fill="none" stroke="black" points="466.5,-193.5 466.5,-371.5 558.5,-371.5 558.5,-193.5 466.5,-193.5"/>
<text text-anchor="middle" x="512.5" y="-359.5" font-family="Helvetica,sans-Serif" font-size="10.00">StaticStack&lt; T &gt;</text>
<polyline fill="none" stroke="black" points="466.5,-352.5 558.5,-352.5 "/>
<text text-anchor="start" x="474.5" y="-340.5" font-family="Helvetica,sans-Serif" font-size="10.00">&#45; top</text>
<text text-anchor="start" x="474.5" y="-329.5" font-family="Helvetica,sans-Serif" font-size="10.00">&#45; size</text>
<text text-anchor="start" x="474.5" y="-318.5" font-family="Helvetica,sans-Serif" font-size="10.00">&#45; data</text>
<polyline fill="none" stroke="black" points="466.5,-311.5 558.5,-311.5 "/>
<text text-anchor="start" x="474.5" y="-299.5" font-family="Helvetica,sans-Serif" font-size="10.00">+ getName()</text>
<text text-anchor="start" x="474.5" y="-288.5" font-family="Helvetica,sans-Serif" font-size="10.00">+ StaticStack()</text>
<text text-anchor="start" x="474.5" y="-277.5" font-family="Helvetica,sans-Serif" font-size="10.00">+ StaticStack()</text>
<text text-anchor="start" x="474.5" y="-266.5" font-family="Helvetica,sans-Serif" font-size="10.00">+ ~StaticStack()</text>
<text text-anchor="start" x="474.5" y="-255.5" font-family="Helvetica,sans-Serif" font-size="10.00">+ push()</text>
<text text-anchor="start" x="474.5" y="-244.5" font-family="Helvetica,sans-Serif" font-size="10.00">+ pop()</text>
<text text-anchor="start" x="474.5" y="-233.5" font-family="Helvetica,sans-Serif" font-size="10.00">+ peek()</text>
<text text-anchor="start" x="474.5" y="-222.5" font-family="Helvetica,sans-Serif" font-size="10.00">+ getSize()</text>
<text text-anchor="start" x="474.5" y="-211.5" font-family="Helvetica,sans-Serif" font-size="10.00">+ isEmpty()</text>
<text text-anchor="start" x="474.5" y="-200.5" font-family="Helvetica,sans-Serif" font-size="10.00">+ isFull()</text>
</a>
</g>
</g>
<!-- Node8&#45;&gt;Node9 -->
<g id="edge11" class="edge"><title>Node8&#45;&gt;Node9</title>
<path fill="none" stroke="midnightblue" d="M423.433,-481.734C437.788,-449.785 456.401,-408.357 472.898,-371.64"/>
<polygon fill="none" stroke="midnightblue" points="420.218,-480.348 419.312,-490.904 426.603,-483.217 420.218,-480.348"/>
</g>
</g>
</svg>
