<?xml version="1.0" encoding="UTF-8" standalone="no"?>
<!DOCTYPE svg PUBLIC "-//W3C//DTD SVG 1.1//EN"
 "http://www.w3.org/Graphics/SVG/1.1/DTD/svg11.dtd">
<!-- Generated by graphviz version 2.38.0 (20140413.2041)
 -->
<!-- Title: LinkedList&lt; T &gt; Pages: 1 -->
<svg width="135pt" height="700pt"
 viewBox="0.00 0.00 135.00 700.00" xmlns="http://www.w3.org/2000/svg" xmlns:xlink="http://www.w3.org/1999/xlink">
<g id="graph0" class="graph" transform="scale(1 1) rotate(0) translate(4 696)">
<title>LinkedList&lt; T &gt;</title>
<!-- Node0 -->
<g id="node1" class="node"><title>Node0</title>
<polygon fill="#bfbfbf" stroke="black" points="21,-160.5 21,-294.5 106,-294.5 106,-160.5 21,-160.5"/>
<text text-anchor="middle" x="63.5" y="-282.5" font-family="Helvetica,sans-Serif" font-size="10.00">LinkedList&lt; T &gt;</text>
<polyline fill="none" stroke="black" points="21,-275.5 106,-275.5 "/>
<text text-anchor="middle" x="63.5" y="-263.5" font-family="Helvetica,sans-Serif" font-size="10.00"> </text>
<polyline fill="none" stroke="black" points="21,-256.5 106,-256.5 "/>
<text text-anchor="start" x="29" y="-244.5" font-family="Helvetica,sans-Serif" font-size="10.00">+ LinkedList()</text>
<text text-anchor="start" x="29" y="-233.5" font-family="Helvetica,sans-Serif" font-size="10.00">+ LinkedList()</text>
<text text-anchor="start" x="29" y="-222.5" font-family="Helvetica,sans-Serif" font-size="10.00">+ getName()</text>
<text text-anchor="start" x="29" y="-211.5" font-family="Helvetica,sans-Serif" font-size="10.00">+ insert()</text>
<text text-anchor="start" x="29" y="-200.5" font-family="Helvetica,sans-Serif" font-size="10.00">+ insert()</text>
<text text-anchor="start" x="29" y="-189.5" font-family="Helvetica,sans-Serif" font-size="10.00">+ remove()</text>
<text text-anchor="start" x="29" y="-178.5" font-family="Helvetica,sans-Serif" font-size="10.00">+ get()</text>
<text text-anchor="start" x="29" y="-167.5" font-family="Helvetica,sans-Serif" font-size="10.00">+ iterator()</text>
</g>
<!-- Node3 -->
<g id="node4" class="node"><title>Node3</title>
<g id="a_node4"><a xlink:href="classOrderedList.html" target="_top" xlink:title="Doubly&#45;linked ordered list implementation with dynamic memory allocation. ">
<polygon fill="none" stroke="black" points="18,-0.5 18,-123.5 109,-123.5 109,-0.5 18,-0.5"/>
<text text-anchor="middle" x="63.5" y="-111.5" font-family="Helvetica,sans-Serif" font-size="10.00">OrderedList&lt; T &gt;</text>
<polyline fill="none" stroke="black" points="18,-104.5 109,-104.5 "/>
<text text-anchor="start" x="26" y="-92.5" font-family="Helvetica,sans-Serif" font-size="10.00">&#45; compare</text>
<polyline fill="none" stroke="black" points="18,-85.5 109,-85.5 "/>
<text text-anchor="start" x="26" y="-73.5" font-family="Helvetica,sans-Serif" font-size="10.00">+ getName()</text>
<text text-anchor="start" x="26" y="-62.5" font-family="Helvetica,sans-Serif" font-size="10.00">+ OrderedList()</text>
<text text-anchor="start" x="26" y="-51.5" font-family="Helvetica,sans-Serif" font-size="10.00">+ OrderedList()</text>
<text text-anchor="start" x="26" y="-40.5" font-family="Helvetica,sans-Serif" font-size="10.00">+ insert()</text>
<text text-anchor="start" x="26" y="-29.5" font-family="Helvetica,sans-Serif" font-size="10.00">+ insert()</text>
<text text-anchor="start" x="26" y="-18.5" font-family="Helvetica,sans-Serif" font-size="10.00">+ remove()</text>
<text text-anchor="start" x="26" y="-7.5" font-family="Helvetica,sans-Serif" font-size="10.00">+ get()</text>
</a>
</g>
</g>
<!-- Node0&#45;&gt;Node3 -->
<g id="edge3" class="edge"><title>Node0&#45;&gt;Node3</title>
<path fill="none" stroke="midnightblue" d="M63.5,-150.425C63.5,-141.473 63.5,-132.43 63.5,-123.728"/>
<polygon fill="none" stroke="midnightblue" points="60.0001,-150.47 63.5,-160.47 67.0001,-150.47 60.0001,-150.47"/>
</g>
<!-- Node1 -->
<g id="node2" class="node"><title>Node1</title>
<g id="a_node2"><a xlink:href="classProtectedLinkedList.html" target="_top" xlink:title="Doubly&#45;linked list implementation with dynamic memory allocation. ">
<polygon fill="none" stroke="black" points="0,-331.5 0,-564.5 127,-564.5 127,-331.5 0,-331.5"/>
<text text-anchor="middle" x="63.5" y="-552.5" font-family="Helvetica,sans-Serif" font-size="10.00">ProtectedLinkedList&lt; T &gt;</text>
<polyline fill="none" stroke="black" points="0,-545.5 127,-545.5 "/>
<text text-anchor="start" x="8" y="-533.5" font-family="Helvetica,sans-Serif" font-size="10.00">&#45; first</text>
<text text-anchor="start" x="8" y="-522.5" font-family="Helvetica,sans-Serif" font-size="10.00">&#45; last</text>
<text text-anchor="start" x="8" y="-511.5" font-family="Helvetica,sans-Serif" font-size="10.00">&#45; size</text>
<polyline fill="none" stroke="black" points="0,-504.5 127,-504.5 "/>
<text text-anchor="start" x="8" y="-492.5" font-family="Helvetica,sans-Serif" font-size="10.00">+ getName()</text>
<text text-anchor="start" x="8" y="-481.5" font-family="Helvetica,sans-Serif" font-size="10.00">+ ProtectedLinkedList()</text>
<text text-anchor="start" x="8" y="-470.5" font-family="Helvetica,sans-Serif" font-size="10.00">+ ~ProtectedLinkedList()</text>
<text text-anchor="start" x="8" y="-459.5" font-family="Helvetica,sans-Serif" font-size="10.00">+ getSize()</text>
<text text-anchor="start" x="8" y="-448.5" font-family="Helvetica,sans-Serif" font-size="10.00">+ isEmpty()</text>
<text text-anchor="start" x="8" y="-437.5" font-family="Helvetica,sans-Serif" font-size="10.00">+ isFull()</text>
<text text-anchor="start" x="8" y="-426.5" font-family="Helvetica,sans-Serif" font-size="10.00"># getNode()</text>
<text text-anchor="start" x="8" y="-415.5" font-family="Helvetica,sans-Serif" font-size="10.00"># ProtectedLinkedList()</text>
<text text-anchor="start" x="8" y="-404.5" font-family="Helvetica,sans-Serif" font-size="10.00"># getFirst()</text>
<text text-anchor="start" x="8" y="-393.5" font-family="Helvetica,sans-Serif" font-size="10.00"># getLast()</text>
<text text-anchor="start" x="8" y="-382.5" font-family="Helvetica,sans-Serif" font-size="10.00"># insert()</text>
<text text-anchor="start" x="8" y="-371.5" font-family="Helvetica,sans-Serif" font-size="10.00"># insert()</text>
<text text-anchor="start" x="8" y="-360.5" font-family="Helvetica,sans-Serif" font-size="10.00"># remove()</text>
<text text-anchor="start" x="8" y="-349.5" font-family="Helvetica,sans-Serif" font-size="10.00"># get()</text>
<text text-anchor="start" x="8" y="-338.5" font-family="Helvetica,sans-Serif" font-size="10.00"># iterator()</text>
</a>
</g>
</g>
<!-- Node1&#45;&gt;Node0 -->
<g id="edge1" class="edge"><title>Node1&#45;&gt;Node0</title>
<path fill="none" stroke="midnightblue" d="M63.5,-321.063C63.5,-311.996 63.5,-303.087 63.5,-294.592"/>
<polygon fill="none" stroke="midnightblue" points="60.0001,-321.352 63.5,-331.352 67.0001,-321.352 60.0001,-321.352"/>
</g>
<!-- Node2 -->
<g id="node3" class="node"><title>Node2</title>
<g id="a_node3"><a xlink:href="classDataStructure.html" target="_top" xlink:title="Base class for all data structures. ">
<polygon fill="none" stroke="black" points="25,-601.5 25,-691.5 102,-691.5 102,-601.5 25,-601.5"/>
<text text-anchor="middle" x="63.5" y="-679.5" font-family="Helvetica,sans-Serif" font-size="10.00">DataStructure</text>
<polyline fill="none" stroke="black" points="25,-672.5 102,-672.5 "/>
<text text-anchor="middle" x="63.5" y="-660.5" font-family="Helvetica,sans-Serif" font-size="10.00"> </text>
<polyline fill="none" stroke="black" points="25,-653.5 102,-653.5 "/>
<text text-anchor="start" x="33" y="-641.5" font-family="Helvetica,sans-Serif" font-size="10.00">+ getSize()</text>
<text text-anchor="start" x="33" y="-630.5" font-family="Helvetica,sans-Serif" font-size="10.00">+ getName()</text>
<text text-anchor="start" x="33" y="-619.5" font-family="Helvetica,sans-Serif" font-size="10.00">+ isEmpty()</text>
<text text-anchor="start" x="33" y="-608.5" font-family="Helvetica,sans-Serif" font-size="10.00">+ isFull()</text>
</a>
</g>
</g>
<!-- Node2&#45;&gt;Node1 -->
<g id="edge2" class="edge"><title>Node2&#45;&gt;Node1</title>
<path fill="none" stroke="midnightblue" d="M63.5,-591.368C63.5,-582.898 63.5,-573.877 63.5,-564.644"/>
<polygon fill="none" stroke="midnightblue" points="60.0001,-591.402 63.5,-601.402 67.0001,-591.402 60.0001,-591.402"/>
</g>
</g>
</svg>
