<?xml version="1.0" encoding="UTF-8" standalone="no"?>
<!DOCTYPE svg PUBLIC "-//W3C//DTD SVG 1.1//EN"
 "http://www.w3.org/Graphics/SVG/1.1/DTD/svg11.dtd">
<!-- Generated by graphviz version 2.38.0 (20140413.2041)
 -->
<!-- Title: DynamicStack::pop Pages: 1 -->
<svg width="406pt" height="53pt"
 viewBox="0.00 0.00 406.00 52.50" xmlns="http://www.w3.org/2000/svg" xmlns:xlink="http://www.w3.org/1999/xlink">
<g id="graph0" class="graph" transform="scale(1 1) rotate(0) translate(4 48.5)">
<title>DynamicStack::pop</title>
<!-- Node23 -->
<g id="node1" class="node"><title>Node23</title>
<polygon fill="#bfbfbf" stroke="black" points="0,-19.5 0,-38.5 103,-38.5 103,-19.5 0,-19.5"/>
<text text-anchor="middle" x="51.5" y="-26.5" font-family="Helvetica,sans-Serif" font-size="10.00">DynamicStack::pop</text>
</g>
<!-- Node24 -->
<g id="node2" class="node"><title>Node24</title>
<g id="a_node2"><a xlink:href="classProtectedLinkedList.html#a264e204dcc5d4aee73e8c67ae4b2b1fa" target="_top" xlink:title="Check whether the structure is full. ">
<polygon fill="none" stroke="black" points="295,-14 295,-44 398,-44 398,-14 295,-14"/>
<text text-anchor="start" x="303" y="-32" font-family="Helvetica,sans-Serif" font-size="10.00">ProtectedLinkedList</text>
<text text-anchor="middle" x="346.5" y="-21" font-family="Helvetica,sans-Serif" font-size="10.00">::isFull</text>
</a>
</g>
</g>
<!-- Node23&#45;&gt;Node24 -->
<g id="edge1" class="edge"><title>Node23&#45;&gt;Node24</title>
<path fill="none" stroke="midnightblue" d="M103.202,-29C153.673,-29 231.155,-29 284.855,-29"/>
<polygon fill="midnightblue" stroke="midnightblue" points="284.928,-32.5001 294.928,-29 284.928,-25.5001 284.928,-32.5001"/>
</g>
<!-- Node25 -->
<g id="node3" class="node"><title>Node25</title>
<g id="a_node3"><a xlink:href="classDynamicStack.html#a15be45eff5b9d214cc39e539d0bb0bf8" target="_top" xlink:title="Outputs the number of elements stored in the structure. ">
<polygon fill="none" stroke="black" points="139,-0.5 139,-19.5 259,-19.5 259,-0.5 139,-0.5"/>
<text text-anchor="middle" x="199" y="-7.5" font-family="Helvetica,sans-Serif" font-size="10.00">DynamicStack::getSize</text>
</a>
</g>
</g>
<!-- Node23&#45;&gt;Node25 -->
<g id="edge2" class="edge"><title>Node23&#45;&gt;Node25</title>
<path fill="none" stroke="midnightblue" d="M103.389,-22.3547C111.635,-21.2779 120.294,-20.1471 128.886,-19.0252"/>
<polygon fill="midnightblue" stroke="midnightblue" points="129.449,-22.4815 138.911,-17.716 128.542,-15.5404 129.449,-22.4815"/>
</g>
<!-- Node25&#45;&gt;Node24 -->
<g id="edge3" class="edge"><title>Node25&#45;&gt;Node24</title>
<path fill="none" stroke="midnightblue" d="M259.18,-17.728C267.571,-18.8236 276.21,-19.9519 284.632,-21.0516"/>
<polygon fill="midnightblue" stroke="midnightblue" points="284.395,-24.5503 294.764,-22.3747 285.302,-17.6093 284.395,-24.5503"/>
</g>
</g>
</svg>
