<?xml version="1.0" encoding="UTF-8" standalone="no"?>
<!DOCTYPE svg PUBLIC "-//W3C//DTD SVG 1.1//EN"
 "http://www.w3.org/Graphics/SVG/1.1/DTD/svg11.dtd">
<!-- Generated by graphviz version 2.38.0 (20140413.2041)
 -->
<!-- Title: StaticStack&lt; T &gt; Pages: 1 -->
<svg width="177pt" height="442pt"
 viewBox="0.00 0.00 177.00 442.00" xmlns="http://www.w3.org/2000/svg" xmlns:xlink="http://www.w3.org/1999/xlink">
<g id="graph0" class="graph" transform="scale(1 1) rotate(0) translate(4 438)">
<title>StaticStack&lt; T &gt;</title>
<!-- Node3 -->
<g id="node1" class="node"><title>Node3</title>
<polygon fill="#bfbfbf" stroke="black" points="60.5,-0.5 60.5,-156.5 152.5,-156.5 152.5,-0.5 60.5,-0.5"/>
<text text-anchor="middle" x="106.5" y="-144.5" font-family="Helvetica,sans-Serif" font-size="10.00">StaticStack&lt; T &gt;</text>
<polyline fill="none" stroke="black" points="60.5,-137.5 152.5,-137.5 "/>
<text text-anchor="middle" x="106.5" y="-125.5" font-family="Helvetica,sans-Serif" font-size="10.00"> </text>
<polyline fill="none" stroke="black" points="60.5,-118.5 152.5,-118.5 "/>
<text text-anchor="start" x="68.5" y="-106.5" font-family="Helvetica,sans-Serif" font-size="10.00">+ getName()</text>
<text text-anchor="start" x="68.5" y="-95.5" font-family="Helvetica,sans-Serif" font-size="10.00">+ StaticStack()</text>
<text text-anchor="start" x="68.5" y="-84.5" font-family="Helvetica,sans-Serif" font-size="10.00">+ StaticStack()</text>
<text text-anchor="start" x="68.5" y="-73.5" font-family="Helvetica,sans-Serif" font-size="10.00">+ ~StaticStack()</text>
<text text-anchor="start" x="68.5" y="-62.5" font-family="Helvetica,sans-Serif" font-size="10.00">+ push()</text>
<text text-anchor="start" x="68.5" y="-51.5" font-family="Helvetica,sans-Serif" font-size="10.00">+ pop()</text>
<text text-anchor="start" x="68.5" y="-40.5" font-family="Helvetica,sans-Serif" font-size="10.00">+ peek()</text>
<text text-anchor="start" x="68.5" y="-29.5" font-family="Helvetica,sans-Serif" font-size="10.00">+ getSize()</text>
<text text-anchor="start" x="68.5" y="-18.5" font-family="Helvetica,sans-Serif" font-size="10.00">+ isEmpty()</text>
<text text-anchor="start" x="68.5" y="-7.5" font-family="Helvetica,sans-Serif" font-size="10.00">+ isFull()</text>
</g>
<!-- Node4 -->
<g id="node2" class="node"><title>Node4</title>
<g id="a_node2"><a xlink:href="classStack.html" target="_top" xlink:title="Abstract stack interface. ">
<polygon fill="none" stroke="black" points="3,-215.5 3,-305.5 74,-305.5 74,-215.5 3,-215.5"/>
<text text-anchor="middle" x="38.5" y="-293.5" font-family="Helvetica,sans-Serif" font-size="10.00">Stack&lt; T &gt;</text>
<polyline fill="none" stroke="black" points="3,-286.5 74,-286.5 "/>
<text text-anchor="middle" x="38.5" y="-274.5" font-family="Helvetica,sans-Serif" font-size="10.00"> </text>
<polyline fill="none" stroke="black" points="3,-267.5 74,-267.5 "/>
<text text-anchor="start" x="11" y="-255.5" font-family="Helvetica,sans-Serif" font-size="10.00">+ getName()</text>
<text text-anchor="start" x="11" y="-244.5" font-family="Helvetica,sans-Serif" font-size="10.00">+ push()</text>
<text text-anchor="start" x="11" y="-233.5" font-family="Helvetica,sans-Serif" font-size="10.00">+ pop()</text>
<text text-anchor="start" x="11" y="-222.5" font-family="Helvetica,sans-Serif" font-size="10.00">+ peek()</text>
</a>
</g>
</g>
<!-- Node4&#45;&gt;Node3 -->
<g id="edge1" class="edge"><title>Node4&#45;&gt;Node3</title>
<path fill="none" stroke="midnightblue" d="M58.6818,-206.078C64.5277,-190.603 71.0304,-173.39 77.3097,-156.769"/>
<polygon fill="none" stroke="midnightblue" points="55.3946,-204.875 55.1347,-215.467 61.9429,-207.349 55.3946,-204.875"/>
</g>
<!-- Node5 -->
<g id="node3" class="node"><title>Node5</title>
<g id="a_node3"><a xlink:href="classDataStructure.html" target="_top" xlink:title="Base class for all data structures. ">
<polygon fill="none" stroke="black" points="0,-343.5 0,-433.5 77,-433.5 77,-343.5 0,-343.5"/>
<text text-anchor="middle" x="38.5" y="-421.5" font-family="Helvetica,sans-Serif" font-size="10.00">DataStructure</text>
<polyline fill="none" stroke="black" points="0,-414.5 77,-414.5 "/>
<text text-anchor="middle" x="38.5" y="-402.5" font-family="Helvetica,sans-Serif" font-size="10.00"> </text>
<polyline fill="none" stroke="black" points="0,-395.5 77,-395.5 "/>
<text text-anchor="start" x="8" y="-383.5" font-family="Helvetica,sans-Serif" font-size="10.00">+ getSize()</text>
<text text-anchor="start" x="8" y="-372.5" font-family="Helvetica,sans-Serif" font-size="10.00">+ getName()</text>
<text text-anchor="start" x="8" y="-361.5" font-family="Helvetica,sans-Serif" font-size="10.00">+ isEmpty()</text>
<text text-anchor="start" x="8" y="-350.5" font-family="Helvetica,sans-Serif" font-size="10.00">+ isFull()</text>
</a>
</g>
</g>
<!-- Node5&#45;&gt;Node4 -->
<g id="edge2" class="edge"><title>Node5&#45;&gt;Node4</title>
<path fill="none" stroke="midnightblue" d="M38.5,-333.226C38.5,-324.056 38.5,-314.633 38.5,-305.757"/>
<polygon fill="none" stroke="midnightblue" points="35.0001,-333.431 38.5,-343.431 42.0001,-333.431 35.0001,-333.431"/>
</g>
<!-- Node6 -->
<g id="node4" class="node"><title>Node6</title>
<polygon fill="none" stroke="#bfbfbf" points="92,-232 92,-289 121,-289 121,-232 92,-232"/>
<text text-anchor="middle" x="106.5" y="-277" font-family="Helvetica,sans-Serif" font-size="10.00">T *</text>
<polyline fill="none" stroke="#bfbfbf" points="92,-270 121,-270 "/>
<text text-anchor="middle" x="106.5" y="-258" font-family="Helvetica,sans-Serif" font-size="10.00"> </text>
<polyline fill="none" stroke="#bfbfbf" points="92,-251 121,-251 "/>
<text text-anchor="middle" x="106.5" y="-239" font-family="Helvetica,sans-Serif" font-size="10.00"> </text>
</g>
<!-- Node6&#45;&gt;Node3 -->
<g id="edge3" class="edge"><title>Node6&#45;&gt;Node3</title>
<path fill="none" stroke="#404040" d="M106.5,-231.769C106.5,-214.717 106.5,-191.814 106.5,-168.957"/>
<polygon fill="none" stroke="#404040" points="106.5,-168.673 102.5,-162.673 106.5,-156.673 110.5,-162.673 106.5,-168.673"/>
<text text-anchor="middle" x="119" y="-183.5" font-family="Helvetica,sans-Serif" font-size="10.00"> &#45;data</text>
</g>
<!-- Node7 -->
<g id="node5" class="node"><title>Node7</title>
<polygon fill="none" stroke="#bfbfbf" points="140,-232 140,-289 169,-289 169,-232 140,-232"/>
<text text-anchor="middle" x="154.5" y="-277" font-family="Helvetica,sans-Serif" font-size="10.00">int</text>
<polyline fill="none" stroke="#bfbfbf" points="140,-270 169,-270 "/>
<text text-anchor="middle" x="154.5" y="-258" font-family="Helvetica,sans-Serif" font-size="10.00"> </text>
<polyline fill="none" stroke="#bfbfbf" points="140,-251 169,-251 "/>
<text text-anchor="middle" x="154.5" y="-239" font-family="Helvetica,sans-Serif" font-size="10.00"> </text>
</g>
<!-- Node7&#45;&gt;Node3 -->
<g id="edge4" class="edge"><title>Node7&#45;&gt;Node3</title>
<path fill="none" stroke="#404040" d="M147.344,-231.697C143.079,-215.206 137.532,-193.897 132.5,-175 131.928,-172.852 131.347,-170.677 130.76,-168.483"/>
<polygon fill="none" stroke="#404040" points="130.687,-168.211 125.268,-163.454 127.575,-156.621 132.995,-161.379 130.687,-168.211"/>
<text text-anchor="middle" x="148.5" y="-189" font-family="Helvetica,sans-Serif" font-size="10.00"> &#45;top</text>
<text text-anchor="middle" x="148.5" y="-178" font-family="Helvetica,sans-Serif" font-size="10.00">&#45;size</text>
</g>
</g>
</svg>
