<?xml version="1.0" encoding="UTF-8" standalone="no"?>
<!DOCTYPE svg PUBLIC "-//W3C//DTD SVG 1.1//EN"
 "http://www.w3.org/Graphics/SVG/1.1/DTD/svg11.dtd">
<!-- Generated by graphviz version 2.38.0 (20140413.2041)
 -->
<!-- Title: OrderedList::indexOf Pages: 1 -->
<svg width="248pt" height="46pt"
 viewBox="0.00 0.00 248.00 46.00" xmlns="http://www.w3.org/2000/svg" xmlns:xlink="http://www.w3.org/1999/xlink">
<g id="graph0" class="graph" transform="scale(1 1) rotate(0) translate(4 42)">
<title>OrderedList::indexOf</title>
<!-- Node13 -->
<g id="node1" class="node"><title>Node13</title>
<polygon fill="#bfbfbf" stroke="black" points="0,-0.5 0,-19.5 107,-19.5 107,-0.5 0,-0.5"/>
<text text-anchor="middle" x="53.5" y="-7.5" font-family="Helvetica,sans-Serif" font-size="10.00">OrderedList::indexOf</text>
</g>
<!-- Node14 -->
<g id="node2" class="node"><title>Node14</title>
<g id="a_node2"><a xlink:href="classLinkedList.html#a2704854adf2cfec4aefce769d344aa1a" target="_top" xlink:title="Creates an Iterator, an object that allows the sequential access of values in a Linked List without t...">
<polygon fill="none" stroke="black" points="143,-0.5 143,-19.5 240,-19.5 240,-0.5 143,-0.5"/>
<text text-anchor="middle" x="191.5" y="-7.5" font-family="Helvetica,sans-Serif" font-size="10.00">LinkedList::iterator</text>
</a>
</g>
</g>
<!-- Node13&#45;&gt;Node14 -->
<g id="edge1" class="edge"><title>Node13&#45;&gt;Node14</title>
<path fill="none" stroke="midnightblue" d="M107.081,-10C115.477,-10 124.205,-10 132.713,-10"/>
<polygon fill="midnightblue" stroke="midnightblue" points="132.947,-13.5001 142.947,-10 132.947,-6.5001 132.947,-13.5001"/>
</g>
<!-- Node14&#45;&gt;Node14 -->
<g id="edge2" class="edge"><title>Node14&#45;&gt;Node14</title>
<path fill="none" stroke="midnightblue" d="M170.23,-19.7571C159.883,-28.5653 166.973,-38 191.5,-38 207.213,-38 215.769,-34.128 217.17,-29.0292"/>
<polygon fill="midnightblue" stroke="midnightblue" points="220.219,-27.2911 212.77,-19.7571 213.895,-30.292 220.219,-27.2911"/>
</g>
</g>
</svg>
