<?xml version="1.0" encoding="UTF-8" standalone="no"?>
<!DOCTYPE svg PUBLIC "-//W3C//DTD SVG 1.1//EN"
 "http://www.w3.org/Graphics/SVG/1.1/DTD/svg11.dtd">
<!-- Generated by graphviz version 2.38.0 (20140413.2041)
 -->
<!-- Title: OrderedList&lt; T &gt; Pages: 1 -->
<svg width="300pt" height="734pt"
 viewBox="0.00 0.00 299.50 734.00" xmlns="http://www.w3.org/2000/svg" xmlns:xlink="http://www.w3.org/1999/xlink">
<g id="graph0" class="graph" transform="scale(1 1) rotate(0) translate(4 730)">
<title>OrderedList&lt; T &gt;</title>
<!-- Node4 -->
<g id="node1" class="node"><title>Node4</title>
<polygon fill="#bfbfbf" stroke="black" points="168,-0.5 168,-145.5 259,-145.5 259,-0.5 168,-0.5"/>
<text text-anchor="middle" x="213.5" y="-133.5" font-family="Helvetica,sans-Serif" font-size="10.00">OrderedList&lt; T &gt;</text>
<polyline fill="none" stroke="black" points="168,-126.5 259,-126.5 "/>
<text text-anchor="middle" x="213.5" y="-114.5" font-family="Helvetica,sans-Serif" font-size="10.00"> </text>
<polyline fill="none" stroke="black" points="168,-107.5 259,-107.5 "/>
<text text-anchor="start" x="176" y="-95.5" font-family="Helvetica,sans-Serif" font-size="10.00">+ getName()</text>
<text text-anchor="start" x="176" y="-84.5" font-family="Helvetica,sans-Serif" font-size="10.00">+ OrderedList()</text>
<text text-anchor="start" x="176" y="-73.5" font-family="Helvetica,sans-Serif" font-size="10.00">+ OrderedList()</text>
<text text-anchor="start" x="176" y="-62.5" font-family="Helvetica,sans-Serif" font-size="10.00">+ insert()</text>
<text text-anchor="start" x="176" y="-51.5" font-family="Helvetica,sans-Serif" font-size="10.00">+ insert()</text>
<text text-anchor="start" x="176" y="-40.5" font-family="Helvetica,sans-Serif" font-size="10.00">+ indexOf()</text>
<text text-anchor="start" x="176" y="-29.5" font-family="Helvetica,sans-Serif" font-size="10.00">+ contains()</text>
<text text-anchor="start" x="176" y="-18.5" font-family="Helvetica,sans-Serif" font-size="10.00">+ remove()</text>
<text text-anchor="start" x="176" y="-7.5" font-family="Helvetica,sans-Serif" font-size="10.00">+ get()</text>
</g>
<!-- Node5 -->
<g id="node2" class="node"><title>Node5</title>
<g id="a_node2"><a xlink:href="classLinkedList.html" target="_top" xlink:title="Doubly&#45;linked list implementation with dynamic memory allocation. ">
<polygon fill="none" stroke="black" points="88,-193.5 88,-327.5 173,-327.5 173,-193.5 88,-193.5"/>
<text text-anchor="middle" x="130.5" y="-315.5" font-family="Helvetica,sans-Serif" font-size="10.00">LinkedList&lt; T &gt;</text>
<polyline fill="none" stroke="black" points="88,-308.5 173,-308.5 "/>
<text text-anchor="middle" x="130.5" y="-296.5" font-family="Helvetica,sans-Serif" font-size="10.00"> </text>
<polyline fill="none" stroke="black" points="88,-289.5 173,-289.5 "/>
<text text-anchor="start" x="96" y="-277.5" font-family="Helvetica,sans-Serif" font-size="10.00">+ LinkedList()</text>
<text text-anchor="start" x="96" y="-266.5" font-family="Helvetica,sans-Serif" font-size="10.00">+ LinkedList()</text>
<text text-anchor="start" x="96" y="-255.5" font-family="Helvetica,sans-Serif" font-size="10.00">+ getName()</text>
<text text-anchor="start" x="96" y="-244.5" font-family="Helvetica,sans-Serif" font-size="10.00">+ insert()</text>
<text text-anchor="start" x="96" y="-233.5" font-family="Helvetica,sans-Serif" font-size="10.00">+ insert()</text>
<text text-anchor="start" x="96" y="-222.5" font-family="Helvetica,sans-Serif" font-size="10.00">+ remove()</text>
<text text-anchor="start" x="96" y="-211.5" font-family="Helvetica,sans-Serif" font-size="10.00">+ get()</text>
<text text-anchor="start" x="96" y="-200.5" font-family="Helvetica,sans-Serif" font-size="10.00">+ iterator()</text>
</a>
</g>
</g>
<!-- Node5&#45;&gt;Node4 -->
<g id="edge1" class="edge"><title>Node5&#45;&gt;Node4</title>
<path fill="none" stroke="midnightblue" d="M164.227,-184.123C169.934,-171.367 175.845,-158.157 181.506,-145.504"/>
<polygon fill="none" stroke="midnightblue" points="161.003,-182.758 160.113,-193.316 167.392,-185.617 161.003,-182.758"/>
</g>
<!-- Node6 -->
<g id="node3" class="node"><title>Node6</title>
<g id="a_node3"><a xlink:href="classProtectedLinkedList.html" target="_top" xlink:title="Doubly&#45;linked list implementation with dynamic memory allocation. ">
<polygon fill="none" stroke="black" points="67,-365.5 67,-576.5 194,-576.5 194,-365.5 67,-365.5"/>
<text text-anchor="middle" x="130.5" y="-564.5" font-family="Helvetica,sans-Serif" font-size="10.00">ProtectedLinkedList&lt; T &gt;</text>
<polyline fill="none" stroke="black" points="67,-557.5 194,-557.5 "/>
<text text-anchor="middle" x="130.5" y="-545.5" font-family="Helvetica,sans-Serif" font-size="10.00"> </text>
<polyline fill="none" stroke="black" points="67,-538.5 194,-538.5 "/>
<text text-anchor="start" x="75" y="-526.5" font-family="Helvetica,sans-Serif" font-size="10.00">+ getName()</text>
<text text-anchor="start" x="75" y="-515.5" font-family="Helvetica,sans-Serif" font-size="10.00">+ ProtectedLinkedList()</text>
<text text-anchor="start" x="75" y="-504.5" font-family="Helvetica,sans-Serif" font-size="10.00">+ ~ProtectedLinkedList()</text>
<text text-anchor="start" x="75" y="-493.5" font-family="Helvetica,sans-Serif" font-size="10.00">+ getSize()</text>
<text text-anchor="start" x="75" y="-482.5" font-family="Helvetica,sans-Serif" font-size="10.00">+ isEmpty()</text>
<text text-anchor="start" x="75" y="-471.5" font-family="Helvetica,sans-Serif" font-size="10.00">+ isFull()</text>
<text text-anchor="start" x="75" y="-460.5" font-family="Helvetica,sans-Serif" font-size="10.00"># getNode()</text>
<text text-anchor="start" x="75" y="-449.5" font-family="Helvetica,sans-Serif" font-size="10.00"># ProtectedLinkedList()</text>
<text text-anchor="start" x="75" y="-438.5" font-family="Helvetica,sans-Serif" font-size="10.00"># getFirst()</text>
<text text-anchor="start" x="75" y="-427.5" font-family="Helvetica,sans-Serif" font-size="10.00"># getLast()</text>
<text text-anchor="start" x="75" y="-416.5" font-family="Helvetica,sans-Serif" font-size="10.00"># insert()</text>
<text text-anchor="start" x="75" y="-405.5" font-family="Helvetica,sans-Serif" font-size="10.00"># insert()</text>
<text text-anchor="start" x="75" y="-394.5" font-family="Helvetica,sans-Serif" font-size="10.00"># remove()</text>
<text text-anchor="start" x="75" y="-383.5" font-family="Helvetica,sans-Serif" font-size="10.00"># get()</text>
<text text-anchor="start" x="75" y="-372.5" font-family="Helvetica,sans-Serif" font-size="10.00"># iterator()</text>
</a>
</g>
</g>
<!-- Node6&#45;&gt;Node5 -->
<g id="edge2" class="edge"><title>Node6&#45;&gt;Node5</title>
<path fill="none" stroke="midnightblue" d="M130.5,-355.178C130.5,-345.745 130.5,-336.428 130.5,-327.542"/>
<polygon fill="none" stroke="midnightblue" points="127,-355.445 130.5,-365.445 134,-355.445 127,-355.445"/>
</g>
<!-- Node7 -->
<g id="node4" class="node"><title>Node7</title>
<g id="a_node4"><a xlink:href="classDataStructure.html" target="_top" xlink:title="Base class for all data structures. ">
<polygon fill="none" stroke="black" points="0,-635.5 0,-725.5 77,-725.5 77,-635.5 0,-635.5"/>
<text text-anchor="middle" x="38.5" y="-713.5" font-family="Helvetica,sans-Serif" font-size="10.00">DataStructure</text>
<polyline fill="none" stroke="black" points="0,-706.5 77,-706.5 "/>
<text text-anchor="middle" x="38.5" y="-694.5" font-family="Helvetica,sans-Serif" font-size="10.00"> </text>
<polyline fill="none" stroke="black" points="0,-687.5 77,-687.5 "/>
<text text-anchor="start" x="8" y="-675.5" font-family="Helvetica,sans-Serif" font-size="10.00">+ getSize()</text>
<text text-anchor="start" x="8" y="-664.5" font-family="Helvetica,sans-Serif" font-size="10.00">+ getName()</text>
<text text-anchor="start" x="8" y="-653.5" font-family="Helvetica,sans-Serif" font-size="10.00">+ isEmpty()</text>
<text text-anchor="start" x="8" y="-642.5" font-family="Helvetica,sans-Serif" font-size="10.00">+ isFull()</text>
</a>
</g>
</g>
<!-- Node7&#45;&gt;Node6 -->
<g id="edge3" class="edge"><title>Node7&#45;&gt;Node6</title>
<path fill="none" stroke="midnightblue" d="M62.1072,-626.255C68.8759,-610.989 76.5002,-593.793 84.1378,-576.567"/>
<polygon fill="none" stroke="midnightblue" points="58.8645,-624.934 58.0108,-635.495 65.2637,-627.771 58.8645,-624.934"/>
</g>
<!-- Node8 -->
<g id="node5" class="node"><title>Node8</title>
<polygon fill="none" stroke="#bfbfbf" points="95,-652 95,-709 166,-709 166,-652 95,-652"/>
<text text-anchor="middle" x="130.5" y="-697" font-family="Helvetica,sans-Serif" font-size="10.00">Node&lt; T &gt; *</text>
<polyline fill="none" stroke="#bfbfbf" points="95,-690 166,-690 "/>
<text text-anchor="middle" x="130.5" y="-678" font-family="Helvetica,sans-Serif" font-size="10.00"> </text>
<polyline fill="none" stroke="#bfbfbf" points="95,-671 166,-671 "/>
<text text-anchor="middle" x="130.5" y="-659" font-family="Helvetica,sans-Serif" font-size="10.00"> </text>
</g>
<!-- Node8&#45;&gt;Node6 -->
<g id="edge4" class="edge"><title>Node8&#45;&gt;Node6</title>
<path fill="none" stroke="#404040" d="M130.5,-651.946C130.5,-635.159 130.5,-612.44 130.5,-588.803"/>
<polygon fill="none" stroke="#404040" points="130.5,-588.769 126.5,-582.769 130.5,-576.769 134.5,-582.769 130.5,-588.769"/>
<text text-anchor="middle" x="141.5" y="-609" font-family="Helvetica,sans-Serif" font-size="10.00"> &#45;last</text>
<text text-anchor="middle" x="141.5" y="-598" font-family="Helvetica,sans-Serif" font-size="10.00">&#45;first</text>
</g>
<!-- Node9 -->
<g id="node6" class="node"><title>Node9</title>
<polygon fill="none" stroke="#bfbfbf" points="184,-652 184,-709 213,-709 213,-652 184,-652"/>
<text text-anchor="middle" x="198.5" y="-697" font-family="Helvetica,sans-Serif" font-size="10.00">int</text>
<polyline fill="none" stroke="#bfbfbf" points="184,-690 213,-690 "/>
<text text-anchor="middle" x="198.5" y="-678" font-family="Helvetica,sans-Serif" font-size="10.00"> </text>
<polyline fill="none" stroke="#bfbfbf" points="184,-671 213,-671 "/>
<text text-anchor="middle" x="198.5" y="-659" font-family="Helvetica,sans-Serif" font-size="10.00"> </text>
</g>
<!-- Node9&#45;&gt;Node6 -->
<g id="edge5" class="edge"><title>Node9&#45;&gt;Node6</title>
<path fill="none" stroke="#404040" d="M189.47,-651.946C183.944,-635.082 176.456,-612.233 168.672,-588.48"/>
<polygon fill="none" stroke="#404040" points="168.571,-588.172 162.901,-583.716 164.834,-576.769 170.503,-581.225 168.571,-588.172"/>
<text text-anchor="middle" x="190" y="-603.5" font-family="Helvetica,sans-Serif" font-size="10.00"> &#45;size</text>
</g>
<!-- Node10 -->
<g id="node7" class="node"><title>Node10</title>
<polygon fill="none" stroke="#bfbfbf" points="191.5,-232 191.5,-289 291.5,-289 291.5,-232 191.5,-232"/>
<text text-anchor="middle" x="241.5" y="-277" font-family="Helvetica,sans-Serif" font-size="10.00">function&lt; int(T, T)&gt;</text>
<polyline fill="none" stroke="#bfbfbf" points="191.5,-270 291.5,-270 "/>
<text text-anchor="middle" x="241.5" y="-258" font-family="Helvetica,sans-Serif" font-size="10.00"> </text>
<polyline fill="none" stroke="#bfbfbf" points="191.5,-251 291.5,-251 "/>
<text text-anchor="middle" x="241.5" y="-239" font-family="Helvetica,sans-Serif" font-size="10.00"> </text>
</g>
<!-- Node10&#45;&gt;Node4 -->
<g id="edge6" class="edge"><title>Node10&#45;&gt;Node4</title>
<path fill="none" stroke="#404040" d="M237.308,-231.729C234.331,-212.008 230.166,-184.411 226.15,-157.806"/>
<polygon fill="none" stroke="#404040" points="226.111,-157.548 221.26,-152.213 224.32,-145.683 229.171,-151.019 226.111,-157.548"/>
<text text-anchor="middle" x="250.5" y="-167" font-family="Helvetica,sans-Serif" font-size="10.00"> &#45;compare</text>
</g>
</g>
</svg>
