<?xml version="1.0" encoding="UTF-8" standalone="no"?>
<!DOCTYPE svg PUBLIC "-//W3C//DTD SVG 1.1//EN"
 "http://www.w3.org/Graphics/SVG/1.1/DTD/svg11.dtd">
<!-- Generated by graphviz version 2.38.0 (20140413.2041)
 -->
<!-- Title: Stack&lt; T &gt; Pages: 1 -->
<svg width="224pt" height="441pt"
 viewBox="0.00 0.00 223.50 441.00" xmlns="http://www.w3.org/2000/svg" xmlns:xlink="http://www.w3.org/1999/xlink">
<g id="graph0" class="graph" transform="scale(1 1) rotate(0) translate(4 437)">
<title>Stack&lt; T &gt;</title>
<!-- Node0 -->
<g id="node1" class="node"><title>Node0</title>
<polygon fill="#bfbfbf" stroke="black" points="75,-215.5 75,-305.5 146,-305.5 146,-215.5 75,-215.5"/>
<text text-anchor="middle" x="110.5" y="-293.5" font-family="Helvetica,sans-Serif" font-size="10.00">Stack&lt; T &gt;</text>
<polyline fill="none" stroke="black" points="75,-286.5 146,-286.5 "/>
<text text-anchor="middle" x="110.5" y="-274.5" font-family="Helvetica,sans-Serif" font-size="10.00"> </text>
<polyline fill="none" stroke="black" points="75,-267.5 146,-267.5 "/>
<text text-anchor="start" x="83" y="-255.5" font-family="Helvetica,sans-Serif" font-size="10.00">+ getName()</text>
<text text-anchor="start" x="83" y="-244.5" font-family="Helvetica,sans-Serif" font-size="10.00">+ push()</text>
<text text-anchor="start" x="83" y="-233.5" font-family="Helvetica,sans-Serif" font-size="10.00">+ pop()</text>
<text text-anchor="start" x="83" y="-222.5" font-family="Helvetica,sans-Serif" font-size="10.00">+ peek()</text>
</g>
<!-- Node2 -->
<g id="node3" class="node"><title>Node2</title>
<g id="a_node3"><a xlink:href="classDynamicStack.html" target="_top" xlink:title="Stack implementation with dynamic memory allocation. ">
<polygon fill="none" stroke="black" points="0,-17 0,-162 105,-162 105,-17 0,-17"/>
<text text-anchor="middle" x="52.5" y="-150" font-family="Helvetica,sans-Serif" font-size="10.00">DynamicStack&lt; T &gt;</text>
<polyline fill="none" stroke="black" points="0,-143 105,-143 "/>
<text text-anchor="middle" x="52.5" y="-131" font-family="Helvetica,sans-Serif" font-size="10.00"> </text>
<polyline fill="none" stroke="black" points="0,-124 105,-124 "/>
<text text-anchor="start" x="8" y="-112" font-family="Helvetica,sans-Serif" font-size="10.00">+ DynamicStack()</text>
<text text-anchor="start" x="8" y="-101" font-family="Helvetica,sans-Serif" font-size="10.00">+ DynamicStack()</text>
<text text-anchor="start" x="8" y="-90" font-family="Helvetica,sans-Serif" font-size="10.00">+ getName()</text>
<text text-anchor="start" x="8" y="-79" font-family="Helvetica,sans-Serif" font-size="10.00">+ push()</text>
<text text-anchor="start" x="8" y="-68" font-family="Helvetica,sans-Serif" font-size="10.00">+ pop()</text>
<text text-anchor="start" x="8" y="-57" font-family="Helvetica,sans-Serif" font-size="10.00">+ peek()</text>
<text text-anchor="start" x="8" y="-46" font-family="Helvetica,sans-Serif" font-size="10.00">+ getSize()</text>
<text text-anchor="start" x="8" y="-35" font-family="Helvetica,sans-Serif" font-size="10.00">+ isEmpty()</text>
<text text-anchor="start" x="8" y="-24" font-family="Helvetica,sans-Serif" font-size="10.00">+ isFull()</text>
</a>
</g>
</g>
<!-- Node0&#45;&gt;Node2 -->
<g id="edge2" class="edge"><title>Node0&#45;&gt;Node2</title>
<path fill="none" stroke="midnightblue" d="M91.9043,-205.316C87.1792,-191.548 82.0293,-176.542 77.0578,-162.056"/>
<polygon fill="none" stroke="midnightblue" points="88.7045,-206.775 95.2612,-215.097 95.3255,-204.503 88.7045,-206.775"/>
</g>
<!-- Node3 -->
<g id="node4" class="node"><title>Node3</title>
<g id="a_node4"><a xlink:href="classStaticStack.html" target="_top" xlink:title="Stack implementation using a native C++ array as data storage. ">
<polygon fill="none" stroke="black" points="123.5,-0.5 123.5,-178.5 215.5,-178.5 215.5,-0.5 123.5,-0.5"/>
<text text-anchor="middle" x="169.5" y="-166.5" font-family="Helvetica,sans-Serif" font-size="10.00">StaticStack&lt; T &gt;</text>
<polyline fill="none" stroke="black" points="123.5,-159.5 215.5,-159.5 "/>
<text text-anchor="start" x="131.5" y="-147.5" font-family="Helvetica,sans-Serif" font-size="10.00">&#45; top</text>
<text text-anchor="start" x="131.5" y="-136.5" font-family="Helvetica,sans-Serif" font-size="10.00">&#45; size</text>
<text text-anchor="start" x="131.5" y="-125.5" font-family="Helvetica,sans-Serif" font-size="10.00">&#45; data</text>
<polyline fill="none" stroke="black" points="123.5,-118.5 215.5,-118.5 "/>
<text text-anchor="start" x="131.5" y="-106.5" font-family="Helvetica,sans-Serif" font-size="10.00">+ getName()</text>
<text text-anchor="start" x="131.5" y="-95.5" font-family="Helvetica,sans-Serif" font-size="10.00">+ StaticStack()</text>
<text text-anchor="start" x="131.5" y="-84.5" font-family="Helvetica,sans-Serif" font-size="10.00">+ StaticStack()</text>
<text text-anchor="start" x="131.5" y="-73.5" font-family="Helvetica,sans-Serif" font-size="10.00">+ ~StaticStack()</text>
<text text-anchor="start" x="131.5" y="-62.5" font-family="Helvetica,sans-Serif" font-size="10.00">+ push()</text>
<text text-anchor="start" x="131.5" y="-51.5" font-family="Helvetica,sans-Serif" font-size="10.00">+ pop()</text>
<text text-anchor="start" x="131.5" y="-40.5" font-family="Helvetica,sans-Serif" font-size="10.00">+ peek()</text>
<text text-anchor="start" x="131.5" y="-29.5" font-family="Helvetica,sans-Serif" font-size="10.00">+ getSize()</text>
<text text-anchor="start" x="131.5" y="-18.5" font-family="Helvetica,sans-Serif" font-size="10.00">+ isEmpty()</text>
<text text-anchor="start" x="131.5" y="-7.5" font-family="Helvetica,sans-Serif" font-size="10.00">+ isFull()</text>
</a>
</g>
</g>
<!-- Node0&#45;&gt;Node3 -->
<g id="edge3" class="edge"><title>Node0&#45;&gt;Node3</title>
<path fill="none" stroke="midnightblue" d="M129.311,-205.618C132.314,-197.017 135.487,-187.927 138.681,-178.778"/>
<polygon fill="none" stroke="midnightblue" points="125.993,-204.502 126.002,-215.097 132.602,-206.81 125.993,-204.502"/>
</g>
<!-- Node1 -->
<g id="node2" class="node"><title>Node1</title>
<g id="a_node2"><a xlink:href="classDataStructure.html" target="_top" xlink:title="Base class for all data structures. ">
<polygon fill="none" stroke="black" points="72,-342.5 72,-432.5 149,-432.5 149,-342.5 72,-342.5"/>
<text text-anchor="middle" x="110.5" y="-420.5" font-family="Helvetica,sans-Serif" font-size="10.00">DataStructure</text>
<polyline fill="none" stroke="black" points="72,-413.5 149,-413.5 "/>
<text text-anchor="middle" x="110.5" y="-401.5" font-family="Helvetica,sans-Serif" font-size="10.00"> </text>
<polyline fill="none" stroke="black" points="72,-394.5 149,-394.5 "/>
<text text-anchor="start" x="80" y="-382.5" font-family="Helvetica,sans-Serif" font-size="10.00">+ getSize()</text>
<text text-anchor="start" x="80" y="-371.5" font-family="Helvetica,sans-Serif" font-size="10.00">+ getName()</text>
<text text-anchor="start" x="80" y="-360.5" font-family="Helvetica,sans-Serif" font-size="10.00">+ isEmpty()</text>
<text text-anchor="start" x="80" y="-349.5" font-family="Helvetica,sans-Serif" font-size="10.00">+ isFull()</text>
</a>
</g>
</g>
<!-- Node1&#45;&gt;Node0 -->
<g id="edge1" class="edge"><title>Node1&#45;&gt;Node0</title>
<path fill="none" stroke="midnightblue" d="M110.5,-332.157C110.5,-323.282 110.5,-314.183 110.5,-305.594"/>
<polygon fill="none" stroke="midnightblue" points="107,-332.43 110.5,-342.43 114,-332.43 107,-332.43"/>
</g>
</g>
</svg>
