<?xml version="1.0" encoding="UTF-8" standalone="no"?>
<!DOCTYPE svg PUBLIC "-//W3C//DTD SVG 1.1//EN"
 "http://www.w3.org/Graphics/SVG/1.1/DTD/svg11.dtd">
<!-- Generated by graphviz version 2.38.0 (20140413.2041)
 -->
<!-- Title: OrderedList&lt; T &gt; Pages: 1 -->
<svg width="300pt" height="712pt"
 viewBox="0.00 0.00 299.50 712.00" xmlns="http://www.w3.org/2000/svg" xmlns:xlink="http://www.w3.org/1999/xlink">
<g id="graph0" class="graph" transform="scale(1 1) rotate(0) translate(4 708)">
<title>OrderedList&lt; T &gt;</title>
<!-- Node4 -->
<g id="node1" class="node"><title>Node4</title>
<polygon fill="#bfbfbf" stroke="black" points="168,-0.5 168,-123.5 259,-123.5 259,-0.5 168,-0.5"/>
<text text-anchor="middle" x="213.5" y="-111.5" font-family="Helvetica,sans-Serif" font-size="10.00">OrderedList&lt; T &gt;</text>
<polyline fill="none" stroke="black" points="168,-104.5 259,-104.5 "/>
<text text-anchor="middle" x="213.5" y="-92.5" font-family="Helvetica,sans-Serif" font-size="10.00"> </text>
<polyline fill="none" stroke="black" points="168,-85.5 259,-85.5 "/>
<text text-anchor="start" x="176" y="-73.5" font-family="Helvetica,sans-Serif" font-size="10.00">+ getName()</text>
<text text-anchor="start" x="176" y="-62.5" font-family="Helvetica,sans-Serif" font-size="10.00">+ OrderedList()</text>
<text text-anchor="start" x="176" y="-51.5" font-family="Helvetica,sans-Serif" font-size="10.00">+ OrderedList()</text>
<text text-anchor="start" x="176" y="-40.5" font-family="Helvetica,sans-Serif" font-size="10.00">+ insert()</text>
<text text-anchor="start" x="176" y="-29.5" font-family="Helvetica,sans-Serif" font-size="10.00">+ insert()</text>
<text text-anchor="start" x="176" y="-18.5" font-family="Helvetica,sans-Serif" font-size="10.00">+ remove()</text>
<text text-anchor="start" x="176" y="-7.5" font-family="Helvetica,sans-Serif" font-size="10.00">+ get()</text>
</g>
<!-- Node5 -->
<g id="node2" class="node"><title>Node5</title>
<g id="a_node2"><a xlink:href="classLinkedList.html" target="_top" xlink:title="Doubly&#45;linked list implementation with dynamic memory allocation. ">
<polygon fill="none" stroke="black" points="88,-171.5 88,-305.5 173,-305.5 173,-171.5 88,-171.5"/>
<text text-anchor="middle" x="130.5" y="-293.5" font-family="Helvetica,sans-Serif" font-size="10.00">LinkedList&lt; T &gt;</text>
<polyline fill="none" stroke="black" points="88,-286.5 173,-286.5 "/>
<text text-anchor="middle" x="130.5" y="-274.5" font-family="Helvetica,sans-Serif" font-size="10.00"> </text>
<polyline fill="none" stroke="black" points="88,-267.5 173,-267.5 "/>
<text text-anchor="start" x="96" y="-255.5" font-family="Helvetica,sans-Serif" font-size="10.00">+ LinkedList()</text>
<text text-anchor="start" x="96" y="-244.5" font-family="Helvetica,sans-Serif" font-size="10.00">+ LinkedList()</text>
<text text-anchor="start" x="96" y="-233.5" font-family="Helvetica,sans-Serif" font-size="10.00">+ getName()</text>
<text text-anchor="start" x="96" y="-222.5" font-family="Helvetica,sans-Serif" font-size="10.00">+ insert()</text>
<text text-anchor="start" x="96" y="-211.5" font-family="Helvetica,sans-Serif" font-size="10.00">+ insert()</text>
<text text-anchor="start" x="96" y="-200.5" font-family="Helvetica,sans-Serif" font-size="10.00">+ remove()</text>
<text text-anchor="start" x="96" y="-189.5" font-family="Helvetica,sans-Serif" font-size="10.00">+ get()</text>
<text text-anchor="start" x="96" y="-178.5" font-family="Helvetica,sans-Serif" font-size="10.00">+ iterator()</text>
</a>
</g>
</g>
<!-- Node5&#45;&gt;Node4 -->
<g id="edge1" class="edge"><title>Node5&#45;&gt;Node4</title>
<path fill="none" stroke="midnightblue" d="M166.508,-161.797C172.589,-149.012 178.83,-135.89 184.697,-123.555"/>
<polygon fill="none" stroke="midnightblue" points="163.25,-160.497 162.116,-171.031 169.572,-163.504 163.25,-160.497"/>
</g>
<!-- Node6 -->
<g id="node3" class="node"><title>Node6</title>
<g id="a_node3"><a xlink:href="classProtectedLinkedList.html" target="_top" xlink:title="Doubly&#45;linked list implementation with dynamic memory allocation. ">
<polygon fill="none" stroke="black" points="67,-343.5 67,-554.5 194,-554.5 194,-343.5 67,-343.5"/>
<text text-anchor="middle" x="130.5" y="-542.5" font-family="Helvetica,sans-Serif" font-size="10.00">ProtectedLinkedList&lt; T &gt;</text>
<polyline fill="none" stroke="black" points="67,-535.5 194,-535.5 "/>
<text text-anchor="middle" x="130.5" y="-523.5" font-family="Helvetica,sans-Serif" font-size="10.00"> </text>
<polyline fill="none" stroke="black" points="67,-516.5 194,-516.5 "/>
<text text-anchor="start" x="75" y="-504.5" font-family="Helvetica,sans-Serif" font-size="10.00">+ getName()</text>
<text text-anchor="start" x="75" y="-493.5" font-family="Helvetica,sans-Serif" font-size="10.00">+ ProtectedLinkedList()</text>
<text text-anchor="start" x="75" y="-482.5" font-family="Helvetica,sans-Serif" font-size="10.00">+ ~ProtectedLinkedList()</text>
<text text-anchor="start" x="75" y="-471.5" font-family="Helvetica,sans-Serif" font-size="10.00">+ getSize()</text>
<text text-anchor="start" x="75" y="-460.5" font-family="Helvetica,sans-Serif" font-size="10.00">+ isEmpty()</text>
<text text-anchor="start" x="75" y="-449.5" font-family="Helvetica,sans-Serif" font-size="10.00">+ isFull()</text>
<text text-anchor="start" x="75" y="-438.5" font-family="Helvetica,sans-Serif" font-size="10.00"># getNode()</text>
<text text-anchor="start" x="75" y="-427.5" font-family="Helvetica,sans-Serif" font-size="10.00"># ProtectedLinkedList()</text>
<text text-anchor="start" x="75" y="-416.5" font-family="Helvetica,sans-Serif" font-size="10.00"># getFirst()</text>
<text text-anchor="start" x="75" y="-405.5" font-family="Helvetica,sans-Serif" font-size="10.00"># getLast()</text>
<text text-anchor="start" x="75" y="-394.5" font-family="Helvetica,sans-Serif" font-size="10.00"># insert()</text>
<text text-anchor="start" x="75" y="-383.5" font-family="Helvetica,sans-Serif" font-size="10.00"># insert()</text>
<text text-anchor="start" x="75" y="-372.5" font-family="Helvetica,sans-Serif" font-size="10.00"># remove()</text>
<text text-anchor="start" x="75" y="-361.5" font-family="Helvetica,sans-Serif" font-size="10.00"># get()</text>
<text text-anchor="start" x="75" y="-350.5" font-family="Helvetica,sans-Serif" font-size="10.00"># iterator()</text>
</a>
</g>
</g>
<!-- Node6&#45;&gt;Node5 -->
<g id="edge2" class="edge"><title>Node6&#45;&gt;Node5</title>
<path fill="none" stroke="midnightblue" d="M130.5,-333.178C130.5,-323.745 130.5,-314.428 130.5,-305.542"/>
<polygon fill="none" stroke="midnightblue" points="127,-333.445 130.5,-343.445 134,-333.445 127,-333.445"/>
</g>
<!-- Node7 -->
<g id="node4" class="node"><title>Node7</title>
<g id="a_node4"><a xlink:href="classDataStructure.html" target="_top" xlink:title="Base class for all data structures. ">
<polygon fill="none" stroke="black" points="0,-613.5 0,-703.5 77,-703.5 77,-613.5 0,-613.5"/>
<text text-anchor="middle" x="38.5" y="-691.5" font-family="Helvetica,sans-Serif" font-size="10.00">DataStructure</text>
<polyline fill="none" stroke="black" points="0,-684.5 77,-684.5 "/>
<text text-anchor="middle" x="38.5" y="-672.5" font-family="Helvetica,sans-Serif" font-size="10.00"> </text>
<polyline fill="none" stroke="black" points="0,-665.5 77,-665.5 "/>
<text text-anchor="start" x="8" y="-653.5" font-family="Helvetica,sans-Serif" font-size="10.00">+ getSize()</text>
<text text-anchor="start" x="8" y="-642.5" font-family="Helvetica,sans-Serif" font-size="10.00">+ getName()</text>
<text text-anchor="start" x="8" y="-631.5" font-family="Helvetica,sans-Serif" font-size="10.00">+ isEmpty()</text>
<text text-anchor="start" x="8" y="-620.5" font-family="Helvetica,sans-Serif" font-size="10.00">+ isFull()</text>
</a>
</g>
</g>
<!-- Node7&#45;&gt;Node6 -->
<g id="edge3" class="edge"><title>Node7&#45;&gt;Node6</title>
<path fill="none" stroke="midnightblue" d="M62.1072,-604.255C68.8759,-588.989 76.5002,-571.793 84.1378,-554.567"/>
<polygon fill="none" stroke="midnightblue" points="58.8645,-602.934 58.0108,-613.495 65.2637,-605.771 58.8645,-602.934"/>
</g>
<!-- Node8 -->
<g id="node5" class="node"><title>Node8</title>
<polygon fill="none" stroke="#bfbfbf" points="95,-630 95,-687 166,-687 166,-630 95,-630"/>
<text text-anchor="middle" x="130.5" y="-675" font-family="Helvetica,sans-Serif" font-size="10.00">Node&lt; T &gt; *</text>
<polyline fill="none" stroke="#bfbfbf" points="95,-668 166,-668 "/>
<text text-anchor="middle" x="130.5" y="-656" font-family="Helvetica,sans-Serif" font-size="10.00"> </text>
<polyline fill="none" stroke="#bfbfbf" points="95,-649 166,-649 "/>
<text text-anchor="middle" x="130.5" y="-637" font-family="Helvetica,sans-Serif" font-size="10.00"> </text>
</g>
<!-- Node8&#45;&gt;Node6 -->
<g id="edge4" class="edge"><title>Node8&#45;&gt;Node6</title>
<path fill="none" stroke="#404040" d="M130.5,-629.946C130.5,-613.159 130.5,-590.44 130.5,-566.803"/>
<polygon fill="none" stroke="#404040" points="130.5,-566.769 126.5,-560.769 130.5,-554.769 134.5,-560.769 130.5,-566.769"/>
<text text-anchor="middle" x="141.5" y="-587" font-family="Helvetica,sans-Serif" font-size="10.00"> &#45;last</text>
<text text-anchor="middle" x="141.5" y="-576" font-family="Helvetica,sans-Serif" font-size="10.00">&#45;first</text>
</g>
<!-- Node9 -->
<g id="node6" class="node"><title>Node9</title>
<polygon fill="none" stroke="#bfbfbf" points="184,-630 184,-687 213,-687 213,-630 184,-630"/>
<text text-anchor="middle" x="198.5" y="-675" font-family="Helvetica,sans-Serif" font-size="10.00">int</text>
<polyline fill="none" stroke="#bfbfbf" points="184,-668 213,-668 "/>
<text text-anchor="middle" x="198.5" y="-656" font-family="Helvetica,sans-Serif" font-size="10.00"> </text>
<polyline fill="none" stroke="#bfbfbf" points="184,-649 213,-649 "/>
<text text-anchor="middle" x="198.5" y="-637" font-family="Helvetica,sans-Serif" font-size="10.00"> </text>
</g>
<!-- Node9&#45;&gt;Node6 -->
<g id="edge5" class="edge"><title>Node9&#45;&gt;Node6</title>
<path fill="none" stroke="#404040" d="M189.47,-629.946C183.944,-613.082 176.456,-590.233 168.672,-566.48"/>
<polygon fill="none" stroke="#404040" points="168.571,-566.172 162.901,-561.716 164.834,-554.769 170.503,-559.225 168.571,-566.172"/>
<text text-anchor="middle" x="190" y="-581.5" font-family="Helvetica,sans-Serif" font-size="10.00"> &#45;size</text>
</g>
<!-- Node10 -->
<g id="node7" class="node"><title>Node10</title>
<polygon fill="none" stroke="#bfbfbf" points="191.5,-210 191.5,-267 291.5,-267 291.5,-210 191.5,-210"/>
<text text-anchor="middle" x="241.5" y="-255" font-family="Helvetica,sans-Serif" font-size="10.00">function&lt; int(T, T)&gt;</text>
<polyline fill="none" stroke="#bfbfbf" points="191.5,-248 291.5,-248 "/>
<text text-anchor="middle" x="241.5" y="-236" font-family="Helvetica,sans-Serif" font-size="10.00"> </text>
<polyline fill="none" stroke="#bfbfbf" points="191.5,-229 291.5,-229 "/>
<text text-anchor="middle" x="241.5" y="-217" font-family="Helvetica,sans-Serif" font-size="10.00"> </text>
</g>
<!-- Node10&#45;&gt;Node4 -->
<g id="edge6" class="edge"><title>Node10&#45;&gt;Node4</title>
<path fill="none" stroke="#404040" d="M237.063,-209.85C233.854,-189.849 229.36,-161.843 225.157,-135.646"/>
<polygon fill="none" stroke="#404040" points="225.153,-135.62 220.252,-130.329 223.251,-123.771 228.151,-129.062 225.153,-135.62"/>
<text text-anchor="middle" x="249.5" y="-145" font-family="Helvetica,sans-Serif" font-size="10.00"> &#45;compare</text>
</g>
</g>
</svg>
