<?xml version="1.0" encoding="UTF-8" standalone="no"?>
<!DOCTYPE svg PUBLIC "-//W3C//DTD SVG 1.1//EN"
 "http://www.w3.org/Graphics/SVG/1.1/DTD/svg11.dtd">
<!-- Generated by graphviz version 2.38.0 (20140413.2041)
 -->
<!-- Title: ProtectedLinkedList&lt; T &gt; Pages: 1 -->
<svg width="346pt" height="711pt"
 viewBox="0.00 0.00 345.50 711.00" xmlns="http://www.w3.org/2000/svg" xmlns:xlink="http://www.w3.org/1999/xlink">
<g id="graph0" class="graph" transform="scale(1 1) rotate(0) translate(4 707)">
<title>ProtectedLinkedList&lt; T &gt;</title>
<!-- Node0 -->
<g id="node1" class="node"><title>Node0</title>
<polygon fill="#bfbfbf" stroke="black" points="115.5,-342.5 115.5,-575.5 242.5,-575.5 242.5,-342.5 115.5,-342.5"/>
<text text-anchor="middle" x="179" y="-563.5" font-family="Helvetica,sans-Serif" font-size="10.00">ProtectedLinkedList&lt; T &gt;</text>
<polyline fill="none" stroke="black" points="115.5,-556.5 242.5,-556.5 "/>
<text text-anchor="start" x="123.5" y="-544.5" font-family="Helvetica,sans-Serif" font-size="10.00">&#45; first</text>
<text text-anchor="start" x="123.5" y="-533.5" font-family="Helvetica,sans-Serif" font-size="10.00">&#45; last</text>
<text text-anchor="start" x="123.5" y="-522.5" font-family="Helvetica,sans-Serif" font-size="10.00">&#45; size</text>
<polyline fill="none" stroke="black" points="115.5,-515.5 242.5,-515.5 "/>
<text text-anchor="start" x="123.5" y="-503.5" font-family="Helvetica,sans-Serif" font-size="10.00">+ getName()</text>
<text text-anchor="start" x="123.5" y="-492.5" font-family="Helvetica,sans-Serif" font-size="10.00">+ ProtectedLinkedList()</text>
<text text-anchor="start" x="123.5" y="-481.5" font-family="Helvetica,sans-Serif" font-size="10.00">+ ~ProtectedLinkedList()</text>
<text text-anchor="start" x="123.5" y="-470.5" font-family="Helvetica,sans-Serif" font-size="10.00">+ getSize()</text>
<text text-anchor="start" x="123.5" y="-459.5" font-family="Helvetica,sans-Serif" font-size="10.00">+ isEmpty()</text>
<text text-anchor="start" x="123.5" y="-448.5" font-family="Helvetica,sans-Serif" font-size="10.00">+ isFull()</text>
<text text-anchor="start" x="123.5" y="-437.5" font-family="Helvetica,sans-Serif" font-size="10.00"># getNode()</text>
<text text-anchor="start" x="123.5" y="-426.5" font-family="Helvetica,sans-Serif" font-size="10.00"># ProtectedLinkedList()</text>
<text text-anchor="start" x="123.5" y="-415.5" font-family="Helvetica,sans-Serif" font-size="10.00"># getFirst()</text>
<text text-anchor="start" x="123.5" y="-404.5" font-family="Helvetica,sans-Serif" font-size="10.00"># getLast()</text>
<text text-anchor="start" x="123.5" y="-393.5" font-family="Helvetica,sans-Serif" font-size="10.00"># insert()</text>
<text text-anchor="start" x="123.5" y="-382.5" font-family="Helvetica,sans-Serif" font-size="10.00"># insert()</text>
<text text-anchor="start" x="123.5" y="-371.5" font-family="Helvetica,sans-Serif" font-size="10.00"># remove()</text>
<text text-anchor="start" x="123.5" y="-360.5" font-family="Helvetica,sans-Serif" font-size="10.00"># get()</text>
<text text-anchor="start" x="123.5" y="-349.5" font-family="Helvetica,sans-Serif" font-size="10.00"># iterator()</text>
</g>
<!-- Node2 -->
<g id="node3" class="node"><title>Node2</title>
<g id="a_node3"><a xlink:href="classDynamicQueue.html" target="_top" xlink:title="Queue implementation with dynamic memory allocation. ">
<polygon fill="none" stroke="black" points="0,-160.5 0,-305.5 108,-305.5 108,-160.5 0,-160.5"/>
<text text-anchor="middle" x="54" y="-293.5" font-family="Helvetica,sans-Serif" font-size="10.00">DynamicQueue&lt; T &gt;</text>
<polyline fill="none" stroke="black" points="0,-286.5 108,-286.5 "/>
<text text-anchor="middle" x="54" y="-274.5" font-family="Helvetica,sans-Serif" font-size="10.00"> </text>
<polyline fill="none" stroke="black" points="0,-267.5 108,-267.5 "/>
<text text-anchor="start" x="8" y="-255.5" font-family="Helvetica,sans-Serif" font-size="10.00">+ getName()</text>
<text text-anchor="start" x="8" y="-244.5" font-family="Helvetica,sans-Serif" font-size="10.00">+ DynamicQueue()</text>
<text text-anchor="start" x="8" y="-233.5" font-family="Helvetica,sans-Serif" font-size="10.00">+ DynamicQueue()</text>
<text text-anchor="start" x="8" y="-222.5" font-family="Helvetica,sans-Serif" font-size="10.00">+ enqueue()</text>
<text text-anchor="start" x="8" y="-211.5" font-family="Helvetica,sans-Serif" font-size="10.00">+ dequeue()</text>
<text text-anchor="start" x="8" y="-200.5" font-family="Helvetica,sans-Serif" font-size="10.00">+ peek()</text>
<text text-anchor="start" x="8" y="-189.5" font-family="Helvetica,sans-Serif" font-size="10.00">+ getSize()</text>
<text text-anchor="start" x="8" y="-178.5" font-family="Helvetica,sans-Serif" font-size="10.00">+ isEmpty()</text>
<text text-anchor="start" x="8" y="-167.5" font-family="Helvetica,sans-Serif" font-size="10.00">+ isFull()</text>
</a>
</g>
</g>
<!-- Node0&#45;&gt;Node2 -->
<g id="edge2" class="edge"><title>Node0&#45;&gt;Node2</title>
<path fill="none" stroke="midnightblue" d="M110.449,-335.157C104.827,-325.083 99.2719,-315.127 93.9664,-305.62"/>
<polygon fill="none" stroke="midnightblue" points="107.472,-337.005 115.401,-344.031 113.585,-333.593 107.472,-337.005"/>
</g>
<!-- Node3 -->
<g id="node4" class="node"><title>Node3</title>
<g id="a_node4"><a xlink:href="classDynamicStack.html" target="_top" xlink:title="Stack implementation with dynamic memory allocation. ">
<polygon fill="none" stroke="black" points="126.5,-160.5 126.5,-305.5 231.5,-305.5 231.5,-160.5 126.5,-160.5"/>
<text text-anchor="middle" x="179" y="-293.5" font-family="Helvetica,sans-Serif" font-size="10.00">DynamicStack&lt; T &gt;</text>
<polyline fill="none" stroke="black" points="126.5,-286.5 231.5,-286.5 "/>
<text text-anchor="middle" x="179" y="-274.5" font-family="Helvetica,sans-Serif" font-size="10.00"> </text>
<polyline fill="none" stroke="black" points="126.5,-267.5 231.5,-267.5 "/>
<text text-anchor="start" x="134.5" y="-255.5" font-family="Helvetica,sans-Serif" font-size="10.00">+ DynamicStack()</text>
<text text-anchor="start" x="134.5" y="-244.5" font-family="Helvetica,sans-Serif" font-size="10.00">+ DynamicStack()</text>
<text text-anchor="start" x="134.5" y="-233.5" font-family="Helvetica,sans-Serif" font-size="10.00">+ getName()</text>
<text text-anchor="start" x="134.5" y="-222.5" font-family="Helvetica,sans-Serif" font-size="10.00">+ push()</text>
<text text-anchor="start" x="134.5" y="-211.5" font-family="Helvetica,sans-Serif" font-size="10.00">+ pop()</text>
<text text-anchor="start" x="134.5" y="-200.5" font-family="Helvetica,sans-Serif" font-size="10.00">+ peek()</text>
<text text-anchor="start" x="134.5" y="-189.5" font-family="Helvetica,sans-Serif" font-size="10.00">+ getSize()</text>
<text text-anchor="start" x="134.5" y="-178.5" font-family="Helvetica,sans-Serif" font-size="10.00">+ isEmpty()</text>
<text text-anchor="start" x="134.5" y="-167.5" font-family="Helvetica,sans-Serif" font-size="10.00">+ isFull()</text>
</a>
</g>
</g>
<!-- Node0&#45;&gt;Node3 -->
<g id="edge3" class="edge"><title>Node0&#45;&gt;Node3</title>
<path fill="none" stroke="midnightblue" d="M179,-332.15C179,-323.114 179,-314.201 179,-305.649"/>
<polygon fill="none" stroke="midnightblue" points="175.5,-332.391 179,-342.391 182.5,-332.391 175.5,-332.391"/>
</g>
<!-- Node4 -->
<g id="node5" class="node"><title>Node4</title>
<g id="a_node5"><a xlink:href="classLinkedList.html" target="_top" xlink:title="Doubly&#45;linked list implementation with dynamic memory allocation. ">
<polygon fill="none" stroke="black" points="249.5,-166 249.5,-300 334.5,-300 334.5,-166 249.5,-166"/>
<text text-anchor="middle" x="292" y="-288" font-family="Helvetica,sans-Serif" font-size="10.00">LinkedList&lt; T &gt;</text>
<polyline fill="none" stroke="black" points="249.5,-281 334.5,-281 "/>
<text text-anchor="middle" x="292" y="-269" font-family="Helvetica,sans-Serif" font-size="10.00"> </text>
<polyline fill="none" stroke="black" points="249.5,-262 334.5,-262 "/>
<text text-anchor="start" x="257.5" y="-250" font-family="Helvetica,sans-Serif" font-size="10.00">+ LinkedList()</text>
<text text-anchor="start" x="257.5" y="-239" font-family="Helvetica,sans-Serif" font-size="10.00">+ LinkedList()</text>
<text text-anchor="start" x="257.5" y="-228" font-family="Helvetica,sans-Serif" font-size="10.00">+ getName()</text>
<text text-anchor="start" x="257.5" y="-217" font-family="Helvetica,sans-Serif" font-size="10.00">+ insert()</text>
<text text-anchor="start" x="257.5" y="-206" font-family="Helvetica,sans-Serif" font-size="10.00">+ insert()</text>
<text text-anchor="start" x="257.5" y="-195" font-family="Helvetica,sans-Serif" font-size="10.00">+ remove()</text>
<text text-anchor="start" x="257.5" y="-184" font-family="Helvetica,sans-Serif" font-size="10.00">+ get()</text>
<text text-anchor="start" x="257.5" y="-173" font-family="Helvetica,sans-Serif" font-size="10.00">+ iterator()</text>
</a>
</g>
</g>
<!-- Node0&#45;&gt;Node4 -->
<g id="edge4" class="edge"><title>Node0&#45;&gt;Node4</title>
<path fill="none" stroke="midnightblue" d="M241.921,-333.272C247.639,-321.937 253.268,-310.778 258.57,-300.268"/>
<polygon fill="none" stroke="midnightblue" points="238.7,-331.886 237.321,-342.391 244.949,-335.039 238.7,-331.886"/>
</g>
<!-- Node1 -->
<g id="node2" class="node"><title>Node1</title>
<g id="a_node2"><a xlink:href="classDataStructure.html" target="_top" xlink:title="Base class for all data structures. ">
<polygon fill="none" stroke="black" points="140.5,-612.5 140.5,-702.5 217.5,-702.5 217.5,-612.5 140.5,-612.5"/>
<text text-anchor="middle" x="179" y="-690.5" font-family="Helvetica,sans-Serif" font-size="10.00">DataStructure</text>
<polyline fill="none" stroke="black" points="140.5,-683.5 217.5,-683.5 "/>
<text text-anchor="middle" x="179" y="-671.5" font-family="Helvetica,sans-Serif" font-size="10.00"> </text>
<polyline fill="none" stroke="black" points="140.5,-664.5 217.5,-664.5 "/>
<text text-anchor="start" x="148.5" y="-652.5" font-family="Helvetica,sans-Serif" font-size="10.00">+ getSize()</text>
<text text-anchor="start" x="148.5" y="-641.5" font-family="Helvetica,sans-Serif" font-size="10.00">+ getName()</text>
<text text-anchor="start" x="148.5" y="-630.5" font-family="Helvetica,sans-Serif" font-size="10.00">+ isEmpty()</text>
<text text-anchor="start" x="148.5" y="-619.5" font-family="Helvetica,sans-Serif" font-size="10.00">+ isFull()</text>
</a>
</g>
</g>
<!-- Node1&#45;&gt;Node0 -->
<g id="edge1" class="edge"><title>Node1&#45;&gt;Node0</title>
<path fill="none" stroke="midnightblue" d="M179,-602.368C179,-593.898 179,-584.877 179,-575.644"/>
<polygon fill="none" stroke="midnightblue" points="175.5,-602.402 179,-612.402 182.5,-602.402 175.5,-602.402"/>
</g>
<!-- Node5 -->
<g id="node6" class="node"><title>Node5</title>
<g id="a_node6"><a xlink:href="classOrderedList.html" target="_top" xlink:title="Doubly&#45;linked ordered list implementation with dynamic memory allocation. ">
<polygon fill="none" stroke="black" points="246.5,-0.5 246.5,-123.5 337.5,-123.5 337.5,-0.5 246.5,-0.5"/>
<text text-anchor="middle" x="292" y="-111.5" font-family="Helvetica,sans-Serif" font-size="10.00">OrderedList&lt; T &gt;</text>
<polyline fill="none" stroke="black" points="246.5,-104.5 337.5,-104.5 "/>
<text text-anchor="start" x="254.5" y="-92.5" font-family="Helvetica,sans-Serif" font-size="10.00">&#45; compare</text>
<polyline fill="none" stroke="black" points="246.5,-85.5 337.5,-85.5 "/>
<text text-anchor="start" x="254.5" y="-73.5" font-family="Helvetica,sans-Serif" font-size="10.00">+ getName()</text>
<text text-anchor="start" x="254.5" y="-62.5" font-family="Helvetica,sans-Serif" font-size="10.00">+ OrderedList()</text>
<text text-anchor="start" x="254.5" y="-51.5" font-family="Helvetica,sans-Serif" font-size="10.00">+ OrderedList()</text>
<text text-anchor="start" x="254.5" y="-40.5" font-family="Helvetica,sans-Serif" font-size="10.00">+ insert()</text>
<text text-anchor="start" x="254.5" y="-29.5" font-family="Helvetica,sans-Serif" font-size="10.00">+ insert()</text>
<text text-anchor="start" x="254.5" y="-18.5" font-family="Helvetica,sans-Serif" font-size="10.00">+ remove()</text>
<text text-anchor="start" x="254.5" y="-7.5" font-family="Helvetica,sans-Serif" font-size="10.00">+ get()</text>
</a>
</g>
</g>
<!-- Node4&#45;&gt;Node5 -->
<g id="edge5" class="edge"><title>Node4&#45;&gt;Node5</title>
<path fill="none" stroke="midnightblue" d="M292,-155.515C292,-144.823 292,-133.957 292,-123.612"/>
<polygon fill="none" stroke="midnightblue" points="288.5,-155.692 292,-165.692 295.5,-155.692 288.5,-155.692"/>
</g>
</g>
</svg>
