<?xml version="1.0" encoding="UTF-8" standalone="no"?>
<!DOCTYPE svg PUBLIC "-//W3C//DTD SVG 1.1//EN"
 "http://www.w3.org/Graphics/SVG/1.1/DTD/svg11.dtd">
<!-- Generated by graphviz version 2.38.0 (20140413.2041)
 -->
<!-- Title: include/DataStructure.hpp Pages: 1 -->
<svg width="593pt" height="252pt"
 viewBox="0.00 0.00 592.50 252.00" xmlns="http://www.w3.org/2000/svg" xmlns:xlink="http://www.w3.org/1999/xlink">
<g id="graph0" class="graph" transform="scale(1 1) rotate(0) translate(4 248)">
<title>include/DataStructure.hpp</title>
<!-- Node2 -->
<g id="node1" class="node"><title>Node2</title>
<polygon fill="#bfbfbf" stroke="black" points="225,-224.5 225,-243.5 355,-243.5 355,-224.5 225,-224.5"/>
<text text-anchor="middle" x="290" y="-231.5" font-family="Helvetica,sans-Serif" font-size="10.00">include/DataStructure.hpp</text>
</g>
<!-- Node3 -->
<g id="node2" class="node"><title>Node3</title>
<g id="a_node2"><a xlink:href="Stack_8hpp.html" target="_top" xlink:title="include/Stack.hpp">
<polygon fill="none" stroke="black" points="99.5,-168.5 99.5,-187.5 194.5,-187.5 194.5,-168.5 99.5,-168.5"/>
<text text-anchor="middle" x="147" y="-175.5" font-family="Helvetica,sans-Serif" font-size="10.00">include/Stack.hpp</text>
</a>
</g>
</g>
<!-- Node2&#45;&gt;Node3 -->
<g id="edge1" class="edge"><title>Node2&#45;&gt;Node3</title>
<path fill="none" stroke="midnightblue" d="M257.973,-220.906C231.088,-210.754 193.359,-196.506 169.553,-187.516"/>
<polygon fill="midnightblue" stroke="midnightblue" points="256.75,-224.185 267.341,-224.444 259.222,-217.636 256.75,-224.185"/>
</g>
<!-- Node7 -->
<g id="node6" class="node"><title>Node7</title>
<g id="a_node6"><a xlink:href="ProtectedLinkedList_8hpp.html" target="_top" xlink:title="include/ProtectedLinkedList.hpp">
<polygon fill="none" stroke="black" points="212.5,-168.5 212.5,-187.5 367.5,-187.5 367.5,-168.5 212.5,-168.5"/>
<text text-anchor="middle" x="290" y="-175.5" font-family="Helvetica,sans-Serif" font-size="10.00">include/ProtectedLinkedList.hpp</text>
</a>
</g>
</g>
<!-- Node2&#45;&gt;Node7 -->
<g id="edge6" class="edge"><title>Node2&#45;&gt;Node7</title>
<path fill="none" stroke="midnightblue" d="M290,-213.805C290,-204.91 290,-194.78 290,-187.751"/>
<polygon fill="midnightblue" stroke="midnightblue" points="286.5,-214.083 290,-224.083 293.5,-214.083 286.5,-214.083"/>
</g>
<!-- Node11 -->
<g id="node10" class="node"><title>Node11</title>
<g id="a_node10"><a xlink:href="Queue_8hpp.html" target="_top" xlink:title="include/Queue.hpp">
<polygon fill="none" stroke="black" points="386,-168.5 386,-187.5 484,-187.5 484,-168.5 386,-168.5"/>
<text text-anchor="middle" x="435" y="-175.5" font-family="Helvetica,sans-Serif" font-size="10.00">include/Queue.hpp</text>
</a>
</g>
</g>
<!-- Node2&#45;&gt;Node11 -->
<g id="edge14" class="edge"><title>Node2&#45;&gt;Node11</title>
<path fill="none" stroke="midnightblue" d="M322.475,-220.906C349.736,-210.754 387.992,-196.506 412.132,-187.516"/>
<polygon fill="midnightblue" stroke="midnightblue" points="321.125,-217.674 312.976,-224.444 323.568,-224.233 321.125,-217.674"/>
</g>
<!-- Node4 -->
<g id="node3" class="node"><title>Node4</title>
<g id="a_node3"><a xlink:href="DynamicStack_8hpp.html" target="_top" xlink:title="include/DynamicStack.hpp">
<polygon fill="none" stroke="black" points="81,-112.5 81,-131.5 215,-131.5 215,-112.5 81,-112.5"/>
<text text-anchor="middle" x="148" y="-119.5" font-family="Helvetica,sans-Serif" font-size="10.00">include/DynamicStack.hpp</text>
</a>
</g>
</g>
<!-- Node3&#45;&gt;Node4 -->
<g id="edge2" class="edge"><title>Node3&#45;&gt;Node4</title>
<path fill="none" stroke="midnightblue" d="M147.355,-157.805C147.52,-148.91 147.708,-138.78 147.838,-131.751"/>
<polygon fill="midnightblue" stroke="midnightblue" points="143.851,-158.02 147.165,-168.083 150.85,-158.15 143.851,-158.02"/>
</g>
<!-- Node6 -->
<g id="node5" class="node"><title>Node6</title>
<g id="a_node5"><a xlink:href="StaticStack_8hpp.html" target="_top" xlink:title="include/StaticStack.hpp">
<polygon fill="none" stroke="black" points="0,-56.5 0,-75.5 120,-75.5 120,-56.5 0,-56.5"/>
<text text-anchor="middle" x="60" y="-63.5" font-family="Helvetica,sans-Serif" font-size="10.00">include/StaticStack.hpp</text>
</a>
</g>
</g>
<!-- Node3&#45;&gt;Node6 -->
<g id="edge4" class="edge"><title>Node3&#45;&gt;Node6</title>
<path fill="none" stroke="midnightblue" d="M112.805,-164.113C98.0549,-156.858 81.9396,-146.329 72,-132 60.096,-114.839 59.0528,-89.2259 59.4444,-75.852"/>
<polygon fill="midnightblue" stroke="midnightblue" points="111.671,-167.443 122.222,-168.414 114.58,-161.076 111.671,-167.443"/>
</g>
<!-- Node5 -->
<g id="node4" class="node"><title>Node5</title>
<g id="a_node4"><a xlink:href="main_8cpp.html" target="_top" xlink:title="test/main.cpp">
<polygon fill="none" stroke="black" points="276,-0.5 276,-19.5 352,-19.5 352,-0.5 276,-0.5"/>
<text text-anchor="middle" x="314" y="-7.5" font-family="Helvetica,sans-Serif" font-size="10.00">test/main.cpp</text>
</a>
</g>
</g>
<!-- Node4&#45;&gt;Node5 -->
<g id="edge3" class="edge"><title>Node4&#45;&gt;Node5</title>
<path fill="none" stroke="midnightblue" d="M158.499,-103.71C168.03,-89.2651 183.279,-68.9986 201,-56 224.838,-38.5148 256.398,-26.6958 280.105,-19.5749"/>
<polygon fill="midnightblue" stroke="midnightblue" points="155.497,-101.909 153.092,-112.228 161.407,-105.661 155.497,-101.909"/>
</g>
<!-- Node6&#45;&gt;Node5 -->
<g id="edge5" class="edge"><title>Node6&#45;&gt;Node5</title>
<path fill="none" stroke="midnightblue" d="M110.236,-54.32C158.842,-43.9864 231.458,-28.5484 275.604,-19.1629"/>
<polygon fill="midnightblue" stroke="midnightblue" points="109.301,-50.9405 100.247,-56.4435 110.756,-57.7874 109.301,-50.9405"/>
</g>
<!-- Node7&#45;&gt;Node4 -->
<g id="edge7" class="edge"><title>Node7&#45;&gt;Node4</title>
<path fill="none" stroke="midnightblue" d="M257.845,-164.772C231.172,-154.629 193.931,-140.467 170.395,-131.516"/>
<polygon fill="midnightblue" stroke="midnightblue" points="256.909,-168.16 267.5,-168.444 259.397,-161.618 256.909,-168.16"/>
</g>
<!-- Node8 -->
<g id="node7" class="node"><title>Node8</title>
<g id="a_node7"><a xlink:href="DynamicQueue_8hpp.html" target="_top" xlink:title="include/DynamicQueue.hpp">
<polygon fill="none" stroke="black" points="365.5,-112.5 365.5,-131.5 502.5,-131.5 502.5,-112.5 365.5,-112.5"/>
<text text-anchor="middle" x="434" y="-119.5" font-family="Helvetica,sans-Serif" font-size="10.00">include/DynamicQueue.hpp</text>
</a>
</g>
</g>
<!-- Node7&#45;&gt;Node8 -->
<g id="edge8" class="edge"><title>Node7&#45;&gt;Node8</title>
<path fill="none" stroke="midnightblue" d="M322.251,-164.906C349.324,-154.754 387.317,-140.506 411.29,-131.516"/>
<polygon fill="midnightblue" stroke="midnightblue" points="320.952,-161.655 312.817,-168.444 323.409,-168.209 320.952,-161.655"/>
</g>
<!-- Node9 -->
<g id="node8" class="node"><title>Node9</title>
<g id="a_node8"><a xlink:href="LinkedList_8hpp.html" target="_top" xlink:title="include/LinkedList.hpp">
<polygon fill="none" stroke="black" points="233,-112.5 233,-131.5 347,-131.5 347,-112.5 233,-112.5"/>
<text text-anchor="middle" x="290" y="-119.5" font-family="Helvetica,sans-Serif" font-size="10.00">include/LinkedList.hpp</text>
</a>
</g>
</g>
<!-- Node7&#45;&gt;Node9 -->
<g id="edge10" class="edge"><title>Node7&#45;&gt;Node9</title>
<path fill="none" stroke="midnightblue" d="M290,-157.805C290,-148.91 290,-138.78 290,-131.751"/>
<polygon fill="midnightblue" stroke="midnightblue" points="286.5,-158.083 290,-168.083 293.5,-158.083 286.5,-158.083"/>
</g>
<!-- Node8&#45;&gt;Node5 -->
<g id="edge9" class="edge"><title>Node8&#45;&gt;Node5</title>
<path fill="none" stroke="midnightblue" d="M417.104,-105.512C391.462,-82.0068 343.574,-38.1096 323.372,-19.5914"/>
<polygon fill="midnightblue" stroke="midnightblue" points="414.847,-108.191 424.584,-112.368 419.577,-103.031 414.847,-108.191"/>
</g>
<!-- Node9&#45;&gt;Node5 -->
<g id="edge11" class="edge"><title>Node9&#45;&gt;Node5</title>
<path fill="none" stroke="midnightblue" d="M312.635,-106.257C322.38,-98.5406 332.732,-88.1601 338,-76 346.608,-56.1315 331.246,-32.0681 321.366,-19.5315"/>
<polygon fill="midnightblue" stroke="midnightblue" points="310.356,-103.588 304.37,-112.33 314.501,-109.229 310.356,-103.588"/>
</g>
<!-- Node10 -->
<g id="node9" class="node"><title>Node10</title>
<g id="a_node9"><a xlink:href="OrderedList_8hpp.html" target="_top" xlink:title="include/OrderedList.hpp">
<polygon fill="none" stroke="black" points="210.5,-56.5 210.5,-75.5 329.5,-75.5 329.5,-56.5 210.5,-56.5"/>
<text text-anchor="middle" x="270" y="-63.5" font-family="Helvetica,sans-Serif" font-size="10.00">include/OrderedList.hpp</text>
</a>
</g>
</g>
<!-- Node9&#45;&gt;Node10 -->
<g id="edge12" class="edge"><title>Node9&#45;&gt;Node10</title>
<path fill="none" stroke="midnightblue" d="M283.218,-102.69C279.848,-93.589 275.931,-83.0141 273.241,-75.7511"/>
<polygon fill="midnightblue" stroke="midnightblue" points="279.942,-103.921 286.697,-112.083 286.506,-101.49 279.942,-103.921"/>
</g>
<!-- Node10&#45;&gt;Node5 -->
<g id="edge13" class="edge"><title>Node10&#45;&gt;Node5</title>
<path fill="none" stroke="midnightblue" d="M283.735,-48.144C291.401,-38.7357 300.633,-27.4046 306.869,-19.7511"/>
<polygon fill="midnightblue" stroke="midnightblue" points="280.869,-46.1198 277.266,-56.083 286.296,-50.5415 280.869,-46.1198"/>
</g>
<!-- Node11&#45;&gt;Node8 -->
<g id="edge17" class="edge"><title>Node11&#45;&gt;Node8</title>
<path fill="none" stroke="midnightblue" d="M434.645,-157.805C434.48,-148.91 434.292,-138.78 434.162,-131.751"/>
<polygon fill="midnightblue" stroke="midnightblue" points="431.15,-158.15 434.835,-168.083 438.149,-158.02 431.15,-158.15"/>
</g>
<!-- Node12 -->
<g id="node11" class="node"><title>Node12</title>
<g id="a_node11"><a xlink:href="StaticQueue_8hpp.html" target="_top" xlink:title="include/StaticQueue.hpp">
<polygon fill="none" stroke="black" points="461.5,-56.5 461.5,-75.5 584.5,-75.5 584.5,-56.5 461.5,-56.5"/>
<text text-anchor="middle" x="523" y="-63.5" font-family="Helvetica,sans-Serif" font-size="10.00">include/StaticQueue.hpp</text>
</a>
</g>
</g>
<!-- Node11&#45;&gt;Node12 -->
<g id="edge15" class="edge"><title>Node11&#45;&gt;Node12</title>
<path fill="none" stroke="midnightblue" d="M469.645,-164.214C484.59,-156.981 500.921,-146.44 511,-132 522.954,-114.874 523.976,-89.246 523.568,-75.8607"/>
<polygon fill="midnightblue" stroke="midnightblue" points="467.793,-161.209 460.103,-168.498 470.66,-167.595 467.793,-161.209"/>
</g>
<!-- Node12&#45;&gt;Node5 -->
<g id="edge16" class="edge"><title>Node12&#45;&gt;Node5</title>
<path fill="none" stroke="midnightblue" d="M480.016,-53.8941C440.548,-43.6966 382.9,-28.802 346.962,-19.5164"/>
<polygon fill="midnightblue" stroke="midnightblue" points="479.326,-57.3306 489.883,-56.4435 481.077,-50.5532 479.326,-57.3306"/>
</g>
</g>
</svg>
