<?xml version="1.0" encoding="UTF-8" standalone="no"?>
<!DOCTYPE svg PUBLIC "-//W3C//DTD SVG 1.1//EN"
 "http://www.w3.org/Graphics/SVG/1.1/DTD/svg11.dtd">
<!-- Generated by graphviz version 2.38.0 (20140413.2041)
 -->
<!-- Title: include/DataStructure.hpp Pages: 1 -->
<svg width="709pt" height="196pt"
 viewBox="0.00 0.00 708.50 196.00" xmlns="http://www.w3.org/2000/svg" xmlns:xlink="http://www.w3.org/1999/xlink">
<g id="graph0" class="graph" transform="scale(1 1) rotate(0) translate(4 192)">
<title>include/DataStructure.hpp</title>
<!-- Node2 -->
<g id="node1" class="node"><title>Node2</title>
<polygon fill="#bfbfbf" stroke="black" points="288.5,-168.5 288.5,-187.5 418.5,-187.5 418.5,-168.5 288.5,-168.5"/>
<text text-anchor="middle" x="353.5" y="-175.5" font-family="Helvetica,sans-Serif" font-size="10.00">include/DataStructure.hpp</text>
</g>
<!-- Node3 -->
<g id="node2" class="node"><title>Node3</title>
<g id="a_node2"><a xlink:href="Queue_8hpp.html" target="_top" xlink:title="include/Queue.hpp">
<polygon fill="none" stroke="black" points="159.5,-112.5 159.5,-131.5 257.5,-131.5 257.5,-112.5 159.5,-112.5"/>
<text text-anchor="middle" x="208.5" y="-119.5" font-family="Helvetica,sans-Serif" font-size="10.00">include/Queue.hpp</text>
</a>
</g>
</g>
<!-- Node2&#45;&gt;Node3 -->
<g id="edge1" class="edge"><title>Node2&#45;&gt;Node3</title>
<path fill="none" stroke="midnightblue" d="M321.025,-164.906C293.764,-154.754 255.508,-140.506 231.368,-131.516"/>
<polygon fill="midnightblue" stroke="midnightblue" points="319.932,-168.233 330.524,-168.444 322.375,-161.674 319.932,-168.233"/>
</g>
<!-- Node6 -->
<g id="node5" class="node"><title>Node6</title>
<g id="a_node5"><a xlink:href="ProtectedLinkedList_8hpp.html" target="_top" xlink:title="include/ProtectedLinkedList.hpp">
<polygon fill="none" stroke="black" points="276,-112.5 276,-131.5 431,-131.5 431,-112.5 276,-112.5"/>
<text text-anchor="middle" x="353.5" y="-119.5" font-family="Helvetica,sans-Serif" font-size="10.00">include/ProtectedLinkedList.hpp</text>
</a>
</g>
</g>
<!-- Node2&#45;&gt;Node6 -->
<g id="edge4" class="edge"><title>Node2&#45;&gt;Node6</title>
<path fill="none" stroke="midnightblue" d="M353.5,-157.805C353.5,-148.91 353.5,-138.78 353.5,-131.751"/>
<polygon fill="midnightblue" stroke="midnightblue" points="350,-158.083 353.5,-168.083 357,-158.083 350,-158.083"/>
</g>
<!-- Node10 -->
<g id="node9" class="node"><title>Node10</title>
<g id="a_node9"><a xlink:href="Stack_8hpp.html" target="_top" xlink:title="include/Stack.hpp">
<polygon fill="none" stroke="black" points="449,-112.5 449,-131.5 544,-131.5 544,-112.5 449,-112.5"/>
<text text-anchor="middle" x="496.5" y="-119.5" font-family="Helvetica,sans-Serif" font-size="10.00">include/Stack.hpp</text>
</a>
</g>
</g>
<!-- Node2&#45;&gt;Node10 -->
<g id="edge9" class="edge"><title>Node2&#45;&gt;Node10</title>
<path fill="none" stroke="midnightblue" d="M385.527,-164.906C412.412,-154.754 450.141,-140.506 473.947,-131.516"/>
<polygon fill="midnightblue" stroke="midnightblue" points="384.278,-161.636 376.159,-168.444 386.75,-168.185 384.278,-161.636"/>
</g>
<!-- Node4 -->
<g id="node3" class="node"><title>Node4</title>
<g id="a_node3"><a xlink:href="DynamicQueue_8hpp.html" target="_top" xlink:title="include/DynamicQueue.hpp">
<polygon fill="none" stroke="black" points="141,-56.5 141,-75.5 278,-75.5 278,-56.5 141,-56.5"/>
<text text-anchor="middle" x="209.5" y="-63.5" font-family="Helvetica,sans-Serif" font-size="10.00">include/DynamicQueue.hpp</text>
</a>
</g>
</g>
<!-- Node3&#45;&gt;Node4 -->
<g id="edge2" class="edge"><title>Node3&#45;&gt;Node4</title>
<path fill="none" stroke="midnightblue" d="M208.855,-101.805C209.02,-92.9102 209.208,-82.7798 209.338,-75.7511"/>
<polygon fill="midnightblue" stroke="midnightblue" points="205.351,-102.02 208.665,-112.083 212.35,-102.15 205.351,-102.02"/>
</g>
<!-- Node5 -->
<g id="node4" class="node"><title>Node5</title>
<g id="a_node4"><a xlink:href="StaticQueue_8hpp.html" target="_top" xlink:title="include/StaticQueue.hpp">
<polygon fill="none" stroke="black" points="0,-56.5 0,-75.5 123,-75.5 123,-56.5 0,-56.5"/>
<text text-anchor="middle" x="61.5" y="-63.5" font-family="Helvetica,sans-Serif" font-size="10.00">include/StaticQueue.hpp</text>
</a>
</g>
</g>
<!-- Node3&#45;&gt;Node5 -->
<g id="edge3" class="edge"><title>Node3&#45;&gt;Node5</title>
<path fill="none" stroke="midnightblue" d="M175.577,-108.906C147.94,-98.7536 109.156,-84.5063 84.6836,-75.5164"/>
<polygon fill="midnightblue" stroke="midnightblue" points="174.614,-112.281 185.207,-112.444 177.028,-105.71 174.614,-112.281"/>
</g>
<!-- Node6&#45;&gt;Node4 -->
<g id="edge5" class="edge"><title>Node6&#45;&gt;Node4</title>
<path fill="none" stroke="midnightblue" d="M321.249,-108.906C294.176,-98.7536 256.183,-84.5063 232.21,-75.5164"/>
<polygon fill="midnightblue" stroke="midnightblue" points="320.091,-112.209 330.683,-112.444 322.548,-105.655 320.091,-112.209"/>
</g>
<!-- Node7 -->
<g id="node6" class="node"><title>Node7</title>
<g id="a_node6"><a xlink:href="DynamicStack_8hpp.html" target="_top" xlink:title="include/DynamicStack.hpp">
<polygon fill="none" stroke="black" points="428.5,-56.5 428.5,-75.5 562.5,-75.5 562.5,-56.5 428.5,-56.5"/>
<text text-anchor="middle" x="495.5" y="-63.5" font-family="Helvetica,sans-Serif" font-size="10.00">include/DynamicStack.hpp</text>
</a>
</g>
</g>
<!-- Node6&#45;&gt;Node7 -->
<g id="edge6" class="edge"><title>Node6&#45;&gt;Node7</title>
<path fill="none" stroke="midnightblue" d="M385.655,-108.772C412.328,-98.6287 449.569,-84.4669 473.105,-75.5164"/>
<polygon fill="midnightblue" stroke="midnightblue" points="384.103,-105.618 376,-112.444 386.591,-112.16 384.103,-105.618"/>
</g>
<!-- Node8 -->
<g id="node7" class="node"><title>Node8</title>
<g id="a_node7"><a xlink:href="LinkedList_8hpp.html" target="_top" xlink:title="include/LinkedList.hpp">
<polygon fill="none" stroke="black" points="296.5,-56.5 296.5,-75.5 410.5,-75.5 410.5,-56.5 296.5,-56.5"/>
<text text-anchor="middle" x="353.5" y="-63.5" font-family="Helvetica,sans-Serif" font-size="10.00">include/LinkedList.hpp</text>
</a>
</g>
</g>
<!-- Node6&#45;&gt;Node8 -->
<g id="edge7" class="edge"><title>Node6&#45;&gt;Node8</title>
<path fill="none" stroke="midnightblue" d="M353.5,-101.805C353.5,-92.9102 353.5,-82.7798 353.5,-75.7511"/>
<polygon fill="midnightblue" stroke="midnightblue" points="350,-102.083 353.5,-112.083 357,-102.083 350,-102.083"/>
</g>
<!-- Node9 -->
<g id="node8" class="node"><title>Node9</title>
<g id="a_node8"><a xlink:href="OrderedList_8hpp.html" target="_top" xlink:title="include/OrderedList.hpp">
<polygon fill="none" stroke="black" points="294,-0.5 294,-19.5 413,-19.5 413,-0.5 294,-0.5"/>
<text text-anchor="middle" x="353.5" y="-7.5" font-family="Helvetica,sans-Serif" font-size="10.00">include/OrderedList.hpp</text>
</a>
</g>
</g>
<!-- Node8&#45;&gt;Node9 -->
<g id="edge8" class="edge"><title>Node8&#45;&gt;Node9</title>
<path fill="none" stroke="midnightblue" d="M353.5,-45.8045C353.5,-36.9102 353.5,-26.7798 353.5,-19.7511"/>
<polygon fill="midnightblue" stroke="midnightblue" points="350,-46.083 353.5,-56.083 357,-46.083 350,-46.083"/>
</g>
<!-- Node10&#45;&gt;Node7 -->
<g id="edge10" class="edge"><title>Node10&#45;&gt;Node7</title>
<path fill="none" stroke="midnightblue" d="M496.145,-101.805C495.98,-92.9102 495.792,-82.7798 495.662,-75.7511"/>
<polygon fill="midnightblue" stroke="midnightblue" points="492.65,-102.15 496.335,-112.083 499.649,-102.02 492.65,-102.15"/>
</g>
<!-- Node11 -->
<g id="node10" class="node"><title>Node11</title>
<g id="a_node10"><a xlink:href="StaticStack_8hpp.html" target="_top" xlink:title="include/StaticStack.hpp">
<polygon fill="none" stroke="black" points="580.5,-56.5 580.5,-75.5 700.5,-75.5 700.5,-56.5 580.5,-56.5"/>
<text text-anchor="middle" x="640.5" y="-63.5" font-family="Helvetica,sans-Serif" font-size="10.00">include/StaticStack.hpp</text>
</a>
</g>
</g>
<!-- Node10&#45;&gt;Node11 -->
<g id="edge11" class="edge"><title>Node10&#45;&gt;Node11</title>
<path fill="none" stroke="midnightblue" d="M528.751,-108.906C555.824,-98.7536 593.817,-84.5063 617.79,-75.5164"/>
<polygon fill="midnightblue" stroke="midnightblue" points="527.452,-105.655 519.317,-112.444 529.909,-112.209 527.452,-105.655"/>
</g>
</g>
</svg>
