<?xml version="1.0" encoding="UTF-8" standalone="no"?>
<!DOCTYPE svg PUBLIC "-//W3C//DTD SVG 1.1//EN"
 "http://www.w3.org/Graphics/SVG/1.1/DTD/svg11.dtd">
<!-- Generated by graphviz version 2.38.0 (20140413.2041)
 -->
<!-- Title: include/DynamicStack.hpp Pages: 1 -->
<svg width="392pt" height="196pt"
 viewBox="0.00 0.00 392.47 196.00" xmlns="http://www.w3.org/2000/svg" xmlns:xlink="http://www.w3.org/1999/xlink">
<g id="graph0" class="graph" transform="scale(1 1) rotate(0) translate(4 192)">
<title>include/DynamicStack.hpp</title>
<!-- Node0 -->
<g id="node1" class="node"><title>Node0</title>
<polygon fill="#bfbfbf" stroke="black" points="101.973,-168.5 101.973,-187.5 235.973,-187.5 235.973,-168.5 101.973,-168.5"/>
<text text-anchor="middle" x="168.973" y="-175.5" font-family="Helvetica,sans-Serif" font-size="10.00">include/DynamicStack.hpp</text>
</g>
<!-- Node1 -->
<g id="node2" class="node"><title>Node1</title>
<polygon fill="none" stroke="#bfbfbf" points="126.473,-56.5 126.473,-75.5 185.473,-75.5 185.473,-56.5 126.473,-56.5"/>
<text text-anchor="middle" x="155.973" y="-63.5" font-family="Helvetica,sans-Serif" font-size="10.00">stdexcept</text>
</g>
<!-- Node0&#45;&gt;Node1 -->
<g id="edge1" class="edge"><title>Node0&#45;&gt;Node1</title>
<path fill="none" stroke="midnightblue" d="M162.344,-168.275C156.208,-159.607 147.515,-145.669 143.973,-132 139.97,-116.552 143.857,-98.7071 148.243,-85.6275"/>
<polygon fill="midnightblue" stroke="midnightblue" points="151.65,-86.511 151.883,-75.9187 145.095,-84.0538 151.65,-86.511"/>
</g>
<!-- Node2 -->
<g id="node3" class="node"><title>Node2</title>
<polygon fill="none" stroke="#bfbfbf" points="292.973,-112.5 292.973,-131.5 346.973,-131.5 346.973,-112.5 292.973,-112.5"/>
<text text-anchor="middle" x="319.973" y="-119.5" font-family="Helvetica,sans-Serif" font-size="10.00">iostream</text>
</g>
<!-- Node0&#45;&gt;Node2 -->
<g id="edge2" class="edge"><title>Node0&#45;&gt;Node2</title>
<path fill="none" stroke="midnightblue" d="M192.899,-168.444C218.192,-159.399 258.275,-145.064 286.653,-134.916"/>
<polygon fill="midnightblue" stroke="midnightblue" points="287.921,-138.179 296.158,-131.516 285.564,-131.588 287.921,-138.179"/>
</g>
<!-- Node3 -->
<g id="node4" class="node"><title>Node3</title>
<g id="a_node4"><a xlink:href="Stack_8hpp.html" target="_top" xlink:title="Stack.hpp">
<polygon fill="none" stroke="black" points="29.4729,-112.5 29.4729,-131.5 90.4729,-131.5 90.4729,-112.5 29.4729,-112.5"/>
<text text-anchor="middle" x="59.9729" y="-119.5" font-family="Helvetica,sans-Serif" font-size="10.00">Stack.hpp</text>
</a>
</g>
</g>
<!-- Node0&#45;&gt;Node3 -->
<g id="edge3" class="edge"><title>Node0&#45;&gt;Node3</title>
<path fill="none" stroke="midnightblue" d="M151.46,-168.324C133.9,-159.625 106.641,-146.12 86.4416,-136.113"/>
<polygon fill="midnightblue" stroke="midnightblue" points="87.9565,-132.958 77.4421,-131.655 84.849,-139.23 87.9565,-132.958"/>
</g>
<!-- Node6 -->
<g id="node7" class="node"><title>Node6</title>
<g id="a_node7"><a xlink:href="ProtectedLinkedList_8hpp.html" target="_top" xlink:title="ProtectedLinkedList.hpp">
<polygon fill="none" stroke="black" points="152.973,-112.5 152.973,-131.5 274.973,-131.5 274.973,-112.5 152.973,-112.5"/>
<text text-anchor="middle" x="213.973" y="-119.5" font-family="Helvetica,sans-Serif" font-size="10.00">ProtectedLinkedList.hpp</text>
</a>
</g>
</g>
<!-- Node0&#45;&gt;Node6 -->
<g id="edge7" class="edge"><title>Node0&#45;&gt;Node6</title>
<path fill="none" stroke="midnightblue" d="M176.404,-168.083C182.826,-160.377 192.278,-149.033 200.095,-139.653"/>
<polygon fill="midnightblue" stroke="midnightblue" points="202.967,-141.674 206.68,-131.751 197.59,-137.193 202.967,-141.674"/>
</g>
<!-- Node4 -->
<g id="node5" class="node"><title>Node4</title>
<polygon fill="none" stroke="#bfbfbf" points="39.4729,-0.5 39.4729,-19.5 80.4729,-19.5 80.4729,-0.5 39.4729,-0.5"/>
<text text-anchor="middle" x="59.9729" y="-7.5" font-family="Helvetica,sans-Serif" font-size="10.00">string</text>
</g>
<!-- Node3&#45;&gt;Node4 -->
<g id="edge4" class="edge"><title>Node3&#45;&gt;Node4</title>
<path fill="none" stroke="midnightblue" d="M41.8913,-112.39C28.4111,-104.872 11.0004,-92.5651 2.97286,-76 -6.90349,-55.6197 14.6652,-36.6826 34.0416,-24.5678"/>
<polygon fill="midnightblue" stroke="midnightblue" points="35.8188,-27.5831 42.6692,-19.5009 32.2738,-21.547 35.8188,-27.5831"/>
</g>
<!-- Node5 -->
<g id="node6" class="node"><title>Node5</title>
<g id="a_node6"><a xlink:href="DataStructure_8hpp.html" target="_top" xlink:title="DataStructure.hpp">
<polygon fill="none" stroke="black" points="11.9729,-56.5 11.9729,-75.5 107.973,-75.5 107.973,-56.5 11.9729,-56.5"/>
<text text-anchor="middle" x="59.9729" y="-63.5" font-family="Helvetica,sans-Serif" font-size="10.00">DataStructure.hpp</text>
</a>
</g>
</g>
<!-- Node3&#45;&gt;Node5 -->
<g id="edge5" class="edge"><title>Node3&#45;&gt;Node5</title>
<path fill="none" stroke="midnightblue" d="M59.9729,-112.083C59.9729,-105.006 59.9729,-94.8611 59.9729,-85.9865"/>
<polygon fill="midnightblue" stroke="midnightblue" points="63.473,-85.751 59.9729,-75.7511 56.473,-85.7511 63.473,-85.751"/>
</g>
<!-- Node5&#45;&gt;Node4 -->
<g id="edge6" class="edge"><title>Node5&#45;&gt;Node4</title>
<path fill="none" stroke="midnightblue" d="M59.9729,-56.083C59.9729,-49.0059 59.9729,-38.8611 59.9729,-29.9865"/>
<polygon fill="midnightblue" stroke="midnightblue" points="63.473,-29.751 59.9729,-19.7511 56.473,-29.7511 63.473,-29.751"/>
</g>
<!-- Node6&#45;&gt;Node1 -->
<g id="edge9" class="edge"><title>Node6&#45;&gt;Node1</title>
<path fill="none" stroke="midnightblue" d="M204.654,-112.324C196.08,-104.341 183.161,-92.3128 172.785,-82.6529"/>
<polygon fill="midnightblue" stroke="midnightblue" points="175.165,-80.0865 165.461,-75.8339 170.395,-85.2098 175.165,-80.0865"/>
</g>
<!-- Node6&#45;&gt;Node4 -->
<g id="edge8" class="edge"><title>Node6&#45;&gt;Node4</title>
<path fill="none" stroke="midnightblue" d="M213.715,-112.159C212.835,-98.3294 209.137,-71.5561 193.973,-56 166.544,-27.8626 121.004,-17.3188 90.7396,-13.3678"/>
<polygon fill="midnightblue" stroke="midnightblue" points="91.0585,-9.88157 80.7266,-12.2272 90.2662,-16.8366 91.0585,-9.88157"/>
</g>
<!-- Node6&#45;&gt;Node5 -->
<g id="edge12" class="edge"><title>Node6&#45;&gt;Node5</title>
<path fill="none" stroke="midnightblue" d="M189.571,-112.444C163.776,-103.399 122.896,-89.064 93.9551,-78.9158"/>
<polygon fill="midnightblue" stroke="midnightblue" points="94.8553,-75.5226 84.2605,-75.5164 92.539,-82.1283 94.8553,-75.5226"/>
</g>
<!-- Node7 -->
<g id="node8" class="node"><title>Node7</title>
<g id="a_node8"><a xlink:href="Node_8hpp.html" target="_top" xlink:title="Node.hpp">
<polygon fill="none" stroke="black" points="242.473,-56.5 242.473,-75.5 301.473,-75.5 301.473,-56.5 242.473,-56.5"/>
<text text-anchor="middle" x="271.973" y="-63.5" font-family="Helvetica,sans-Serif" font-size="10.00">Node.hpp</text>
</a>
</g>
</g>
<!-- Node6&#45;&gt;Node7 -->
<g id="edge10" class="edge"><title>Node6&#45;&gt;Node7</title>
<path fill="none" stroke="midnightblue" d="M223.292,-112.324C231.865,-104.341 244.785,-92.3128 255.16,-82.6529"/>
<polygon fill="midnightblue" stroke="midnightblue" points="257.551,-85.2098 262.485,-75.8339 252.781,-80.0865 257.551,-85.2098"/>
</g>
<!-- Node9 -->
<g id="node10" class="node"><title>Node9</title>
<g id="a_node10"><a xlink:href="Iterator_8hpp.html" target="_top" xlink:title="Iterator.hpp">
<polygon fill="none" stroke="black" points="319.473,-56.5 319.473,-75.5 384.473,-75.5 384.473,-56.5 319.473,-56.5"/>
<text text-anchor="middle" x="351.973" y="-63.5" font-family="Helvetica,sans-Serif" font-size="10.00">Iterator.hpp</text>
</a>
</g>
</g>
<!-- Node6&#45;&gt;Node9 -->
<g id="edge13" class="edge"><title>Node6&#45;&gt;Node9</title>
<path fill="none" stroke="midnightblue" d="M235.839,-112.444C258.752,-103.478 294.948,-89.314 320.839,-79.1827"/>
<polygon fill="midnightblue" stroke="midnightblue" points="322.172,-82.4198 330.209,-75.5164 319.621,-75.9011 322.172,-82.4198"/>
</g>
<!-- Node8 -->
<g id="node9" class="node"><title>Node8</title>
<polygon fill="none" stroke="#bfbfbf" points="245.973,-0.5 245.973,-19.5 297.973,-19.5 297.973,-0.5 245.973,-0.5"/>
<text text-anchor="middle" x="271.973" y="-7.5" font-family="Helvetica,sans-Serif" font-size="10.00">stddef.h</text>
</g>
<!-- Node7&#45;&gt;Node8 -->
<g id="edge11" class="edge"><title>Node7&#45;&gt;Node8</title>
<path fill="none" stroke="midnightblue" d="M271.973,-56.083C271.973,-49.0059 271.973,-38.8611 271.973,-29.9865"/>
<polygon fill="midnightblue" stroke="midnightblue" points="275.473,-29.751 271.973,-19.7511 268.473,-29.7511 275.473,-29.751"/>
</g>
</g>
</svg>
