<?xml version="1.0" encoding="UTF-8" standalone="no"?>
<!DOCTYPE svg PUBLIC "-//W3C//DTD SVG 1.1//EN"
 "http://www.w3.org/Graphics/SVG/1.1/DTD/svg11.dtd">
<!-- Generated by graphviz version 2.38.0 (20140413.2041)
 -->
<!-- Title: include/DynamicStack.hpp Pages: 1 -->
<svg width="326pt" height="196pt"
 viewBox="0.00 0.00 326.00 196.00" xmlns="http://www.w3.org/2000/svg" xmlns:xlink="http://www.w3.org/1999/xlink">
<g id="graph0" class="graph" transform="scale(1 1) rotate(0) translate(4 192)">
<title>include/DynamicStack.hpp</title>
<!-- Node0 -->
<g id="node1" class="node"><title>Node0</title>
<polygon fill="#bfbfbf" stroke="black" points="57.5,-168.5 57.5,-187.5 191.5,-187.5 191.5,-168.5 57.5,-168.5"/>
<text text-anchor="middle" x="124.5" y="-175.5" font-family="Helvetica,sans-Serif" font-size="10.00">include/DynamicStack.hpp</text>
</g>
<!-- Node1 -->
<g id="node2" class="node"><title>Node1</title>
<polygon fill="none" stroke="#bfbfbf" points="0,-56.5 0,-75.5 59,-75.5 59,-56.5 0,-56.5"/>
<text text-anchor="middle" x="29.5" y="-63.5" font-family="Helvetica,sans-Serif" font-size="10.00">stdexcept</text>
</g>
<!-- Node0&#45;&gt;Node1 -->
<g id="edge1" class="edge"><title>Node0&#45;&gt;Node1</title>
<path fill="none" stroke="midnightblue" d="M89.7968,-168.399C70.5635,-161.75 48.0627,-150.467 35.5,-132 26.4367,-118.677 25.5904,-100.102 26.6292,-86.2186"/>
<polygon fill="midnightblue" stroke="midnightblue" points="30.1526,-86.2106 27.8062,-75.8788 23.1975,-85.4188 30.1526,-86.2106"/>
</g>
<!-- Node2 -->
<g id="node3" class="node"><title>Node2</title>
<polygon fill="none" stroke="#bfbfbf" points="44.5,-112.5 44.5,-131.5 98.5,-131.5 98.5,-112.5 44.5,-112.5"/>
<text text-anchor="middle" x="71.5" y="-119.5" font-family="Helvetica,sans-Serif" font-size="10.00">iostream</text>
</g>
<!-- Node0&#45;&gt;Node2 -->
<g id="edge2" class="edge"><title>Node0&#45;&gt;Node2</title>
<path fill="none" stroke="midnightblue" d="M115.748,-168.083C108.03,-160.22 96.5953,-148.569 87.2835,-139.081"/>
<polygon fill="midnightblue" stroke="midnightblue" points="89.5916,-136.436 80.089,-131.751 84.5958,-141.34 89.5916,-136.436"/>
</g>
<!-- Node3 -->
<g id="node4" class="node"><title>Node3</title>
<g id="a_node4"><a xlink:href="Stack_8hpp.html" target="_top" xlink:title="Stack.hpp">
<polygon fill="none" stroke="black" points="257,-112.5 257,-131.5 318,-131.5 318,-112.5 257,-112.5"/>
<text text-anchor="middle" x="287.5" y="-119.5" font-family="Helvetica,sans-Serif" font-size="10.00">Stack.hpp</text>
</a>
</g>
</g>
<!-- Node0&#45;&gt;Node3 -->
<g id="edge3" class="edge"><title>Node0&#45;&gt;Node3</title>
<path fill="none" stroke="midnightblue" d="M150.328,-168.444C177.749,-159.359 221.277,-144.939 251.932,-134.783"/>
<polygon fill="midnightblue" stroke="midnightblue" points="253.401,-137.984 261.793,-131.516 251.2,-131.339 253.401,-137.984"/>
</g>
<!-- Node6 -->
<g id="node7" class="node"><title>Node6</title>
<g id="a_node7"><a xlink:href="ProtectedLinkedList_8hpp.html" target="_top" xlink:title="ProtectedLinkedList.hpp">
<polygon fill="none" stroke="black" points="116.5,-112.5 116.5,-131.5 238.5,-131.5 238.5,-112.5 116.5,-112.5"/>
<text text-anchor="middle" x="177.5" y="-119.5" font-family="Helvetica,sans-Serif" font-size="10.00">ProtectedLinkedList.hpp</text>
</a>
</g>
</g>
<!-- Node0&#45;&gt;Node6 -->
<g id="edge7" class="edge"><title>Node0&#45;&gt;Node6</title>
<path fill="none" stroke="midnightblue" d="M133.252,-168.083C140.97,-160.22 152.405,-148.569 161.717,-139.081"/>
<polygon fill="midnightblue" stroke="midnightblue" points="164.404,-141.34 168.911,-131.751 159.408,-136.436 164.404,-141.34"/>
</g>
<!-- Node4 -->
<g id="node5" class="node"><title>Node4</title>
<polygon fill="none" stroke="#bfbfbf" points="233,-0.5 233,-19.5 274,-19.5 274,-0.5 233,-0.5"/>
<text text-anchor="middle" x="253.5" y="-7.5" font-family="Helvetica,sans-Serif" font-size="10.00">string</text>
</g>
<!-- Node3&#45;&gt;Node4 -->
<g id="edge4" class="edge"><title>Node3&#45;&gt;Node4</title>
<path fill="none" stroke="midnightblue" d="M294.862,-112.342C304.708,-99.6477 319.896,-75.3898 310.5,-56 304.103,-42.7996 291.748,-32.3032 280.171,-24.7794"/>
<polygon fill="midnightblue" stroke="midnightblue" points="281.954,-21.7678 271.582,-19.6099 278.345,-27.7653 281.954,-21.7678"/>
</g>
<!-- Node5 -->
<g id="node6" class="node"><title>Node5</title>
<g id="a_node6"><a xlink:href="DataStructure_8hpp.html" target="_top" xlink:title="DataStructure.hpp">
<polygon fill="none" stroke="black" points="205.5,-56.5 205.5,-75.5 301.5,-75.5 301.5,-56.5 205.5,-56.5"/>
<text text-anchor="middle" x="253.5" y="-63.5" font-family="Helvetica,sans-Serif" font-size="10.00">DataStructure.hpp</text>
</a>
</g>
</g>
<!-- Node3&#45;&gt;Node5 -->
<g id="edge5" class="edge"><title>Node3&#45;&gt;Node5</title>
<path fill="none" stroke="midnightblue" d="M281.886,-112.083C277.133,-104.534 270.182,-93.4948 264.348,-84.2298"/>
<polygon fill="midnightblue" stroke="midnightblue" points="267.3,-82.3486 259.01,-75.7511 261.376,-86.0783 267.3,-82.3486"/>
</g>
<!-- Node5&#45;&gt;Node4 -->
<g id="edge6" class="edge"><title>Node5&#45;&gt;Node4</title>
<path fill="none" stroke="midnightblue" d="M253.5,-56.083C253.5,-49.0059 253.5,-38.8611 253.5,-29.9865"/>
<polygon fill="midnightblue" stroke="midnightblue" points="257,-29.751 253.5,-19.7511 250,-29.7511 257,-29.751"/>
</g>
<!-- Node6&#45;&gt;Node1 -->
<g id="edge9" class="edge"><title>Node6&#45;&gt;Node1</title>
<path fill="none" stroke="midnightblue" d="M154.049,-112.444C129.367,-103.438 90.3147,-89.1891 62.5233,-79.049"/>
<polygon fill="midnightblue" stroke="midnightblue" points="63.4352,-75.6561 52.8413,-75.5164 61.0359,-82.2321 63.4352,-75.6561"/>
</g>
<!-- Node6&#45;&gt;Node4 -->
<g id="edge8" class="edge"><title>Node6&#45;&gt;Node4</title>
<path fill="none" stroke="midnightblue" d="M178.345,-112.293C179.979,-99.1085 184.534,-73.739 196.5,-56 204.901,-43.5462 217.829,-32.9372 229.251,-25.1534"/>
<polygon fill="midnightblue" stroke="midnightblue" points="231.461,-27.8931 237.972,-19.5354 227.67,-22.0083 231.461,-27.8931"/>
</g>
<!-- Node6&#45;&gt;Node5 -->
<g id="edge12" class="edge"><title>Node6&#45;&gt;Node5</title>
<path fill="none" stroke="midnightblue" d="M189.711,-112.324C201.276,-104.107 218.875,-91.6017 232.661,-81.8069"/>
<polygon fill="midnightblue" stroke="midnightblue" points="234.943,-84.4791 241.067,-75.8339 230.888,-78.7729 234.943,-84.4791"/>
</g>
<!-- Node7 -->
<g id="node8" class="node"><title>Node7</title>
<g id="a_node8"><a xlink:href="Node_8hpp.html" target="_top" xlink:title="Node.hpp">
<polygon fill="none" stroke="black" points="90,-56.5 90,-75.5 149,-75.5 149,-56.5 90,-56.5"/>
<text text-anchor="middle" x="119.5" y="-63.5" font-family="Helvetica,sans-Serif" font-size="10.00">Node.hpp</text>
</a>
</g>
</g>
<!-- Node6&#45;&gt;Node7 -->
<g id="edge10" class="edge"><title>Node6&#45;&gt;Node7</title>
<path fill="none" stroke="midnightblue" d="M168.181,-112.324C159.607,-104.341 146.688,-92.3128 136.312,-82.6529"/>
<polygon fill="midnightblue" stroke="midnightblue" points="138.692,-80.0865 128.988,-75.8339 133.922,-85.2098 138.692,-80.0865"/>
</g>
<!-- Node8 -->
<g id="node9" class="node"><title>Node8</title>
<polygon fill="none" stroke="#bfbfbf" points="93.5,-0.5 93.5,-19.5 145.5,-19.5 145.5,-0.5 93.5,-0.5"/>
<text text-anchor="middle" x="119.5" y="-7.5" font-family="Helvetica,sans-Serif" font-size="10.00">stddef.h</text>
</g>
<!-- Node7&#45;&gt;Node8 -->
<g id="edge11" class="edge"><title>Node7&#45;&gt;Node8</title>
<path fill="none" stroke="midnightblue" d="M119.5,-56.083C119.5,-49.0059 119.5,-38.8611 119.5,-29.9865"/>
<polygon fill="midnightblue" stroke="midnightblue" points="123,-29.751 119.5,-19.7511 116,-29.7511 123,-29.751"/>
</g>
</g>
</svg>
