<?xml version="1.0" encoding="UTF-8" standalone="no"?>
<!DOCTYPE svg PUBLIC "-//W3C//DTD SVG 1.1//EN"
 "http://www.w3.org/Graphics/SVG/1.1/DTD/svg11.dtd">
<!-- Generated by graphviz version 2.38.0 (20140413.2041)
 -->
<!-- Title: Gráfico de Hierarquia de Classes Pages: 1 -->
<svg width="519pt" height="180pt"
 viewBox="0.00 0.00 519.00 180.00" xmlns="http://www.w3.org/2000/svg" xmlns:xlink="http://www.w3.org/1999/xlink">
<g id="graph0" class="graph" transform="scale(1 1) rotate(0) translate(4 176)">
<title>Gráfico de Hierarquia de Classes</title>
<!-- Node0 -->
<g id="node1" class="node"><title>Node0</title>
<g id="a_node1"><a xlink:href="classDataStructure.html" target="_top" xlink:title="Base class for all data structures. ">
<polygon fill="none" stroke="black" points="0,-76.5 0,-95.5 77,-95.5 77,-76.5 0,-76.5"/>
<text text-anchor="middle" x="38.5" y="-83.5" font-family="Helvetica,sans-Serif" font-size="10.00">DataStructure</text>
</a>
</g>
</g>
<!-- Node1 -->
<g id="node2" class="node"><title>Node1</title>
<g id="a_node2"><a xlink:href="classProtectedLinkedList.html" target="_top" xlink:title="Doubly&#45;linked list implementation with dynamic memory allocation. ">
<polygon fill="none" stroke="black" points="113,-76.5 113,-95.5 240,-95.5 240,-76.5 113,-76.5"/>
<text text-anchor="middle" x="176.5" y="-83.5" font-family="Helvetica,sans-Serif" font-size="10.00">ProtectedLinkedList&lt; T &gt;</text>
</a>
</g>
</g>
<!-- Node0&#45;&gt;Node1 -->
<g id="edge1" class="edge"><title>Node0&#45;&gt;Node1</title>
<path fill="none" stroke="midnightblue" d="M87.2146,-86C95.4797,-86 104.185,-86 112.777,-86"/>
<polygon fill="midnightblue" stroke="midnightblue" points="87.0226,-82.5001 77.0226,-86 87.0226,-89.5001 87.0226,-82.5001"/>
</g>
<!-- Node6 -->
<g id="node7" class="node"><title>Node6</title>
<g id="a_node7"><a xlink:href="classQueue.html" target="_top" xlink:title="Abstract queue interface. ">
<polygon fill="none" stroke="black" points="142,-114.5 142,-133.5 211,-133.5 211,-114.5 142,-114.5"/>
<text text-anchor="middle" x="176.5" y="-121.5" font-family="Helvetica,sans-Serif" font-size="10.00">Queue&lt; T &gt;</text>
</a>
</g>
</g>
<!-- Node0&#45;&gt;Node6 -->
<g id="edge6" class="edge"><title>Node0&#45;&gt;Node6</title>
<path fill="none" stroke="midnightblue" d="M83.6636,-98.3398C102.499,-103.603 124.129,-109.646 141.664,-114.546"/>
<polygon fill="midnightblue" stroke="midnightblue" points="84.3915,-94.9092 73.8185,-95.589 82.5078,-101.651 84.3915,-94.9092"/>
</g>
<!-- Node9 -->
<g id="node9" class="node"><title>Node9</title>
<g id="a_node9"><a xlink:href="classStack.html" target="_top" xlink:title="Abstract stack interface. ">
<polygon fill="none" stroke="black" points="143.5,-38.5 143.5,-57.5 209.5,-57.5 209.5,-38.5 143.5,-38.5"/>
<text text-anchor="middle" x="176.5" y="-45.5" font-family="Helvetica,sans-Serif" font-size="10.00">Stack&lt; T &gt;</text>
</a>
</g>
</g>
<!-- Node0&#45;&gt;Node9 -->
<g id="edge9" class="edge"><title>Node0&#45;&gt;Node9</title>
<path fill="none" stroke="midnightblue" d="M83.6281,-73.6701C102.977,-68.2638 125.28,-62.0321 143.065,-57.0627"/>
<polygon fill="midnightblue" stroke="midnightblue" points="82.5078,-70.349 73.8185,-76.411 84.3915,-77.0908 82.5078,-70.349"/>
</g>
<!-- Node7 -->
<g id="node3" class="node"><title>Node7</title>
<g id="a_node3"><a xlink:href="classDynamicQueue.html" target="_top" xlink:title="Queue implementation with dynamic memory allocation. ">
<polygon fill="none" stroke="black" points="276,-114.5 276,-133.5 384,-133.5 384,-114.5 276,-114.5"/>
<text text-anchor="middle" x="330" y="-121.5" font-family="Helvetica,sans-Serif" font-size="10.00">DynamicQueue&lt; T &gt;</text>
</a>
</g>
</g>
<!-- Node1&#45;&gt;Node7 -->
<g id="edge2" class="edge"><title>Node1&#45;&gt;Node7</title>
<path fill="none" stroke="midnightblue" d="M225.502,-98.04C246.667,-103.349 271.186,-109.499 291.045,-114.48"/>
<polygon fill="midnightblue" stroke="midnightblue" points="226.281,-94.6271 215.73,-95.589 224.578,-101.417 226.281,-94.6271"/>
</g>
<!-- Node10 -->
<g id="node4" class="node"><title>Node10</title>
<g id="a_node4"><a xlink:href="classDynamicStack.html" target="_top" xlink:title="Stack implementation with dynamic memory allocation. ">
<polygon fill="none" stroke="black" points="277.5,-38.5 277.5,-57.5 382.5,-57.5 382.5,-38.5 277.5,-38.5"/>
<text text-anchor="middle" x="330" y="-45.5" font-family="Helvetica,sans-Serif" font-size="10.00">DynamicStack&lt; T &gt;</text>
</a>
</g>
</g>
<!-- Node1&#45;&gt;Node10 -->
<g id="edge3" class="edge"><title>Node1&#45;&gt;Node10</title>
<path fill="none" stroke="midnightblue" d="M225.502,-73.96C246.667,-68.6512 271.186,-62.5012 291.045,-57.5201"/>
<polygon fill="midnightblue" stroke="midnightblue" points="224.578,-70.5832 215.73,-76.411 226.281,-77.3729 224.578,-70.5832"/>
</g>
<!-- Node4 -->
<g id="node5" class="node"><title>Node4</title>
<g id="a_node5"><a xlink:href="classLinkedList.html" target="_top" xlink:title="Doubly&#45;linked list implementation with dynamic memory allocation. ">
<polygon fill="none" stroke="black" points="287.5,-76.5 287.5,-95.5 372.5,-95.5 372.5,-76.5 287.5,-76.5"/>
<text text-anchor="middle" x="330" y="-83.5" font-family="Helvetica,sans-Serif" font-size="10.00">LinkedList&lt; T &gt;</text>
</a>
</g>
</g>
<!-- Node1&#45;&gt;Node4 -->
<g id="edge4" class="edge"><title>Node1&#45;&gt;Node4</title>
<path fill="none" stroke="midnightblue" d="M250.489,-86C263.089,-86 275.79,-86 287.196,-86"/>
<polygon fill="midnightblue" stroke="midnightblue" points="250.434,-82.5001 240.433,-86 250.433,-89.5001 250.434,-82.5001"/>
</g>
<!-- Node5 -->
<g id="node6" class="node"><title>Node5</title>
<g id="a_node6"><a xlink:href="classOrderedList.html" target="_top" xlink:title="Doubly&#45;linked ordered list implementation with dynamic memory allocation. ">
<polygon fill="none" stroke="black" points="420,-76.5 420,-95.5 511,-95.5 511,-76.5 420,-76.5"/>
<text text-anchor="middle" x="465.5" y="-83.5" font-family="Helvetica,sans-Serif" font-size="10.00">OrderedList&lt; T &gt;</text>
</a>
</g>
</g>
<!-- Node4&#45;&gt;Node5 -->
<g id="edge5" class="edge"><title>Node4&#45;&gt;Node5</title>
<path fill="none" stroke="midnightblue" d="M382.601,-86C394.864,-86 407.847,-86 419.774,-86"/>
<polygon fill="midnightblue" stroke="midnightblue" points="382.508,-82.5001 372.508,-86 382.508,-89.5001 382.508,-82.5001"/>
</g>
<!-- Node6&#45;&gt;Node7 -->
<g id="edge7" class="edge"><title>Node6&#45;&gt;Node7</title>
<path fill="none" stroke="midnightblue" d="M221.341,-124C238.363,-124 258.016,-124 275.833,-124"/>
<polygon fill="midnightblue" stroke="midnightblue" points="221.123,-120.5 211.123,-124 221.123,-127.5 221.123,-120.5"/>
</g>
<!-- Node8 -->
<g id="node8" class="node"><title>Node8</title>
<g id="a_node8"><a xlink:href="classStaticQueue.html" target="_top" xlink:title="Queue implementation using a native C++ array as data storage. ">
<polygon fill="none" stroke="black" points="282.5,-152.5 282.5,-171.5 377.5,-171.5 377.5,-152.5 282.5,-152.5"/>
<text text-anchor="middle" x="330" y="-159.5" font-family="Helvetica,sans-Serif" font-size="10.00">StaticQueue&lt; T &gt;</text>
</a>
</g>
</g>
<!-- Node6&#45;&gt;Node8 -->
<g id="edge8" class="edge"><title>Node6&#45;&gt;Node8</title>
<path fill="none" stroke="midnightblue" d="M220.924,-134.892C243.026,-140.436 269.647,-147.113 290.938,-152.453"/>
<polygon fill="midnightblue" stroke="midnightblue" points="221.674,-131.472 211.123,-132.433 219.971,-138.261 221.674,-131.472"/>
</g>
<!-- Node9&#45;&gt;Node10 -->
<g id="edge10" class="edge"><title>Node9&#45;&gt;Node10</title>
<path fill="none" stroke="midnightblue" d="M219.73,-48C237.561,-48 258.497,-48 277.246,-48"/>
<polygon fill="midnightblue" stroke="midnightblue" points="219.629,-44.5001 209.629,-48 219.629,-51.5001 219.629,-44.5001"/>
</g>
<!-- Node11 -->
<g id="node10" class="node"><title>Node11</title>
<g id="a_node10"><a xlink:href="classStaticStack.html" target="_top" xlink:title="Stack implementation using a native C++ array as data storage. ">
<polygon fill="none" stroke="black" points="284,-0.5 284,-19.5 376,-19.5 376,-0.5 284,-0.5"/>
<text text-anchor="middle" x="330" y="-7.5" font-family="Helvetica,sans-Serif" font-size="10.00">StaticStack&lt; T &gt;</text>
</a>
</g>
</g>
<!-- Node9&#45;&gt;Node11 -->
<g id="edge11" class="edge"><title>Node9&#45;&gt;Node11</title>
<path fill="none" stroke="midnightblue" d="M219.535,-37.4566C241.934,-31.8384 269.273,-24.9809 291.027,-19.5246"/>
<polygon fill="midnightblue" stroke="midnightblue" points="218.477,-34.1134 209.629,-39.9412 220.18,-40.9031 218.477,-34.1134"/>
</g>
</g>
</svg>
