<?xml version="1.0" encoding="UTF-8" standalone="no"?>
<!DOCTYPE svg PUBLIC "-//W3C//DTD SVG 1.1//EN"
 "http://www.w3.org/Graphics/SVG/1.1/DTD/svg11.dtd">
<!-- Generated by graphviz version 2.38.0 (20140413.2041)
 -->
<!-- Title: include/LinkedList.hpp Pages: 1 -->
<svg width="169pt" height="140pt"
 viewBox="0.00 0.00 168.50 140.00" xmlns="http://www.w3.org/2000/svg" xmlns:xlink="http://www.w3.org/1999/xlink">
<g id="graph0" class="graph" transform="scale(1 1) rotate(0) translate(4 136)">
<title>include/LinkedList.hpp</title>
<!-- Node8 -->
<g id="node1" class="node"><title>Node8</title>
<polygon fill="#bfbfbf" stroke="black" points="0,-112.5 0,-131.5 114,-131.5 114,-112.5 0,-112.5"/>
<text text-anchor="middle" x="57" y="-119.5" font-family="Helvetica,sans-Serif" font-size="10.00">include/LinkedList.hpp</text>
</g>
<!-- Node9 -->
<g id="node2" class="node"><title>Node9</title>
<g id="a_node2"><a xlink:href="main_8cpp.html" target="_top" xlink:title="test/main.cpp">
<polygon fill="none" stroke="black" points="19,-0.5 19,-19.5 95,-19.5 95,-0.5 19,-0.5"/>
<text text-anchor="middle" x="57" y="-7.5" font-family="Helvetica,sans-Serif" font-size="10.00">test/main.cpp</text>
</a>
</g>
</g>
<!-- Node8&#45;&gt;Node9 -->
<g id="edge1" class="edge"><title>Node8&#45;&gt;Node9</title>
<path fill="none" stroke="midnightblue" d="M44.7585,-103.834C39.7526,-95.7882 34.5459,-85.8248 32,-76 26.6016,-55.1668 40.7968,-31.8799 49.9482,-19.6235"/>
<polygon fill="midnightblue" stroke="midnightblue" points="41.9196,-105.886 50.3713,-112.275 47.7486,-102.01 41.9196,-105.886"/>
</g>
<!-- Node10 -->
<g id="node3" class="node"><title>Node10</title>
<g id="a_node3"><a xlink:href="OrderedList_8hpp.html" target="_top" xlink:title="include/OrderedList.hpp">
<polygon fill="none" stroke="black" points="41.5,-56.5 41.5,-75.5 160.5,-75.5 160.5,-56.5 41.5,-56.5"/>
<text text-anchor="middle" x="101" y="-63.5" font-family="Helvetica,sans-Serif" font-size="10.00">include/OrderedList.hpp</text>
</a>
</g>
</g>
<!-- Node8&#45;&gt;Node10 -->
<g id="edge2" class="edge"><title>Node8&#45;&gt;Node10</title>
<path fill="none" stroke="midnightblue" d="M70.7345,-104.144C78.4005,-94.7357 87.6333,-83.4046 93.8695,-75.7511"/>
<polygon fill="midnightblue" stroke="midnightblue" points="67.8691,-102.12 64.2657,-112.083 73.2958,-106.541 67.8691,-102.12"/>
</g>
<!-- Node10&#45;&gt;Node9 -->
<g id="edge3" class="edge"><title>Node10&#45;&gt;Node9</title>
<path fill="none" stroke="midnightblue" d="M87.2655,-48.144C79.5995,-38.7357 70.3667,-27.4046 64.1305,-19.7511"/>
<polygon fill="midnightblue" stroke="midnightblue" points="84.7042,-50.5415 93.7343,-56.083 90.1309,-46.1198 84.7042,-50.5415"/>
</g>
</g>
</svg>
