<?xml version="1.0" encoding="UTF-8" standalone="no"?>
<!DOCTYPE svg PUBLIC "-//W3C//DTD SVG 1.1//EN"
 "http://www.w3.org/Graphics/SVG/1.1/DTD/svg11.dtd">
<!-- Generated by graphviz version 2.38.0 (20140413.2041)
 -->
<!-- Title: include/LinkedList.hpp Pages: 1 -->
<svg width="315pt" height="196pt"
 viewBox="0.00 0.00 314.50 196.00" xmlns="http://www.w3.org/2000/svg" xmlns:xlink="http://www.w3.org/1999/xlink">
<g id="graph0" class="graph" transform="scale(1 1) rotate(0) translate(4 192)">
<title>include/LinkedList.hpp</title>
<!-- Node0 -->
<g id="node1" class="node"><title>Node0</title>
<polygon fill="#bfbfbf" stroke="black" points="23,-168.5 23,-187.5 137,-187.5 137,-168.5 23,-168.5"/>
<text text-anchor="middle" x="80" y="-175.5" font-family="Helvetica,sans-Serif" font-size="10.00">include/LinkedList.hpp</text>
</g>
<!-- Node1 -->
<g id="node2" class="node"><title>Node1</title>
<polygon fill="none" stroke="#bfbfbf" points="0,-112.5 0,-131.5 54,-131.5 54,-112.5 0,-112.5"/>
<text text-anchor="middle" x="27" y="-119.5" font-family="Helvetica,sans-Serif" font-size="10.00">iostream</text>
</g>
<!-- Node0&#45;&gt;Node1 -->
<g id="edge1" class="edge"><title>Node0&#45;&gt;Node1</title>
<path fill="none" stroke="midnightblue" d="M71.2481,-168.083C63.5303,-160.22 52.0953,-148.569 42.7835,-139.081"/>
<polygon fill="midnightblue" stroke="midnightblue" points="45.0916,-136.436 35.589,-131.751 40.0958,-141.34 45.0916,-136.436"/>
</g>
<!-- Node2 -->
<g id="node3" class="node"><title>Node2</title>
<g id="a_node3"><a xlink:href="ProtectedLinkedList_8hpp.html" target="_top" xlink:title="ProtectedLinkedList.hpp">
<polygon fill="none" stroke="black" points="72,-112.5 72,-131.5 194,-131.5 194,-112.5 72,-112.5"/>
<text text-anchor="middle" x="133" y="-119.5" font-family="Helvetica,sans-Serif" font-size="10.00">ProtectedLinkedList.hpp</text>
</a>
</g>
</g>
<!-- Node0&#45;&gt;Node2 -->
<g id="edge2" class="edge"><title>Node0&#45;&gt;Node2</title>
<path fill="none" stroke="midnightblue" d="M88.7519,-168.083C96.4697,-160.22 107.905,-148.569 117.217,-139.081"/>
<polygon fill="midnightblue" stroke="midnightblue" points="119.904,-141.34 124.411,-131.751 114.908,-136.436 119.904,-141.34"/>
</g>
<!-- Node3 -->
<g id="node4" class="node"><title>Node3</title>
<polygon fill="none" stroke="#bfbfbf" points="83.5,-0.5 83.5,-19.5 124.5,-19.5 124.5,-0.5 83.5,-0.5"/>
<text text-anchor="middle" x="104" y="-7.5" font-family="Helvetica,sans-Serif" font-size="10.00">string</text>
</g>
<!-- Node2&#45;&gt;Node3 -->
<g id="edge3" class="edge"><title>Node2&#45;&gt;Node3</title>
<path fill="none" stroke="midnightblue" d="M97.9872,-112.445C79.0662,-105.844 57.3162,-94.5936 46,-76 34.0137,-56.3053 56.8686,-37.0177 77.3209,-24.6358"/>
<polygon fill="midnightblue" stroke="midnightblue" points="79.1713,-27.6098 86.1221,-19.6137 75.702,-21.5299 79.1713,-27.6098"/>
</g>
<!-- Node4 -->
<g id="node5" class="node"><title>Node4</title>
<polygon fill="none" stroke="#bfbfbf" points="55.5,-56.5 55.5,-75.5 114.5,-75.5 114.5,-56.5 55.5,-56.5"/>
<text text-anchor="middle" x="85" y="-63.5" font-family="Helvetica,sans-Serif" font-size="10.00">stdexcept</text>
</g>
<!-- Node2&#45;&gt;Node4 -->
<g id="edge4" class="edge"><title>Node2&#45;&gt;Node4</title>
<path fill="none" stroke="midnightblue" d="M125.074,-112.083C118.154,-104.298 107.935,-92.8015 99.548,-83.3665"/>
<polygon fill="midnightblue" stroke="midnightblue" points="102.038,-80.8999 92.7787,-75.7511 96.8065,-85.5505 102.038,-80.8999"/>
</g>
<!-- Node5 -->
<g id="node6" class="node"><title>Node5</title>
<g id="a_node6"><a xlink:href="Node_8hpp.html" target="_top" xlink:title="Node.hpp">
<polygon fill="none" stroke="black" points="247.5,-56.5 247.5,-75.5 306.5,-75.5 306.5,-56.5 247.5,-56.5"/>
<text text-anchor="middle" x="277" y="-63.5" font-family="Helvetica,sans-Serif" font-size="10.00">Node.hpp</text>
</a>
</g>
</g>
<!-- Node2&#45;&gt;Node5 -->
<g id="edge5" class="edge"><title>Node2&#45;&gt;Node5</title>
<path fill="none" stroke="midnightblue" d="M155.817,-112.444C179.832,-103.438 217.829,-89.1891 244.869,-79.049"/>
<polygon fill="midnightblue" stroke="midnightblue" points="246.155,-82.3049 254.29,-75.5164 243.697,-75.7506 246.155,-82.3049"/>
</g>
<!-- Node7 -->
<g id="node8" class="node"><title>Node7</title>
<g id="a_node8"><a xlink:href="DataStructure_8hpp.html" target="_top" xlink:title="DataStructure.hpp">
<polygon fill="none" stroke="black" points="133,-56.5 133,-75.5 229,-75.5 229,-56.5 133,-56.5"/>
<text text-anchor="middle" x="181" y="-63.5" font-family="Helvetica,sans-Serif" font-size="10.00">DataStructure.hpp</text>
</a>
</g>
</g>
<!-- Node2&#45;&gt;Node7 -->
<g id="edge7" class="edge"><title>Node2&#45;&gt;Node7</title>
<path fill="none" stroke="midnightblue" d="M140.926,-112.083C147.846,-104.298 158.065,-92.8015 166.452,-83.3665"/>
<polygon fill="midnightblue" stroke="midnightblue" points="169.194,-85.5505 173.221,-75.7511 163.962,-80.8999 169.194,-85.5505"/>
</g>
<!-- Node6 -->
<g id="node7" class="node"><title>Node6</title>
<polygon fill="none" stroke="#bfbfbf" points="251,-0.5 251,-19.5 303,-19.5 303,-0.5 251,-0.5"/>
<text text-anchor="middle" x="277" y="-7.5" font-family="Helvetica,sans-Serif" font-size="10.00">stddef.h</text>
</g>
<!-- Node5&#45;&gt;Node6 -->
<g id="edge6" class="edge"><title>Node5&#45;&gt;Node6</title>
<path fill="none" stroke="midnightblue" d="M277,-56.083C277,-49.0059 277,-38.8611 277,-29.9865"/>
<polygon fill="midnightblue" stroke="midnightblue" points="280.5,-29.751 277,-19.7511 273.5,-29.7511 280.5,-29.751"/>
</g>
<!-- Node7&#45;&gt;Node3 -->
<g id="edge8" class="edge"><title>Node7&#45;&gt;Node3</title>
<path fill="none" stroke="midnightblue" d="M168.629,-56.324C156.842,-48.0577 138.868,-35.4527 124.864,-25.6322"/>
<polygon fill="midnightblue" stroke="midnightblue" points="126.538,-22.5307 116.341,-19.6545 122.518,-28.2619 126.538,-22.5307"/>
</g>
</g>
</svg>
