<?xml version="1.0" encoding="UTF-8" standalone="no"?>
<!DOCTYPE svg PUBLIC "-//W3C//DTD SVG 1.1//EN"
 "http://www.w3.org/Graphics/SVG/1.1/DTD/svg11.dtd">
<!-- Generated by graphviz version 2.38.0 (20140413.2041)
 -->
<!-- Title: testaUnderflow Pages: 1 -->
<svg width="224pt" height="46pt"
 viewBox="0.00 0.00 224.00 46.00" xmlns="http://www.w3.org/2000/svg" xmlns:xlink="http://www.w3.org/1999/xlink">
<g id="graph0" class="graph" transform="scale(1 1) rotate(0) translate(4 42)">
<title>testaUnderflow</title>
<!-- Node14 -->
<g id="node1" class="node"><title>Node14</title>
<polygon fill="#bfbfbf" stroke="black" points="0,-0.5 0,-19.5 83,-19.5 83,-0.5 0,-0.5"/>
<text text-anchor="middle" x="41.5" y="-7.5" font-family="Helvetica,sans-Serif" font-size="10.00">testaUnderflow</text>
</g>
<!-- Node15 -->
<g id="node2" class="node"><title>Node15</title>
<g id="a_node2"><a xlink:href="classLinkedList.html#a2704854adf2cfec4aefce769d344aa1a" target="_top" xlink:title="Creates an Iterator, an object that allows the sequential access of values in a Linked List without t...">
<polygon fill="none" stroke="black" points="119,-0.5 119,-19.5 216,-19.5 216,-0.5 119,-0.5"/>
<text text-anchor="middle" x="167.5" y="-7.5" font-family="Helvetica,sans-Serif" font-size="10.00">LinkedList::iterator</text>
</a>
</g>
</g>
<!-- Node14&#45;&gt;Node15 -->
<g id="edge1" class="edge"><title>Node14&#45;&gt;Node15</title>
<path fill="none" stroke="midnightblue" d="M83.1022,-10C91.3265,-10 100.123,-10 108.807,-10"/>
<polygon fill="midnightblue" stroke="midnightblue" points="108.907,-13.5001 118.907,-10 108.907,-6.5001 108.907,-13.5001"/>
</g>
<!-- Node15&#45;&gt;Node15 -->
<g id="edge2" class="edge"><title>Node15&#45;&gt;Node15</title>
<path fill="none" stroke="midnightblue" d="M148.08,-19.7571C138.632,-28.5653 145.105,-38 167.5,-38 181.846,-38 189.659,-34.128 190.937,-29.0292"/>
<polygon fill="midnightblue" stroke="midnightblue" points="194.107,-27.5415 186.92,-19.7571 187.684,-30.3243 194.107,-27.5415"/>
</g>
</g>
</svg>
