<?xml version="1.0" encoding="UTF-8" standalone="no"?>
<!DOCTYPE svg PUBLIC "-//W3C//DTD SVG 1.1//EN"
 "http://www.w3.org/Graphics/SVG/1.1/DTD/svg11.dtd">
<!-- Generated by graphviz version 2.38.0 (20140413.2041)
 -->
<!-- Title: testaUsoSatanico Pages: 1 -->
<svg width="236pt" height="46pt"
 viewBox="0.00 0.00 236.00 46.00" xmlns="http://www.w3.org/2000/svg" xmlns:xlink="http://www.w3.org/1999/xlink">
<g id="graph0" class="graph" transform="scale(1 1) rotate(0) translate(4 42)">
<title>testaUsoSatanico</title>
<!-- Node17 -->
<g id="node1" class="node"><title>Node17</title>
<polygon fill="#bfbfbf" stroke="black" points="0,-0.5 0,-19.5 95,-19.5 95,-0.5 0,-0.5"/>
<text text-anchor="middle" x="47.5" y="-7.5" font-family="Helvetica,sans-Serif" font-size="10.00">testaUsoSatanico</text>
</g>
<!-- Node18 -->
<g id="node2" class="node"><title>Node18</title>
<g id="a_node2"><a xlink:href="classLinkedList.html#a2704854adf2cfec4aefce769d344aa1a" target="_top" xlink:title="Creates an Iterator, an object that allows the sequential access of values in a Linked List without t...">
<polygon fill="none" stroke="black" points="131,-0.5 131,-19.5 228,-19.5 228,-0.5 131,-0.5"/>
<text text-anchor="middle" x="179.5" y="-7.5" font-family="Helvetica,sans-Serif" font-size="10.00">LinkedList::iterator</text>
</a>
</g>
</g>
<!-- Node17&#45;&gt;Node18 -->
<g id="edge1" class="edge"><title>Node17&#45;&gt;Node18</title>
<path fill="none" stroke="midnightblue" d="M95.0658,-10C103.444,-10 112.268,-10 120.915,-10"/>
<polygon fill="midnightblue" stroke="midnightblue" points="120.946,-13.5001 130.946,-10 120.946,-6.5001 120.946,-13.5001"/>
</g>
<!-- Node18&#45;&gt;Node18 -->
<g id="edge2" class="edge"><title>Node18&#45;&gt;Node18</title>
<path fill="none" stroke="midnightblue" d="M159.155,-19.7571C149.257,-28.5653 156.039,-38 179.5,-38 194.53,-38 202.714,-34.128 204.053,-29.0292"/>
<polygon fill="midnightblue" stroke="midnightblue" points="207.165,-27.4164 199.845,-19.7571 200.791,-30.3096 207.165,-27.4164"/>
</g>
</g>
</svg>
