<?xml version="1.0" encoding="UTF-8" standalone="no"?>
<!DOCTYPE svg PUBLIC "-//W3C//DTD SVG 1.1//EN"
 "http://www.w3.org/Graphics/SVG/1.1/DTD/svg11.dtd">
<!-- Generated by graphviz version 2.38.0 (20140413.2041)
 -->
<!-- Title: test/main.cpp Pages: 1 -->
<svg width="711pt" height="308pt"
 viewBox="0.00 0.00 710.65 308.00" xmlns="http://www.w3.org/2000/svg" xmlns:xlink="http://www.w3.org/1999/xlink">
<g id="graph0" class="graph" transform="scale(1 1) rotate(0) translate(4 304)">
<title>test/main.cpp</title>
<!-- Node0 -->
<g id="node1" class="node"><title>Node0</title>
<polygon fill="#bfbfbf" stroke="black" points="283.153,-280.5 283.153,-299.5 359.153,-299.5 359.153,-280.5 283.153,-280.5"/>
<text text-anchor="middle" x="321.153" y="-287.5" font-family="Helvetica,sans-Serif" font-size="10.00">test/main.cpp</text>
</g>
<!-- Node1 -->
<g id="node2" class="node"><title>Node1</title>
<polygon fill="none" stroke="#bfbfbf" points="23.1534,-112.5 23.1534,-131.5 77.1534,-131.5 77.1534,-112.5 23.1534,-112.5"/>
<text text-anchor="middle" x="50.1534" y="-119.5" font-family="Helvetica,sans-Serif" font-size="10.00">iostream</text>
</g>
<!-- Node0&#45;&gt;Node1 -->
<g id="edge1" class="edge"><title>Node0&#45;&gt;Node1</title>
<path fill="none" stroke="midnightblue" d="M283.025,-282.696C206.079,-269.098 36.7588,-234.448 4.15341,-188 -8.06506,-170.594 11.0096,-150.637 28.1817,-137.479"/>
<polygon fill="midnightblue" stroke="midnightblue" points="30.2552,-140.299 36.3133,-131.607 26.157,-134.624 30.2552,-140.299"/>
</g>
<!-- Node2 -->
<g id="node3" class="node"><title>Node2</title>
<polygon fill="none" stroke="#bfbfbf" points="491.653,-224.5 491.653,-243.5 540.653,-243.5 540.653,-224.5 491.653,-224.5"/>
<text text-anchor="middle" x="516.153" y="-231.5" font-family="Helvetica,sans-Serif" font-size="10.00">random</text>
</g>
<!-- Node0&#45;&gt;Node2 -->
<g id="edge2" class="edge"><title>Node0&#45;&gt;Node2</title>
<path fill="none" stroke="midnightblue" d="M352.052,-280.444C387.39,-270.657 445.089,-254.679 481.809,-244.511"/>
<polygon fill="midnightblue" stroke="midnightblue" points="482.871,-247.849 491.574,-241.807 481.002,-241.102 482.871,-247.849"/>
</g>
<!-- Node3 -->
<g id="node4" class="node"><title>Node3</title>
<polygon fill="none" stroke="#bfbfbf" points="558.653,-224.5 558.653,-243.5 599.653,-243.5 599.653,-224.5 558.653,-224.5"/>
<text text-anchor="middle" x="579.153" y="-231.5" font-family="Helvetica,sans-Serif" font-size="10.00">ctime</text>
</g>
<!-- Node0&#45;&gt;Node3 -->
<g id="edge3" class="edge"><title>Node0&#45;&gt;Node3</title>
<path fill="none" stroke="midnightblue" d="M359.323,-282.629C402.853,-275.108 476.316,-261.639 548.813,-243.879"/>
<polygon fill="midnightblue" stroke="midnightblue" points="549.704,-247.264 558.569,-241.461 548.02,-240.469 549.704,-247.264"/>
</g>
<!-- Node4 -->
<g id="node5" class="node"><title>Node4</title>
<g id="a_node5"><a xlink:href="DynamicStack_8hpp.html" target="_top" xlink:title="DynamicStack.hpp">
<polygon fill="none" stroke="black" points="233.153,-168.5 233.153,-187.5 333.153,-187.5 333.153,-168.5 233.153,-168.5"/>
<text text-anchor="middle" x="283.153" y="-175.5" font-family="Helvetica,sans-Serif" font-size="10.00">DynamicStack.hpp</text>
</a>
</g>
</g>
<!-- Node0&#45;&gt;Node4 -->
<g id="edge4" class="edge"><title>Node0&#45;&gt;Node4</title>
<path fill="none" stroke="midnightblue" d="M318.172,-280.368C312.012,-262.537 297.765,-221.295 289.465,-197.272"/>
<polygon fill="midnightblue" stroke="midnightblue" points="292.695,-195.9 286.121,-187.591 286.078,-198.186 292.695,-195.9"/>
</g>
<!-- Node13 -->
<g id="node14" class="node"><title>Node13</title>
<g id="a_node14"><a xlink:href="StaticQueue_8hpp.html" target="_top" xlink:title="StaticQueue.hpp">
<polygon fill="none" stroke="black" points="351.653,-168.5 351.653,-187.5 440.653,-187.5 440.653,-168.5 351.653,-168.5"/>
<text text-anchor="middle" x="396.153" y="-175.5" font-family="Helvetica,sans-Serif" font-size="10.00">StaticQueue.hpp</text>
</a>
</g>
</g>
<!-- Node0&#45;&gt;Node13 -->
<g id="edge18" class="edge"><title>Node0&#45;&gt;Node13</title>
<path fill="none" stroke="midnightblue" d="M322.908,-280.373C325.868,-267.294 332.778,-242.06 345.153,-224 353.184,-212.281 364.931,-201.638 375.127,-193.648"/>
<polygon fill="midnightblue" stroke="midnightblue" points="377.304,-196.39 383.212,-187.595 373.109,-190.786 377.304,-196.39"/>
</g>
<!-- Node15 -->
<g id="node16" class="node"><title>Node15</title>
<g id="a_node16"><a xlink:href="StaticStack_8hpp.html" target="_top" xlink:title="StaticStack.hpp">
<polygon fill="none" stroke="black" points="459.153,-168.5 459.153,-187.5 545.153,-187.5 545.153,-168.5 459.153,-168.5"/>
<text text-anchor="middle" x="502.153" y="-175.5" font-family="Helvetica,sans-Serif" font-size="10.00">StaticStack.hpp</text>
</a>
</g>
</g>
<!-- Node0&#45;&gt;Node15 -->
<g id="edge24" class="edge"><title>Node0&#45;&gt;Node15</title>
<path fill="none" stroke="midnightblue" d="M326.733,-280.165C335.882,-266.344 355.353,-239.582 378.153,-224 401.087,-208.327 430.124,-197.404 454.333,-190.249"/>
<polygon fill="midnightblue" stroke="midnightblue" points="455.367,-193.593 464.036,-187.503 453.46,-186.858 455.367,-193.593"/>
</g>
<!-- Node16 -->
<g id="node17" class="node"><title>Node16</title>
<g id="a_node17"><a xlink:href="DynamicQueue_8hpp.html" target="_top" xlink:title="DynamicQueue.hpp">
<polygon fill="none" stroke="black" points="111.653,-168.5 111.653,-187.5 214.653,-187.5 214.653,-168.5 111.653,-168.5"/>
<text text-anchor="middle" x="163.153" y="-175.5" font-family="Helvetica,sans-Serif" font-size="10.00">DynamicQueue.hpp</text>
</a>
</g>
</g>
<!-- Node0&#45;&gt;Node16 -->
<g id="edge28" class="edge"><title>Node0&#45;&gt;Node16</title>
<path fill="none" stroke="midnightblue" d="M308.755,-280.368C281.758,-261.573 217.403,-216.768 184.029,-193.533"/>
<polygon fill="midnightblue" stroke="midnightblue" points="185.701,-190.433 175.494,-187.591 181.701,-196.178 185.701,-190.433"/>
</g>
<!-- Node17 -->
<g id="node18" class="node"><title>Node17</title>
<g id="a_node18"><a xlink:href="LinkedList_8hpp.html" target="_top" xlink:title="LinkedList.hpp">
<polygon fill="none" stroke="black" points="13.1534,-168.5 13.1534,-187.5 93.1534,-187.5 93.1534,-168.5 13.1534,-168.5"/>
<text text-anchor="middle" x="53.1534" y="-175.5" font-family="Helvetica,sans-Serif" font-size="10.00">LinkedList.hpp</text>
</a>
</g>
</g>
<!-- Node0&#45;&gt;Node17 -->
<g id="edge33" class="edge"><title>Node0&#45;&gt;Node17</title>
<path fill="none" stroke="midnightblue" d="M300.124,-280.368C252.961,-261.01 138.583,-214.065 83.6259,-191.507"/>
<polygon fill="midnightblue" stroke="midnightblue" points="84.6653,-188.151 74.0852,-187.591 82.0073,-194.626 84.6653,-188.151"/>
</g>
<!-- Node18 -->
<g id="node19" class="node"><title>Node18</title>
<g id="a_node19"><a xlink:href="OrderedList_8hpp.html" target="_top" xlink:title="OrderedList.hpp">
<polygon fill="none" stroke="black" points="387.153,-224.5 387.153,-243.5 473.153,-243.5 473.153,-224.5 387.153,-224.5"/>
<text text-anchor="middle" x="430.153" y="-231.5" font-family="Helvetica,sans-Serif" font-size="10.00">OrderedList.hpp</text>
</a>
</g>
</g>
<!-- Node0&#45;&gt;Node18 -->
<g id="edge36" class="edge"><title>Node0&#45;&gt;Node18</title>
<path fill="none" stroke="midnightblue" d="M338.666,-280.324C356.226,-271.625 383.485,-258.12 403.685,-248.113"/>
<polygon fill="midnightblue" stroke="midnightblue" points="405.277,-251.23 412.684,-243.655 402.17,-244.958 405.277,-251.23"/>
</g>
<!-- Node4&#45;&gt;Node1 -->
<g id="edge6" class="edge"><title>Node4&#45;&gt;Node1</title>
<path fill="none" stroke="midnightblue" d="M244.596,-168.437C206.938,-160.019 147.744,-146.644 87.3583,-132.253"/>
<polygon fill="midnightblue" stroke="midnightblue" points="87.8054,-128.761 77.2657,-129.841 86.1782,-135.57 87.8054,-128.761"/>
</g>
<!-- Node5 -->
<g id="node6" class="node"><title>Node5</title>
<polygon fill="none" stroke="#bfbfbf" points="253.653,-56.5 253.653,-75.5 312.653,-75.5 312.653,-56.5 253.653,-56.5"/>
<text text-anchor="middle" x="283.153" y="-63.5" font-family="Helvetica,sans-Serif" font-size="10.00">stdexcept</text>
</g>
<!-- Node4&#45;&gt;Node5 -->
<g id="edge5" class="edge"><title>Node4&#45;&gt;Node5</title>
<path fill="none" stroke="midnightblue" d="M283.153,-168.368C283.153,-150.617 283.153,-109.666 283.153,-85.5974"/>
<polygon fill="midnightblue" stroke="midnightblue" points="286.654,-85.5914 283.153,-75.5914 279.654,-85.5915 286.654,-85.5914"/>
</g>
<!-- Node6 -->
<g id="node7" class="node"><title>Node6</title>
<g id="a_node7"><a xlink:href="Stack_8hpp.html" target="_top" xlink:title="Stack.hpp">
<polygon fill="none" stroke="black" points="469.653,-112.5 469.653,-131.5 530.653,-131.5 530.653,-112.5 469.653,-112.5"/>
<text text-anchor="middle" x="500.153" y="-119.5" font-family="Helvetica,sans-Serif" font-size="10.00">Stack.hpp</text>
</a>
</g>
</g>
<!-- Node4&#45;&gt;Node6 -->
<g id="edge7" class="edge"><title>Node4&#45;&gt;Node6</title>
<path fill="none" stroke="midnightblue" d="M317.538,-168.444C356.098,-158.848 418.581,-143.299 459.522,-133.111"/>
<polygon fill="midnightblue" stroke="midnightblue" points="460.58,-136.455 469.439,-130.643 458.889,-129.662 460.58,-136.455"/>
</g>
<!-- Node9 -->
<g id="node10" class="node"><title>Node9</title>
<g id="a_node10"><a xlink:href="ProtectedLinkedList_8hpp.html" target="_top" xlink:title="ProtectedLinkedList.hpp">
<polygon fill="none" stroke="black" points="95.1534,-112.5 95.1534,-131.5 217.153,-131.5 217.153,-112.5 95.1534,-112.5"/>
<text text-anchor="middle" x="156.153" y="-119.5" font-family="Helvetica,sans-Serif" font-size="10.00">ProtectedLinkedList.hpp</text>
</a>
</g>
</g>
<!-- Node4&#45;&gt;Node9 -->
<g id="edge11" class="edge"><title>Node4&#45;&gt;Node9</title>
<path fill="none" stroke="midnightblue" d="M263.03,-168.444C242.129,-159.557 209.219,-145.563 185.437,-135.451"/>
<polygon fill="midnightblue" stroke="midnightblue" points="186.755,-132.208 176.183,-131.516 184.016,-138.65 186.755,-132.208"/>
</g>
<!-- Node7 -->
<g id="node8" class="node"><title>Node7</title>
<polygon fill="none" stroke="#bfbfbf" points="471.653,-0.5 471.653,-19.5 512.653,-19.5 512.653,-0.5 471.653,-0.5"/>
<text text-anchor="middle" x="492.153" y="-7.5" font-family="Helvetica,sans-Serif" font-size="10.00">string</text>
</g>
<!-- Node6&#45;&gt;Node7 -->
<g id="edge8" class="edge"><title>Node6&#45;&gt;Node7</title>
<path fill="none" stroke="midnightblue" d="M499.526,-112.368C498.235,-94.617 495.256,-53.6664 493.506,-29.5974"/>
<polygon fill="midnightblue" stroke="midnightblue" points="496.994,-29.3112 492.778,-19.5914 490.013,-29.819 496.994,-29.3112"/>
</g>
<!-- Node8 -->
<g id="node9" class="node"><title>Node8</title>
<g id="a_node9"><a xlink:href="DataStructure_8hpp.html" target="_top" xlink:title="DataStructure.hpp">
<polygon fill="none" stroke="black" points="349.153,-56.5 349.153,-75.5 445.153,-75.5 445.153,-56.5 349.153,-56.5"/>
<text text-anchor="middle" x="397.153" y="-63.5" font-family="Helvetica,sans-Serif" font-size="10.00">DataStructure.hpp</text>
</a>
</g>
</g>
<!-- Node6&#45;&gt;Node8 -->
<g id="edge9" class="edge"><title>Node6&#45;&gt;Node8</title>
<path fill="none" stroke="midnightblue" d="M483.605,-112.324C467.162,-103.703 441.719,-90.3643 422.685,-80.3855"/>
<polygon fill="midnightblue" stroke="midnightblue" points="424.143,-77.198 413.661,-75.6545 420.893,-83.3977 424.143,-77.198"/>
</g>
<!-- Node8&#45;&gt;Node7 -->
<g id="edge10" class="edge"><title>Node8&#45;&gt;Node7</title>
<path fill="none" stroke="midnightblue" d="M412.417,-56.324C427.375,-47.8215 450.408,-34.7288 467.88,-24.7975"/>
<polygon fill="midnightblue" stroke="midnightblue" points="469.964,-27.639 476.928,-19.6545 466.505,-21.5534 469.964,-27.639"/>
</g>
<!-- Node9&#45;&gt;Node5 -->
<g id="edge13" class="edge"><title>Node9&#45;&gt;Node5</title>
<path fill="none" stroke="midnightblue" d="M176.277,-112.444C197.178,-103.557 230.088,-89.5632 253.87,-79.4514"/>
<polygon fill="midnightblue" stroke="midnightblue" points="255.291,-82.6504 263.124,-75.5164 252.552,-76.2085 255.291,-82.6504"/>
</g>
<!-- Node9&#45;&gt;Node7 -->
<g id="edge12" class="edge"><title>Node9&#45;&gt;Node7</title>
<path fill="none" stroke="midnightblue" d="M165.02,-112.221C179.963,-97.976 211.723,-70.0122 244.153,-56 317.91,-24.1321 413.443,-14.8285 461.573,-12.1152"/>
<polygon fill="midnightblue" stroke="midnightblue" points="461.839,-15.6063 471.649,-11.6057 461.485,-8.61521 461.839,-15.6063"/>
</g>
<!-- Node9&#45;&gt;Node8 -->
<g id="edge16" class="edge"><title>Node9&#45;&gt;Node8</title>
<path fill="none" stroke="midnightblue" d="M194.341,-112.444C236.294,-103.043 303.747,-87.9291 349.224,-77.7393"/>
<polygon fill="midnightblue" stroke="midnightblue" points="350.152,-81.1183 359.145,-75.5164 348.622,-74.2876 350.152,-81.1183"/>
</g>
<!-- Node10 -->
<g id="node11" class="node"><title>Node10</title>
<g id="a_node11"><a xlink:href="Node_8hpp.html" target="_top" xlink:title="Node.hpp">
<polygon fill="none" stroke="black" points="48.6534,-56.5 48.6534,-75.5 107.653,-75.5 107.653,-56.5 48.6534,-56.5"/>
<text text-anchor="middle" x="78.1534" y="-63.5" font-family="Helvetica,sans-Serif" font-size="10.00">Node.hpp</text>
</a>
</g>
</g>
<!-- Node9&#45;&gt;Node10 -->
<g id="edge14" class="edge"><title>Node9&#45;&gt;Node10</title>
<path fill="none" stroke="midnightblue" d="M143.621,-112.324C131.567,-103.979 113.127,-91.2122 98.8847,-81.3524"/>
<polygon fill="midnightblue" stroke="midnightblue" points="100.869,-78.469 90.6544,-75.6545 96.8841,-84.2243 100.869,-78.469"/>
</g>
<!-- Node12 -->
<g id="node13" class="node"><title>Node12</title>
<g id="a_node13"><a xlink:href="Iterator_8hpp.html" target="_top" xlink:title="Iterator.hpp">
<polygon fill="none" stroke="black" points="125.653,-56.5 125.653,-75.5 190.653,-75.5 190.653,-56.5 125.653,-56.5"/>
<text text-anchor="middle" x="158.153" y="-63.5" font-family="Helvetica,sans-Serif" font-size="10.00">Iterator.hpp</text>
</a>
</g>
</g>
<!-- Node9&#45;&gt;Node12 -->
<g id="edge17" class="edge"><title>Node9&#45;&gt;Node12</title>
<path fill="none" stroke="midnightblue" d="M156.484,-112.083C156.746,-105.006 157.122,-94.8611 157.45,-85.9865"/>
<polygon fill="midnightblue" stroke="midnightblue" points="160.957,-85.8738 157.829,-75.7511 153.961,-85.6147 160.957,-85.8738"/>
</g>
<!-- Node11 -->
<g id="node12" class="node"><title>Node11</title>
<polygon fill="none" stroke="#bfbfbf" points="52.1534,-0.5 52.1534,-19.5 104.153,-19.5 104.153,-0.5 52.1534,-0.5"/>
<text text-anchor="middle" x="78.1534" y="-7.5" font-family="Helvetica,sans-Serif" font-size="10.00">stddef.h</text>
</g>
<!-- Node10&#45;&gt;Node11 -->
<g id="edge15" class="edge"><title>Node10&#45;&gt;Node11</title>
<path fill="none" stroke="midnightblue" d="M78.1534,-56.083C78.1534,-49.0059 78.1534,-38.8611 78.1534,-29.9865"/>
<polygon fill="midnightblue" stroke="midnightblue" points="81.6535,-29.751 78.1534,-19.7511 74.6535,-29.7511 81.6535,-29.751"/>
</g>
<!-- Node13&#45;&gt;Node5 -->
<g id="edge19" class="edge"><title>Node13&#45;&gt;Node5</title>
<path fill="none" stroke="midnightblue" d="M385.761,-168.287C375.287,-159.401 358.769,-145.098 345.153,-132 328.4,-115.884 310.136,-96.4982 297.801,-83.1143"/>
<polygon fill="midnightblue" stroke="midnightblue" points="300.289,-80.6488 290.953,-75.6394 295.127,-85.3773 300.289,-80.6488"/>
</g>
<!-- Node13&#45;&gt;Node7 -->
<g id="edge20" class="edge"><title>Node13&#45;&gt;Node7</title>
<path fill="none" stroke="midnightblue" d="M440.887,-168.881C478.278,-161.076 527.337,-148.106 539.153,-132 563.467,-98.8604 529.281,-51.5255 507.61,-27.042"/>
<polygon fill="midnightblue" stroke="midnightblue" points="510.183,-24.6694 500.843,-19.6684 505.026,-29.4026 510.183,-24.6694"/>
</g>
<!-- Node14 -->
<g id="node15" class="node"><title>Node14</title>
<g id="a_node15"><a xlink:href="Queue_8hpp.html" target="_top" xlink:title="Queue.hpp">
<polygon fill="none" stroke="black" points="387.153,-112.5 387.153,-131.5 451.153,-131.5 451.153,-112.5 387.153,-112.5"/>
<text text-anchor="middle" x="419.153" y="-119.5" font-family="Helvetica,sans-Serif" font-size="10.00">Queue.hpp</text>
</a>
</g>
</g>
<!-- Node13&#45;&gt;Node14 -->
<g id="edge21" class="edge"><title>Node13&#45;&gt;Node14</title>
<path fill="none" stroke="midnightblue" d="M399.951,-168.083C403.066,-160.77 407.576,-150.181 411.443,-141.103"/>
<polygon fill="midnightblue" stroke="midnightblue" points="414.728,-142.323 415.426,-131.751 408.287,-139.58 414.728,-142.323"/>
</g>
<!-- Node14&#45;&gt;Node7 -->
<g id="edge22" class="edge"><title>Node14&#45;&gt;Node7</title>
<path fill="none" stroke="midnightblue" d="M426.483,-112.294C433.824,-103.414 445.277,-89.114 454.153,-76 464.663,-60.4729 475.325,-41.9395 482.67,-28.6432"/>
<polygon fill="midnightblue" stroke="midnightblue" points="485.868,-30.0883 487.582,-19.6329 479.722,-26.7377 485.868,-30.0883"/>
</g>
<!-- Node14&#45;&gt;Node8 -->
<g id="edge23" class="edge"><title>Node14&#45;&gt;Node8</title>
<path fill="none" stroke="midnightblue" d="M415.521,-112.083C412.541,-104.77 408.227,-94.1814 404.529,-85.1034"/>
<polygon fill="midnightblue" stroke="midnightblue" points="407.733,-83.6914 400.719,-75.7511 401.25,-86.3326 407.733,-83.6914"/>
</g>
<!-- Node15&#45;&gt;Node5 -->
<g id="edge25" class="edge"><title>Node15&#45;&gt;Node5</title>
<path fill="none" stroke="midnightblue" d="M472.212,-168.467C446.534,-160.607 408.921,-147.787 378.153,-132 363.085,-124.268 326.323,-98.2796 303.201,-81.5999"/>
<polygon fill="midnightblue" stroke="midnightblue" points="304.949,-78.5443 294.797,-75.5141 300.843,-84.214 304.949,-78.5443"/>
</g>
<!-- Node15&#45;&gt;Node6 -->
<g id="edge27" class="edge"><title>Node15&#45;&gt;Node6</title>
<path fill="none" stroke="midnightblue" d="M501.823,-168.083C501.561,-161.006 501.185,-150.861 500.857,-141.986"/>
<polygon fill="midnightblue" stroke="midnightblue" points="504.345,-141.615 500.478,-131.751 497.35,-141.874 504.345,-141.615"/>
</g>
<!-- Node15&#45;&gt;Node7 -->
<g id="edge26" class="edge"><title>Node15&#45;&gt;Node7</title>
<path fill="none" stroke="midnightblue" d="M527.314,-168.378C543.573,-161.343 563.446,-149.645 573.153,-132 589.435,-102.405 590.283,-85.1121 573.153,-56 562.278,-37.5164 540.763,-26.0803 522.64,-19.3642"/>
<polygon fill="midnightblue" stroke="midnightblue" points="523.603,-15.9953 513.009,-16.1038 521.359,-22.6257 523.603,-15.9953"/>
</g>
<!-- Node16&#45;&gt;Node1 -->
<g id="edge30" class="edge"><title>Node16&#45;&gt;Node1</title>
<path fill="none" stroke="midnightblue" d="M145.248,-168.444C126.899,-159.675 98.148,-145.935 77.0598,-135.858"/>
<polygon fill="midnightblue" stroke="midnightblue" points="78.5067,-132.67 67.9748,-131.516 75.4884,-138.986 78.5067,-132.67"/>
</g>
<!-- Node16&#45;&gt;Node5 -->
<g id="edge29" class="edge"><title>Node16&#45;&gt;Node5</title>
<path fill="none" stroke="midnightblue" d="M177.112,-168.369C190.357,-159.877 210.507,-146.16 226.153,-132 242.768,-116.964 259.39,-97.3585 270.36,-83.6272"/>
<polygon fill="midnightblue" stroke="midnightblue" points="273.272,-85.5855 276.696,-75.559 267.767,-81.2622 273.272,-85.5855"/>
</g>
<!-- Node16&#45;&gt;Node9 -->
<g id="edge32" class="edge"><title>Node16&#45;&gt;Node9</title>
<path fill="none" stroke="midnightblue" d="M161.998,-168.083C161.07,-160.927 159.736,-150.635 158.576,-141.691"/>
<polygon fill="midnightblue" stroke="midnightblue" points="162.044,-141.218 157.288,-131.751 155.102,-142.118 162.044,-141.218"/>
</g>
<!-- Node16&#45;&gt;Node14 -->
<g id="edge31" class="edge"><title>Node16&#45;&gt;Node14</title>
<path fill="none" stroke="midnightblue" d="M203.717,-168.444C251.003,-158.469 328.783,-142.062 376.816,-131.931"/>
<polygon fill="midnightblue" stroke="midnightblue" points="377.823,-135.295 386.885,-129.807 376.378,-128.446 377.823,-135.295"/>
</g>
<!-- Node17&#45;&gt;Node1 -->
<g id="edge34" class="edge"><title>Node17&#45;&gt;Node1</title>
<path fill="none" stroke="midnightblue" d="M52.658,-168.083C52.2649,-161.006 51.7013,-150.861 51.2082,-141.986"/>
<polygon fill="midnightblue" stroke="midnightblue" points="54.689,-141.542 50.6396,-131.751 47.6998,-141.93 54.689,-141.542"/>
</g>
<!-- Node17&#45;&gt;Node9 -->
<g id="edge35" class="edge"><title>Node17&#45;&gt;Node9</title>
<path fill="none" stroke="midnightblue" d="M69.7021,-168.324C86.145,-159.703 111.588,-146.364 130.622,-136.386"/>
<polygon fill="midnightblue" stroke="midnightblue" points="132.414,-139.398 139.646,-131.655 129.164,-133.198 132.414,-139.398"/>
</g>
<!-- Node18&#45;&gt;Node17 -->
<g id="edge37" class="edge"><title>Node18&#45;&gt;Node17</title>
<path fill="none" stroke="midnightblue" d="M387.08,-227.722C326.197,-220.124 211.254,-205.27 103.325,-188.127"/>
<polygon fill="midnightblue" stroke="midnightblue" points="103.666,-184.638 93.2393,-186.515 102.562,-191.55 103.666,-184.638"/>
</g>
<!-- Node19 -->
<g id="node20" class="node"><title>Node19</title>
<polygon fill="none" stroke="#bfbfbf" points="563.153,-168.5 563.153,-187.5 625.153,-187.5 625.153,-168.5 563.153,-168.5"/>
<text text-anchor="middle" x="594.153" y="-175.5" font-family="Helvetica,sans-Serif" font-size="10.00">type_traits</text>
</g>
<!-- Node18&#45;&gt;Node19 -->
<g id="edge38" class="edge"><title>Node18&#45;&gt;Node19</title>
<path fill="none" stroke="midnightblue" d="M456.14,-224.444C483.849,-215.32 527.906,-200.813 558.769,-190.651"/>
<polygon fill="midnightblue" stroke="midnightblue" points="559.885,-193.968 568.289,-187.516 557.696,-187.32 559.885,-193.968"/>
</g>
<!-- Node20 -->
<g id="node21" class="node"><title>Node20</title>
<polygon fill="none" stroke="#bfbfbf" points="643.653,-168.5 643.653,-187.5 702.653,-187.5 702.653,-168.5 643.653,-168.5"/>
<text text-anchor="middle" x="673.153" y="-175.5" font-family="Helvetica,sans-Serif" font-size="10.00">functional</text>
</g>
<!-- Node18&#45;&gt;Node20 -->
<g id="edge39" class="edge"><title>Node18&#45;&gt;Node20</title>
<path fill="none" stroke="midnightblue" d="M469.287,-224.486C508.286,-215.974 570.155,-202.401 633.221,-188.194"/>
<polygon fill="midnightblue" stroke="midnightblue" points="634.365,-191.524 643.35,-185.909 632.825,-184.695 634.365,-191.524"/>
</g>
</g>
</svg>
