<?xml version="1.0" encoding="UTF-8" standalone="no"?>
<!DOCTYPE svg PUBLIC "-//W3C//DTD SVG 1.1//EN"
 "http://www.w3.org/Graphics/SVG/1.1/DTD/svg11.dtd">
<!-- Generated by graphviz version 2.38.0 (20140413.2041)
 -->
<!-- Title: include/ProtectedLinkedList.hpp Pages: 1 -->
<svg width="272pt" height="140pt"
 viewBox="0.00 0.00 272.32 140.00" xmlns="http://www.w3.org/2000/svg" xmlns:xlink="http://www.w3.org/1999/xlink">
<g id="graph0" class="graph" transform="scale(1 1) rotate(0) translate(4 136)">
<title>include/ProtectedLinkedList.hpp</title>
<!-- Node0 -->
<g id="node1" class="node"><title>Node0</title>
<polygon fill="#bfbfbf" stroke="black" points="13.3156,-112.5 13.3156,-131.5 168.316,-131.5 168.316,-112.5 13.3156,-112.5"/>
<text text-anchor="middle" x="90.8156" y="-119.5" font-family="Helvetica,sans-Serif" font-size="10.00">include/ProtectedLinkedList.hpp</text>
</g>
<!-- Node1 -->
<g id="node2" class="node"><title>Node1</title>
<polygon fill="none" stroke="#bfbfbf" points="41.3156,-0.5 41.3156,-19.5 82.3156,-19.5 82.3156,-0.5 41.3156,-0.5"/>
<text text-anchor="middle" x="61.8156" y="-7.5" font-family="Helvetica,sans-Serif" font-size="10.00">string</text>
</g>
<!-- Node0&#45;&gt;Node1 -->
<g id="edge1" class="edge"><title>Node0&#45;&gt;Node1</title>
<path fill="none" stroke="midnightblue" d="M55.8027,-112.445C36.8818,-105.844 15.1318,-94.5936 3.81559,-76 -8.17075,-56.3053 14.6842,-37.0177 35.1365,-24.6358"/>
<polygon fill="midnightblue" stroke="midnightblue" points="36.9869,-27.6098 43.9377,-19.6137 33.5176,-21.5299 36.9869,-27.6098"/>
</g>
<!-- Node2 -->
<g id="node3" class="node"><title>Node2</title>
<polygon fill="none" stroke="#bfbfbf" points="13.3156,-56.5 13.3156,-75.5 72.3156,-75.5 72.3156,-56.5 13.3156,-56.5"/>
<text text-anchor="middle" x="42.8156" y="-63.5" font-family="Helvetica,sans-Serif" font-size="10.00">stdexcept</text>
</g>
<!-- Node0&#45;&gt;Node2 -->
<g id="edge2" class="edge"><title>Node0&#45;&gt;Node2</title>
<path fill="none" stroke="midnightblue" d="M82.8894,-112.083C75.9695,-104.298 65.7502,-92.8015 57.3636,-83.3665"/>
<polygon fill="midnightblue" stroke="midnightblue" points="59.8539,-80.8999 50.5943,-75.7511 54.6221,-85.5505 59.8539,-80.8999"/>
</g>
<!-- Node3 -->
<g id="node4" class="node"><title>Node3</title>
<g id="a_node4"><a xlink:href="Node_8hpp.html" target="_top" xlink:title="Node.hpp">
<polygon fill="none" stroke="black" points="205.316,-56.5 205.316,-75.5 264.316,-75.5 264.316,-56.5 205.316,-56.5"/>
<text text-anchor="middle" x="234.816" y="-63.5" font-family="Helvetica,sans-Serif" font-size="10.00">Node.hpp</text>
</a>
</g>
</g>
<!-- Node0&#45;&gt;Node3 -->
<g id="edge3" class="edge"><title>Node0&#45;&gt;Node3</title>
<path fill="none" stroke="midnightblue" d="M113.633,-112.444C137.647,-103.438 175.645,-89.1891 202.685,-79.049"/>
<polygon fill="midnightblue" stroke="midnightblue" points="203.971,-82.3049 212.105,-75.5164 201.513,-75.7506 203.971,-82.3049"/>
</g>
<!-- Node5 -->
<g id="node6" class="node"><title>Node5</title>
<g id="a_node6"><a xlink:href="DataStructure_8hpp.html" target="_top" xlink:title="DataStructure.hpp">
<polygon fill="none" stroke="black" points="90.8156,-56.5 90.8156,-75.5 186.816,-75.5 186.816,-56.5 90.8156,-56.5"/>
<text text-anchor="middle" x="138.816" y="-63.5" font-family="Helvetica,sans-Serif" font-size="10.00">DataStructure.hpp</text>
</a>
</g>
</g>
<!-- Node0&#45;&gt;Node5 -->
<g id="edge5" class="edge"><title>Node0&#45;&gt;Node5</title>
<path fill="none" stroke="midnightblue" d="M98.7418,-112.083C105.662,-104.298 115.881,-92.8015 124.268,-83.3665"/>
<polygon fill="midnightblue" stroke="midnightblue" points="127.009,-85.5505 131.037,-75.7511 121.777,-80.8999 127.009,-85.5505"/>
</g>
<!-- Node4 -->
<g id="node5" class="node"><title>Node4</title>
<polygon fill="none" stroke="#bfbfbf" points="208.816,-0.5 208.816,-19.5 260.816,-19.5 260.816,-0.5 208.816,-0.5"/>
<text text-anchor="middle" x="234.816" y="-7.5" font-family="Helvetica,sans-Serif" font-size="10.00">stddef.h</text>
</g>
<!-- Node3&#45;&gt;Node4 -->
<g id="edge4" class="edge"><title>Node3&#45;&gt;Node4</title>
<path fill="none" stroke="midnightblue" d="M234.816,-56.083C234.816,-49.0059 234.816,-38.8611 234.816,-29.9865"/>
<polygon fill="midnightblue" stroke="midnightblue" points="238.316,-29.751 234.816,-19.7511 231.316,-29.7511 238.316,-29.751"/>
</g>
<!-- Node5&#45;&gt;Node1 -->
<g id="edge6" class="edge"><title>Node5&#45;&gt;Node1</title>
<path fill="none" stroke="midnightblue" d="M126.444,-56.324C114.657,-48.0577 96.6833,-35.4527 82.6801,-25.6322"/>
<polygon fill="midnightblue" stroke="midnightblue" points="84.3532,-22.5307 74.1563,-19.6545 80.334,-28.2619 84.3532,-22.5307"/>
</g>
</g>
</svg>
