<?xml version="1.0" encoding="UTF-8" standalone="no"?>
<!DOCTYPE svg PUBLIC "-//W3C//DTD SVG 1.1//EN"
 "http://www.w3.org/Graphics/SVG/1.1/DTD/svg11.dtd">
<!-- Generated by graphviz version 2.38.0 (20140413.2041)
 -->
<!-- Title: include/ProtectedLinkedList.hpp Pages: 1 -->
<svg width="432pt" height="140pt"
 viewBox="0.00 0.00 432.00 140.00" xmlns="http://www.w3.org/2000/svg" xmlns:xlink="http://www.w3.org/1999/xlink">
<g id="graph0" class="graph" transform="scale(1 1) rotate(0) translate(4 136)">
<title>include/ProtectedLinkedList.hpp</title>
<!-- Node6 -->
<g id="node1" class="node"><title>Node6</title>
<polygon fill="#bfbfbf" stroke="black" points="145,-112.5 145,-131.5 300,-131.5 300,-112.5 145,-112.5"/>
<text text-anchor="middle" x="222.5" y="-119.5" font-family="Helvetica,sans-Serif" font-size="10.00">include/ProtectedLinkedList.hpp</text>
</g>
<!-- Node7 -->
<g id="node2" class="node"><title>Node7</title>
<g id="a_node2"><a xlink:href="DynamicQueue_8hpp.html" target="_top" xlink:title="include/DynamicQueue.hpp">
<polygon fill="none" stroke="black" points="0,-56.5 0,-75.5 137,-75.5 137,-56.5 0,-56.5"/>
<text text-anchor="middle" x="68.5" y="-63.5" font-family="Helvetica,sans-Serif" font-size="10.00">include/DynamicQueue.hpp</text>
</a>
</g>
</g>
<!-- Node6&#45;&gt;Node7 -->
<g id="edge1" class="edge"><title>Node6&#45;&gt;Node7</title>
<path fill="none" stroke="midnightblue" d="M188.389,-109.039C159.413,-98.8786 118.538,-84.5457 92.7876,-75.5164"/>
<polygon fill="midnightblue" stroke="midnightblue" points="187.503,-112.437 198.098,-112.444 189.82,-105.832 187.503,-112.437"/>
</g>
<!-- Node8 -->
<g id="node3" class="node"><title>Node8</title>
<g id="a_node3"><a xlink:href="DynamicStack_8hpp.html" target="_top" xlink:title="include/DynamicStack.hpp">
<polygon fill="none" stroke="black" points="155.5,-56.5 155.5,-75.5 289.5,-75.5 289.5,-56.5 155.5,-56.5"/>
<text text-anchor="middle" x="222.5" y="-63.5" font-family="Helvetica,sans-Serif" font-size="10.00">include/DynamicStack.hpp</text>
</a>
</g>
</g>
<!-- Node6&#45;&gt;Node8 -->
<g id="edge2" class="edge"><title>Node6&#45;&gt;Node8</title>
<path fill="none" stroke="midnightblue" d="M222.5,-101.805C222.5,-92.9102 222.5,-82.7798 222.5,-75.7511"/>
<polygon fill="midnightblue" stroke="midnightblue" points="219,-102.083 222.5,-112.083 226,-102.083 219,-102.083"/>
</g>
<!-- Node9 -->
<g id="node4" class="node"><title>Node9</title>
<g id="a_node4"><a xlink:href="LinkedList_8hpp.html" target="_top" xlink:title="include/LinkedList.hpp">
<polygon fill="none" stroke="black" points="307.5,-56.5 307.5,-75.5 421.5,-75.5 421.5,-56.5 307.5,-56.5"/>
<text text-anchor="middle" x="364.5" y="-63.5" font-family="Helvetica,sans-Serif" font-size="10.00">include/LinkedList.hpp</text>
</a>
</g>
</g>
<!-- Node6&#45;&gt;Node9 -->
<g id="edge3" class="edge"><title>Node6&#45;&gt;Node9</title>
<path fill="none" stroke="midnightblue" d="M254.655,-108.772C281.328,-98.6287 318.569,-84.4669 342.105,-75.5164"/>
<polygon fill="midnightblue" stroke="midnightblue" points="253.103,-105.618 245,-112.444 255.591,-112.16 253.103,-105.618"/>
</g>
<!-- Node10 -->
<g id="node5" class="node"><title>Node10</title>
<g id="a_node5"><a xlink:href="OrderedList_8hpp.html" target="_top" xlink:title="include/OrderedList.hpp">
<polygon fill="none" stroke="black" points="305,-0.5 305,-19.5 424,-19.5 424,-0.5 305,-0.5"/>
<text text-anchor="middle" x="364.5" y="-7.5" font-family="Helvetica,sans-Serif" font-size="10.00">include/OrderedList.hpp</text>
</a>
</g>
</g>
<!-- Node9&#45;&gt;Node10 -->
<g id="edge4" class="edge"><title>Node9&#45;&gt;Node10</title>
<path fill="none" stroke="midnightblue" d="M364.5,-45.8045C364.5,-36.9102 364.5,-26.7798 364.5,-19.7511"/>
<polygon fill="midnightblue" stroke="midnightblue" points="361,-46.083 364.5,-56.083 368,-46.083 361,-46.083"/>
</g>
</g>
</svg>
