<?xml version="1.0" encoding="UTF-8" standalone="no"?>
<!DOCTYPE svg PUBLIC "-//W3C//DTD SVG 1.1//EN"
 "http://www.w3.org/Graphics/SVG/1.1/DTD/svg11.dtd">
<!-- Generated by graphviz version 2.38.0 (20140413.2041)
 -->
<!-- Title: include/ProtectedLinkedList.hpp Pages: 1 -->
<svg width="356pt" height="140pt"
 viewBox="0.00 0.00 355.65 140.00" xmlns="http://www.w3.org/2000/svg" xmlns:xlink="http://www.w3.org/1999/xlink">
<g id="graph0" class="graph" transform="scale(1 1) rotate(0) translate(4 136)">
<title>include/ProtectedLinkedList.hpp</title>
<!-- Node0 -->
<g id="node1" class="node"><title>Node0</title>
<polygon fill="#bfbfbf" stroke="black" points="61.6532,-112.5 61.6532,-131.5 216.653,-131.5 216.653,-112.5 61.6532,-112.5"/>
<text text-anchor="middle" x="139.153" y="-119.5" font-family="Helvetica,sans-Serif" font-size="10.00">include/ProtectedLinkedList.hpp</text>
</g>
<!-- Node1 -->
<g id="node2" class="node"><title>Node1</title>
<polygon fill="none" stroke="#bfbfbf" points="41.6532,-0.5 41.6532,-19.5 82.6532,-19.5 82.6532,-0.5 41.6532,-0.5"/>
<text text-anchor="middle" x="62.1532" y="-7.5" font-family="Helvetica,sans-Serif" font-size="10.00">string</text>
</g>
<!-- Node0&#45;&gt;Node1 -->
<g id="edge1" class="edge"><title>Node0&#45;&gt;Node1</title>
<path fill="none" stroke="midnightblue" d="M62.0577,-112.482C39.7726,-106.028 17.8041,-94.9397 4.15316,-76 -9.54278,-56.9979 14.5609,-37.1975 35.7409,-24.5195"/>
<polygon fill="midnightblue" stroke="midnightblue" points="37.5451,-27.5201 44.5203,-19.5453 34.0944,-21.4297 37.5451,-27.5201"/>
</g>
<!-- Node2 -->
<g id="node3" class="node"><title>Node2</title>
<polygon fill="none" stroke="#bfbfbf" points="13.6532,-56.5 13.6532,-75.5 72.6532,-75.5 72.6532,-56.5 13.6532,-56.5"/>
<text text-anchor="middle" x="43.1532" y="-63.5" font-family="Helvetica,sans-Serif" font-size="10.00">stdexcept</text>
</g>
<!-- Node0&#45;&gt;Node2 -->
<g id="edge2" class="edge"><title>Node0&#45;&gt;Node2</title>
<path fill="none" stroke="midnightblue" d="M123.729,-112.324C108.614,-103.822 85.3378,-90.7288 67.682,-80.7975"/>
<polygon fill="midnightblue" stroke="midnightblue" points="68.9706,-77.5066 58.5389,-75.6545 65.5388,-83.6077 68.9706,-77.5066"/>
</g>
<!-- Node3 -->
<g id="node4" class="node"><title>Node3</title>
<g id="a_node4"><a xlink:href="Node_8hpp.html" target="_top" xlink:title="Node.hpp">
<polygon fill="none" stroke="black" points="205.653,-56.5 205.653,-75.5 264.653,-75.5 264.653,-56.5 205.653,-56.5"/>
<text text-anchor="middle" x="235.153" y="-63.5" font-family="Helvetica,sans-Serif" font-size="10.00">Node.hpp</text>
</a>
</g>
</g>
<!-- Node0&#45;&gt;Node3 -->
<g id="edge3" class="edge"><title>Node0&#45;&gt;Node3</title>
<path fill="none" stroke="midnightblue" d="M154.577,-112.324C169.693,-103.822 192.969,-90.7288 210.624,-80.7975"/>
<polygon fill="midnightblue" stroke="midnightblue" points="212.768,-83.6077 219.767,-75.6545 209.336,-77.5066 212.768,-83.6077"/>
</g>
<!-- Node5 -->
<g id="node6" class="node"><title>Node5</title>
<g id="a_node6"><a xlink:href="DataStructure_8hpp.html" target="_top" xlink:title="DataStructure.hpp">
<polygon fill="none" stroke="black" points="91.1532,-56.5 91.1532,-75.5 187.153,-75.5 187.153,-56.5 91.1532,-56.5"/>
<text text-anchor="middle" x="139.153" y="-63.5" font-family="Helvetica,sans-Serif" font-size="10.00">DataStructure.hpp</text>
</a>
</g>
</g>
<!-- Node0&#45;&gt;Node5 -->
<g id="edge5" class="edge"><title>Node0&#45;&gt;Node5</title>
<path fill="none" stroke="midnightblue" d="M139.153,-112.083C139.153,-105.006 139.153,-94.8611 139.153,-85.9865"/>
<polygon fill="midnightblue" stroke="midnightblue" points="142.653,-85.751 139.153,-75.7511 135.653,-85.7511 142.653,-85.751"/>
</g>
<!-- Node6 -->
<g id="node7" class="node"><title>Node6</title>
<g id="a_node7"><a xlink:href="Iterator_8hpp.html" target="_top" xlink:title="Iterator.hpp">
<polygon fill="none" stroke="black" points="282.653,-56.5 282.653,-75.5 347.653,-75.5 347.653,-56.5 282.653,-56.5"/>
<text text-anchor="middle" x="315.153" y="-63.5" font-family="Helvetica,sans-Serif" font-size="10.00">Iterator.hpp</text>
</a>
</g>
</g>
<!-- Node0&#45;&gt;Node6 -->
<g id="edge7" class="edge"><title>Node0&#45;&gt;Node6</title>
<path fill="none" stroke="midnightblue" d="M167.041,-112.444C196.907,-103.28 244.468,-88.6876 277.609,-78.5192"/>
<polygon fill="midnightblue" stroke="midnightblue" points="278.862,-81.7958 287.396,-75.5164 276.809,-75.1037 278.862,-81.7958"/>
</g>
<!-- Node4 -->
<g id="node5" class="node"><title>Node4</title>
<polygon fill="none" stroke="#bfbfbf" points="209.153,-0.5 209.153,-19.5 261.153,-19.5 261.153,-0.5 209.153,-0.5"/>
<text text-anchor="middle" x="235.153" y="-7.5" font-family="Helvetica,sans-Serif" font-size="10.00">stddef.h</text>
</g>
<!-- Node3&#45;&gt;Node4 -->
<g id="edge4" class="edge"><title>Node3&#45;&gt;Node4</title>
<path fill="none" stroke="midnightblue" d="M235.153,-56.083C235.153,-49.0059 235.153,-38.8611 235.153,-29.9865"/>
<polygon fill="midnightblue" stroke="midnightblue" points="238.653,-29.751 235.153,-19.7511 231.653,-29.7511 238.653,-29.751"/>
</g>
<!-- Node5&#45;&gt;Node1 -->
<g id="edge6" class="edge"><title>Node5&#45;&gt;Node1</title>
<path fill="none" stroke="midnightblue" d="M126.782,-56.324C114.995,-48.0577 97.0209,-35.4527 83.0176,-25.6322"/>
<polygon fill="midnightblue" stroke="midnightblue" points="84.6908,-22.5307 74.4938,-19.6545 80.6715,-28.2619 84.6908,-22.5307"/>
</g>
</g>
</svg>
