<?xml version="1.0" encoding="UTF-8" standalone="no"?>
<!DOCTYPE svg PUBLIC "-//W3C//DTD SVG 1.1//EN"
 "http://www.w3.org/Graphics/SVG/1.1/DTD/svg11.dtd">
<!-- Generated by graphviz version 2.38.0 (20140413.2041)
 -->
<!-- Title: include/ProtectedLinkedList.hpp Pages: 1 -->
<svg width="371pt" height="196pt"
 viewBox="0.00 0.00 371.00 196.00" xmlns="http://www.w3.org/2000/svg" xmlns:xlink="http://www.w3.org/1999/xlink">
<g id="graph0" class="graph" transform="scale(1 1) rotate(0) translate(4 192)">
<title>include/ProtectedLinkedList.hpp</title>
<!-- Node6 -->
<g id="node1" class="node"><title>Node6</title>
<polygon fill="#bfbfbf" stroke="black" points="84.5,-168.5 84.5,-187.5 239.5,-187.5 239.5,-168.5 84.5,-168.5"/>
<text text-anchor="middle" x="162" y="-175.5" font-family="Helvetica,sans-Serif" font-size="10.00">include/ProtectedLinkedList.hpp</text>
</g>
<!-- Node7 -->
<g id="node2" class="node"><title>Node7</title>
<g id="a_node2"><a xlink:href="DynamicStack_8hpp.html" target="_top" xlink:title="include/DynamicStack.hpp">
<polygon fill="none" stroke="black" points="0,-56.5 0,-75.5 134,-75.5 134,-56.5 0,-56.5"/>
<text text-anchor="middle" x="67" y="-63.5" font-family="Helvetica,sans-Serif" font-size="10.00">include/DynamicStack.hpp</text>
</a>
</g>
</g>
<!-- Node6&#45;&gt;Node7 -->
<g id="edge1" class="edge"><title>Node6&#45;&gt;Node7</title>
<path fill="none" stroke="midnightblue" d="M127.375,-164.27C112.027,-156.999 94.9932,-146.411 84,-132 71.1244,-115.121 67.9639,-89.3889 67.2127,-75.9227"/>
<polygon fill="midnightblue" stroke="midnightblue" points="126.084,-167.526 136.645,-168.374 128.918,-161.125 126.084,-167.526"/>
</g>
<!-- Node9 -->
<g id="node4" class="node"><title>Node9</title>
<g id="a_node4"><a xlink:href="DynamicQueue_8hpp.html" target="_top" xlink:title="include/DynamicQueue.hpp">
<polygon fill="none" stroke="black" points="93.5,-112.5 93.5,-131.5 230.5,-131.5 230.5,-112.5 93.5,-112.5"/>
<text text-anchor="middle" x="162" y="-119.5" font-family="Helvetica,sans-Serif" font-size="10.00">include/DynamicQueue.hpp</text>
</a>
</g>
</g>
<!-- Node6&#45;&gt;Node9 -->
<g id="edge3" class="edge"><title>Node6&#45;&gt;Node9</title>
<path fill="none" stroke="midnightblue" d="M162,-157.805C162,-148.91 162,-138.78 162,-131.751"/>
<polygon fill="midnightblue" stroke="midnightblue" points="158.5,-158.083 162,-168.083 165.5,-158.083 158.5,-158.083"/>
</g>
<!-- Node10 -->
<g id="node5" class="node"><title>Node10</title>
<g id="a_node5"><a xlink:href="LinkedList_8hpp.html" target="_top" xlink:title="include/LinkedList.hpp">
<polygon fill="none" stroke="black" points="249,-112.5 249,-131.5 363,-131.5 363,-112.5 249,-112.5"/>
<text text-anchor="middle" x="306" y="-119.5" font-family="Helvetica,sans-Serif" font-size="10.00">include/LinkedList.hpp</text>
</a>
</g>
</g>
<!-- Node6&#45;&gt;Node10 -->
<g id="edge5" class="edge"><title>Node6&#45;&gt;Node10</title>
<path fill="none" stroke="midnightblue" d="M194.251,-164.906C221.324,-154.754 259.317,-140.506 283.29,-131.516"/>
<polygon fill="midnightblue" stroke="midnightblue" points="192.952,-161.655 184.817,-168.444 195.409,-168.209 192.952,-161.655"/>
</g>
<!-- Node8 -->
<g id="node3" class="node"><title>Node8</title>
<g id="a_node3"><a xlink:href="main_8cpp.html" target="_top" xlink:title="test/main.cpp">
<polygon fill="none" stroke="black" points="149,-0.5 149,-19.5 225,-19.5 225,-0.5 149,-0.5"/>
<text text-anchor="middle" x="187" y="-7.5" font-family="Helvetica,sans-Serif" font-size="10.00">test/main.cpp</text>
</a>
</g>
</g>
<!-- Node7&#45;&gt;Node8 -->
<g id="edge2" class="edge"><title>Node7&#45;&gt;Node8</title>
<path fill="none" stroke="midnightblue" d="M95.3731,-52.2321C117.82,-42.1312 148.535,-28.3091 168.075,-19.5164"/>
<polygon fill="midnightblue" stroke="midnightblue" points="93.6973,-49.1481 86.0144,-56.4435 96.5699,-55.5316 93.6973,-49.1481"/>
</g>
<!-- Node9&#45;&gt;Node8 -->
<g id="edge4" class="edge"><title>Node9&#45;&gt;Node8</title>
<path fill="none" stroke="midnightblue" d="M166.239,-102.348C171.715,-78.2538 181.021,-37.3079 185.047,-19.5914"/>
<polygon fill="midnightblue" stroke="midnightblue" points="162.765,-101.841 163.962,-112.368 169.591,-103.393 162.765,-101.841"/>
</g>
<!-- Node10&#45;&gt;Node8 -->
<g id="edge6" class="edge"><title>Node10&#45;&gt;Node8</title>
<path fill="none" stroke="midnightblue" d="M279.484,-107.691C265.085,-99.6955 247.516,-88.6334 234,-76 215.484,-58.6929 199.54,-33.1413 191.87,-19.8153"/>
<polygon fill="midnightblue" stroke="midnightblue" points="277.948,-110.839 288.414,-112.487 281.261,-104.672 277.948,-110.839"/>
</g>
<!-- Node11 -->
<g id="node6" class="node"><title>Node11</title>
<g id="a_node6"><a xlink:href="OrderedList_8hpp.html" target="_top" xlink:title="include/OrderedList.hpp">
<polygon fill="none" stroke="black" points="243.5,-56.5 243.5,-75.5 362.5,-75.5 362.5,-56.5 243.5,-56.5"/>
<text text-anchor="middle" x="303" y="-63.5" font-family="Helvetica,sans-Serif" font-size="10.00">include/OrderedList.hpp</text>
</a>
</g>
</g>
<!-- Node10&#45;&gt;Node11 -->
<g id="edge7" class="edge"><title>Node10&#45;&gt;Node11</title>
<path fill="none" stroke="midnightblue" d="M304.934,-101.805C304.439,-92.9102 303.877,-82.7798 303.486,-75.7511"/>
<polygon fill="midnightblue" stroke="midnightblue" points="301.455,-102.293 305.505,-112.083 308.444,-101.904 301.455,-102.293"/>
</g>
<!-- Node11&#45;&gt;Node8 -->
<g id="edge8" class="edge"><title>Node11&#45;&gt;Node8</title>
<path fill="none" stroke="midnightblue" d="M275.28,-52.096C253.608,-42.0073 224.098,-28.2697 205.295,-19.5164"/>
<polygon fill="midnightblue" stroke="midnightblue" points="274.077,-55.3962 284.619,-56.4435 277.031,-49.0501 274.077,-55.3962"/>
</g>
</g>
</svg>
