<?xml version="1.0" encoding="UTF-8" standalone="no"?>
<!DOCTYPE svg PUBLIC "-//W3C//DTD SVG 1.1//EN"
 "http://www.w3.org/Graphics/SVG/1.1/DTD/svg11.dtd">
<!-- Generated by graphviz version 2.38.0 (20140413.2041)
 -->
<!-- Title: include/Queue.hpp Pages: 1 -->
<svg width="286pt" height="84pt"
 viewBox="0.00 0.00 286.00 84.00" xmlns="http://www.w3.org/2000/svg" xmlns:xlink="http://www.w3.org/1999/xlink">
<g id="graph0" class="graph" transform="scale(1 1) rotate(0) translate(4 80)">
<title>include/Queue.hpp</title>
<!-- Node3 -->
<g id="node1" class="node"><title>Node3</title>
<polygon fill="#bfbfbf" stroke="black" points="93.5,-56.5 93.5,-75.5 191.5,-75.5 191.5,-56.5 93.5,-56.5"/>
<text text-anchor="middle" x="142.5" y="-63.5" font-family="Helvetica,sans-Serif" font-size="10.00">include/Queue.hpp</text>
</g>
<!-- Node4 -->
<g id="node2" class="node"><title>Node4</title>
<g id="a_node2"><a xlink:href="DynamicQueue_8hpp.html" target="_top" xlink:title="include/DynamicQueue.hpp">
<polygon fill="none" stroke="black" points="0,-0.5 0,-19.5 137,-19.5 137,-0.5 0,-0.5"/>
<text text-anchor="middle" x="68.5" y="-7.5" font-family="Helvetica,sans-Serif" font-size="10.00">include/DynamicQueue.hpp</text>
</a>
</g>
</g>
<!-- Node3&#45;&gt;Node4 -->
<g id="edge1" class="edge"><title>Node3&#45;&gt;Node4</title>
<path fill="none" stroke="midnightblue" d="M122.466,-50.3804C109.091,-40.6204 91.9412,-28.1057 80.6057,-19.8339"/>
<polygon fill="midnightblue" stroke="midnightblue" points="120.47,-53.2565 130.611,-56.324 124.596,-47.602 120.47,-53.2565"/>
</g>
<!-- Node5 -->
<g id="node3" class="node"><title>Node5</title>
<g id="a_node3"><a xlink:href="StaticQueue_8hpp.html" target="_top" xlink:title="include/StaticQueue.hpp">
<polygon fill="none" stroke="black" points="155,-0.5 155,-19.5 278,-19.5 278,-0.5 155,-0.5"/>
<text text-anchor="middle" x="216.5" y="-7.5" font-family="Helvetica,sans-Serif" font-size="10.00">include/StaticQueue.hpp</text>
</a>
</g>
</g>
<!-- Node3&#45;&gt;Node5 -->
<g id="edge2" class="edge"><title>Node3&#45;&gt;Node5</title>
<path fill="none" stroke="midnightblue" d="M162.534,-50.3804C175.909,-40.6204 193.059,-28.1057 204.394,-19.8339"/>
<polygon fill="midnightblue" stroke="midnightblue" points="160.404,-47.602 154.389,-56.324 164.53,-53.2565 160.404,-47.602"/>
</g>
</g>
</svg>
