<?xml version="1.0" encoding="UTF-8" standalone="no"?>
<!DOCTYPE svg PUBLIC "-//W3C//DTD SVG 1.1//EN"
 "http://www.w3.org/Graphics/SVG/1.1/DTD/svg11.dtd">
<!-- Generated by graphviz version 2.38.0 (20140413.2041)
 -->
<!-- Title: include/Queue.hpp Pages: 1 -->
<svg width="286pt" height="140pt"
 viewBox="0.00 0.00 286.00 140.00" xmlns="http://www.w3.org/2000/svg" xmlns:xlink="http://www.w3.org/1999/xlink">
<g id="graph0" class="graph" transform="scale(1 1) rotate(0) translate(4 136)">
<title>include/Queue.hpp</title>
<!-- Node3 -->
<g id="node1" class="node"><title>Node3</title>
<polygon fill="#bfbfbf" stroke="black" points="86.5,-112.5 86.5,-131.5 184.5,-131.5 184.5,-112.5 86.5,-112.5"/>
<text text-anchor="middle" x="135.5" y="-119.5" font-family="Helvetica,sans-Serif" font-size="10.00">include/Queue.hpp</text>
</g>
<!-- Node4 -->
<g id="node2" class="node"><title>Node4</title>
<g id="a_node2"><a xlink:href="StaticQueue_8hpp.html" target="_top" xlink:title="include/StaticQueue.hpp">
<polygon fill="none" stroke="black" points="0,-56.5 0,-75.5 123,-75.5 123,-56.5 0,-56.5"/>
<text text-anchor="middle" x="61.5" y="-63.5" font-family="Helvetica,sans-Serif" font-size="10.00">include/StaticQueue.hpp</text>
</a>
</g>
</g>
<!-- Node3&#45;&gt;Node4 -->
<g id="edge1" class="edge"><title>Node3&#45;&gt;Node4</title>
<path fill="none" stroke="midnightblue" d="M115.466,-106.38C102.091,-96.6204 84.9412,-84.1057 73.6057,-75.8339"/>
<polygon fill="midnightblue" stroke="midnightblue" points="113.47,-109.257 123.611,-112.324 117.596,-103.602 113.47,-109.257"/>
</g>
<!-- Node6 -->
<g id="node4" class="node"><title>Node6</title>
<g id="a_node4"><a xlink:href="DynamicQueue_8hpp.html" target="_top" xlink:title="include/DynamicQueue.hpp">
<polygon fill="none" stroke="black" points="141,-56.5 141,-75.5 278,-75.5 278,-56.5 141,-56.5"/>
<text text-anchor="middle" x="209.5" y="-63.5" font-family="Helvetica,sans-Serif" font-size="10.00">include/DynamicQueue.hpp</text>
</a>
</g>
</g>
<!-- Node3&#45;&gt;Node6 -->
<g id="edge3" class="edge"><title>Node3&#45;&gt;Node6</title>
<path fill="none" stroke="midnightblue" d="M155.534,-106.38C168.909,-96.6204 186.059,-84.1057 197.394,-75.8339"/>
<polygon fill="midnightblue" stroke="midnightblue" points="153.404,-103.602 147.389,-112.324 157.53,-109.257 153.404,-103.602"/>
</g>
<!-- Node5 -->
<g id="node3" class="node"><title>Node5</title>
<g id="a_node3"><a xlink:href="main_8cpp.html" target="_top" xlink:title="test/main.cpp">
<polygon fill="none" stroke="black" points="97.5,-0.5 97.5,-19.5 173.5,-19.5 173.5,-0.5 97.5,-0.5"/>
<text text-anchor="middle" x="135.5" y="-7.5" font-family="Helvetica,sans-Serif" font-size="10.00">test/main.cpp</text>
</a>
</g>
</g>
<!-- Node4&#45;&gt;Node5 -->
<g id="edge2" class="edge"><title>Node4&#45;&gt;Node5</title>
<path fill="none" stroke="midnightblue" d="M81.5343,-50.3804C94.9091,-40.6204 112.059,-28.1057 123.394,-19.8339"/>
<polygon fill="midnightblue" stroke="midnightblue" points="79.4042,-47.602 73.3894,-56.324 83.5305,-53.2565 79.4042,-47.602"/>
</g>
<!-- Node6&#45;&gt;Node5 -->
<g id="edge4" class="edge"><title>Node6&#45;&gt;Node5</title>
<path fill="none" stroke="midnightblue" d="M189.466,-50.3804C176.091,-40.6204 158.941,-28.1057 147.606,-19.8339"/>
<polygon fill="midnightblue" stroke="midnightblue" points="187.47,-53.2565 197.611,-56.324 191.596,-47.602 187.47,-53.2565"/>
</g>
</g>
</svg>
