<?xml version="1.0" encoding="UTF-8" standalone="no"?>
<!DOCTYPE svg PUBLIC "-//W3C//DTD SVG 1.1//EN"
 "http://www.w3.org/Graphics/SVG/1.1/DTD/svg11.dtd">
<!-- Generated by graphviz version 2.38.0 (20140413.2041)
 -->
<!-- Title: include/Queue.hpp Pages: 1 -->
<svg width="143pt" height="140pt"
 viewBox="0.00 0.00 143.00 140.00" xmlns="http://www.w3.org/2000/svg" xmlns:xlink="http://www.w3.org/1999/xlink">
<g id="graph0" class="graph" transform="scale(1 1) rotate(0) translate(4 136)">
<title>include/Queue.hpp</title>
<!-- Node0 -->
<g id="node1" class="node"><title>Node0</title>
<polygon fill="#bfbfbf" stroke="black" points="-7.10543e-15,-112.5 -7.10543e-15,-131.5 98,-131.5 98,-112.5 -7.10543e-15,-112.5"/>
<text text-anchor="middle" x="49" y="-119.5" font-family="Helvetica,sans-Serif" font-size="10.00">include/Queue.hpp</text>
</g>
<!-- Node1 -->
<g id="node2" class="node"><title>Node1</title>
<polygon fill="none" stroke="#bfbfbf" points="28.5,-0.5 28.5,-19.5 69.5,-19.5 69.5,-0.5 28.5,-0.5"/>
<text text-anchor="middle" x="49" y="-7.5" font-family="Helvetica,sans-Serif" font-size="10.00">string</text>
</g>
<!-- Node0&#45;&gt;Node1 -->
<g id="edge1" class="edge"><title>Node0&#45;&gt;Node1</title>
<path fill="none" stroke="midnightblue" d="M44.1241,-112.372C39.4412,-103.552 32.6924,-89.2987 30,-76 26.7233,-59.8154 32.7613,-41.8242 38.8794,-28.8806"/>
<polygon fill="midnightblue" stroke="midnightblue" points="42.1362,-30.2026 43.6268,-19.7132 35.9202,-26.9837 42.1362,-30.2026"/>
</g>
<!-- Node2 -->
<g id="node3" class="node"><title>Node2</title>
<g id="a_node3"><a xlink:href="DataStructure_8hpp.html" target="_top" xlink:title="DataStructure.hpp">
<polygon fill="none" stroke="black" points="39,-56.5 39,-75.5 135,-75.5 135,-56.5 39,-56.5"/>
<text text-anchor="middle" x="87" y="-63.5" font-family="Helvetica,sans-Serif" font-size="10.00">DataStructure.hpp</text>
</a>
</g>
</g>
<!-- Node0&#45;&gt;Node2 -->
<g id="edge2" class="edge"><title>Node0&#45;&gt;Node2</title>
<path fill="none" stroke="midnightblue" d="M55.2749,-112.083C60.6425,-104.455 68.5176,-93.2645 75.0787,-83.9408"/>
<polygon fill="midnightblue" stroke="midnightblue" points="77.9492,-85.9434 80.8418,-75.7511 72.2245,-81.9149 77.9492,-85.9434"/>
</g>
<!-- Node2&#45;&gt;Node1 -->
<g id="edge3" class="edge"><title>Node2&#45;&gt;Node1</title>
<path fill="none" stroke="midnightblue" d="M80.7251,-56.083C75.3575,-48.4554 67.4824,-37.2645 60.9213,-27.9408"/>
<polygon fill="midnightblue" stroke="midnightblue" points="63.7755,-25.9149 55.1582,-19.7511 58.0508,-29.9434 63.7755,-25.9149"/>
</g>
</g>
</svg>
