<?xml version="1.0" encoding="UTF-8" standalone="no"?>
<!DOCTYPE svg PUBLIC "-//W3C//DTD SVG 1.1//EN"
 "http://www.w3.org/Graphics/SVG/1.1/DTD/svg11.dtd">
<!-- Generated by graphviz version 2.38.0 (20140413.2041)
 -->
<!-- Title: include/Stack.hpp Pages: 1 -->
<svg width="280pt" height="140pt"
 viewBox="0.00 0.00 280.00 140.00" xmlns="http://www.w3.org/2000/svg" xmlns:xlink="http://www.w3.org/1999/xlink">
<g id="graph0" class="graph" transform="scale(1 1) rotate(0) translate(4 136)">
<title>include/Stack.hpp</title>
<!-- Node3 -->
<g id="node1" class="node"><title>Node3</title>
<polygon fill="#bfbfbf" stroke="black" points="91.5,-112.5 91.5,-131.5 186.5,-131.5 186.5,-112.5 91.5,-112.5"/>
<text text-anchor="middle" x="139" y="-119.5" font-family="Helvetica,sans-Serif" font-size="10.00">include/Stack.hpp</text>
</g>
<!-- Node4 -->
<g id="node2" class="node"><title>Node4</title>
<g id="a_node2"><a xlink:href="DynamicStack_8hpp.html" target="_top" xlink:title="include/DynamicStack.hpp">
<polygon fill="none" stroke="black" points="0,-56.5 0,-75.5 134,-75.5 134,-56.5 0,-56.5"/>
<text text-anchor="middle" x="67" y="-63.5" font-family="Helvetica,sans-Serif" font-size="10.00">include/DynamicStack.hpp</text>
</a>
</g>
</g>
<!-- Node3&#45;&gt;Node4 -->
<g id="edge1" class="edge"><title>Node3&#45;&gt;Node4</title>
<path fill="none" stroke="midnightblue" d="M119.134,-106.101C106.177,-96.3824 89.7026,-84.0269 78.7785,-75.8339"/>
<polygon fill="midnightblue" stroke="midnightblue" points="117.332,-109.124 127.432,-112.324 121.532,-103.524 117.332,-109.124"/>
</g>
<!-- Node6 -->
<g id="node4" class="node"><title>Node6</title>
<g id="a_node4"><a xlink:href="StaticStack_8hpp.html" target="_top" xlink:title="include/StaticStack.hpp">
<polygon fill="none" stroke="black" points="152,-56.5 152,-75.5 272,-75.5 272,-56.5 152,-56.5"/>
<text text-anchor="middle" x="212" y="-63.5" font-family="Helvetica,sans-Serif" font-size="10.00">include/StaticStack.hpp</text>
</a>
</g>
</g>
<!-- Node3&#45;&gt;Node6 -->
<g id="edge3" class="edge"><title>Node3&#45;&gt;Node6</title>
<path fill="none" stroke="midnightblue" d="M159.142,-106.101C172.279,-96.3824 188.982,-84.0269 200.058,-75.8339"/>
<polygon fill="midnightblue" stroke="midnightblue" points="156.687,-103.563 150.729,-112.324 160.85,-109.191 156.687,-103.563"/>
</g>
<!-- Node5 -->
<g id="node3" class="node"><title>Node5</title>
<g id="a_node3"><a xlink:href="main_8cpp.html" target="_top" xlink:title="test/main.cpp">
<polygon fill="none" stroke="black" points="101,-0.5 101,-19.5 177,-19.5 177,-0.5 101,-0.5"/>
<text text-anchor="middle" x="139" y="-7.5" font-family="Helvetica,sans-Serif" font-size="10.00">test/main.cpp</text>
</a>
</g>
</g>
<!-- Node4&#45;&gt;Node5 -->
<g id="edge2" class="edge"><title>Node4&#45;&gt;Node5</title>
<path fill="none" stroke="midnightblue" d="M86.8657,-50.1008C99.8235,-40.3824 116.297,-28.0269 127.221,-19.8339"/>
<polygon fill="midnightblue" stroke="midnightblue" points="84.4681,-47.5239 78.568,-56.324 88.6681,-53.1239 84.4681,-47.5239"/>
</g>
<!-- Node6&#45;&gt;Node5 -->
<g id="edge4" class="edge"><title>Node6&#45;&gt;Node5</title>
<path fill="none" stroke="midnightblue" d="M191.858,-50.1008C178.721,-40.3824 162.018,-28.0269 150.942,-19.8339"/>
<polygon fill="midnightblue" stroke="midnightblue" points="190.15,-53.1907 200.271,-56.324 194.313,-47.5631 190.15,-53.1907"/>
</g>
</g>
</svg>
