<?xml version="1.0" encoding="UTF-8" standalone="no"?>
<!DOCTYPE svg PUBLIC "-//W3C//DTD SVG 1.1//EN"
 "http://www.w3.org/Graphics/SVG/1.1/DTD/svg11.dtd">
<!-- Generated by graphviz version 2.38.0 (20140413.2041)
 -->
<!-- Title: include/Stack.hpp Pages: 1 -->
<svg width="142pt" height="140pt"
 viewBox="0.00 0.00 141.50 140.00" xmlns="http://www.w3.org/2000/svg" xmlns:xlink="http://www.w3.org/1999/xlink">
<g id="graph0" class="graph" transform="scale(1 1) rotate(0) translate(4 136)">
<title>include/Stack.hpp</title>
<!-- Node0 -->
<g id="node1" class="node"><title>Node0</title>
<polygon fill="#bfbfbf" stroke="black" points="0,-112.5 0,-131.5 95,-131.5 95,-112.5 0,-112.5"/>
<text text-anchor="middle" x="47.5" y="-119.5" font-family="Helvetica,sans-Serif" font-size="10.00">include/Stack.hpp</text>
</g>
<!-- Node1 -->
<g id="node2" class="node"><title>Node1</title>
<polygon fill="none" stroke="#bfbfbf" points="27,-0.5 27,-19.5 68,-19.5 68,-0.5 27,-0.5"/>
<text text-anchor="middle" x="47.5" y="-7.5" font-family="Helvetica,sans-Serif" font-size="10.00">string</text>
</g>
<!-- Node0&#45;&gt;Node1 -->
<g id="edge1" class="edge"><title>Node0&#45;&gt;Node1</title>
<path fill="none" stroke="midnightblue" d="M42.6241,-112.372C37.9412,-103.552 31.1924,-89.2987 28.5,-76 25.2233,-59.8154 31.2613,-41.8242 37.3794,-28.8806"/>
<polygon fill="midnightblue" stroke="midnightblue" points="40.6362,-30.2026 42.1268,-19.7132 34.4202,-26.9837 40.6362,-30.2026"/>
</g>
<!-- Node2 -->
<g id="node3" class="node"><title>Node2</title>
<g id="a_node3"><a xlink:href="DataStructure_8hpp.html" target="_top" xlink:title="DataStructure.hpp">
<polygon fill="none" stroke="black" points="37.5,-56.5 37.5,-75.5 133.5,-75.5 133.5,-56.5 37.5,-56.5"/>
<text text-anchor="middle" x="85.5" y="-63.5" font-family="Helvetica,sans-Serif" font-size="10.00">DataStructure.hpp</text>
</a>
</g>
</g>
<!-- Node0&#45;&gt;Node2 -->
<g id="edge2" class="edge"><title>Node0&#45;&gt;Node2</title>
<path fill="none" stroke="midnightblue" d="M53.7749,-112.083C59.1425,-104.455 67.0176,-93.2645 73.5787,-83.9408"/>
<polygon fill="midnightblue" stroke="midnightblue" points="76.4492,-85.9434 79.3418,-75.7511 70.7245,-81.9149 76.4492,-85.9434"/>
</g>
<!-- Node2&#45;&gt;Node1 -->
<g id="edge3" class="edge"><title>Node2&#45;&gt;Node1</title>
<path fill="none" stroke="midnightblue" d="M79.2251,-56.083C73.8575,-48.4554 65.9824,-37.2645 59.4213,-27.9408"/>
<polygon fill="midnightblue" stroke="midnightblue" points="62.2755,-25.9149 53.6582,-19.7511 56.5508,-29.9434 62.2755,-25.9149"/>
</g>
</g>
</svg>
