<?xml version="1.0" encoding="UTF-8" standalone="no"?>
<!DOCTYPE svg PUBLIC "-//W3C//DTD SVG 1.1//EN"
 "http://www.w3.org/Graphics/SVG/1.1/DTD/svg11.dtd">
<!-- Generated by graphviz version 2.38.0 (20140413.2041)
 -->
<!-- Title: include/StaticQueue.hpp Pages: 1 -->
<svg width="258pt" height="196pt"
 viewBox="0.00 0.00 257.50 196.00" xmlns="http://www.w3.org/2000/svg" xmlns:xlink="http://www.w3.org/1999/xlink">
<g id="graph0" class="graph" transform="scale(1 1) rotate(0) translate(4 192)">
<title>include/StaticQueue.hpp</title>
<!-- Node0 -->
<g id="node1" class="node"><title>Node0</title>
<polygon fill="#bfbfbf" stroke="black" points="26,-168.5 26,-187.5 149,-187.5 149,-168.5 26,-168.5"/>
<text text-anchor="middle" x="87.5" y="-175.5" font-family="Helvetica,sans-Serif" font-size="10.00">include/StaticQueue.hpp</text>
</g>
<!-- Node1 -->
<g id="node2" class="node"><title>Node1</title>
<polygon fill="none" stroke="#bfbfbf" points="0,-112.5 0,-131.5 59,-131.5 59,-112.5 0,-112.5"/>
<text text-anchor="middle" x="29.5" y="-119.5" font-family="Helvetica,sans-Serif" font-size="10.00">stdexcept</text>
</g>
<!-- Node0&#45;&gt;Node1 -->
<g id="edge1" class="edge"><title>Node0&#45;&gt;Node1</title>
<path fill="none" stroke="midnightblue" d="M78.1813,-168.324C69.6074,-160.341 56.6878,-148.313 46.3124,-138.653"/>
<polygon fill="midnightblue" stroke="midnightblue" points="48.6922,-136.086 38.9883,-131.834 43.9223,-141.21 48.6922,-136.086"/>
</g>
<!-- Node2 -->
<g id="node3" class="node"><title>Node2</title>
<polygon fill="none" stroke="#bfbfbf" points="105,-0.5 105,-19.5 146,-19.5 146,-0.5 105,-0.5"/>
<text text-anchor="middle" x="125.5" y="-7.5" font-family="Helvetica,sans-Serif" font-size="10.00">string</text>
</g>
<!-- Node0&#45;&gt;Node2 -->
<g id="edge2" class="edge"><title>Node0&#45;&gt;Node2</title>
<path fill="none" stroke="midnightblue" d="M89.543,-168.075C95.5246,-141.945 113.09,-65.2106 121.247,-29.577"/>
<polygon fill="midnightblue" stroke="midnightblue" points="124.719,-30.097 123.539,-19.5681 117.895,-28.5349 124.719,-30.097"/>
</g>
<!-- Node3 -->
<g id="node4" class="node"><title>Node3</title>
<g id="a_node4"><a xlink:href="Queue_8hpp.html" target="_top" xlink:title="Queue.hpp">
<polygon fill="none" stroke="black" points="115.5,-112.5 115.5,-131.5 179.5,-131.5 179.5,-112.5 115.5,-112.5"/>
<text text-anchor="middle" x="147.5" y="-119.5" font-family="Helvetica,sans-Serif" font-size="10.00">Queue.hpp</text>
</a>
</g>
</g>
<!-- Node0&#45;&gt;Node3 -->
<g id="edge3" class="edge"><title>Node0&#45;&gt;Node3</title>
<path fill="none" stroke="midnightblue" d="M97.14,-168.324C106.01,-160.341 119.375,-148.313 130.108,-138.653"/>
<polygon fill="midnightblue" stroke="midnightblue" points="132.593,-141.125 137.685,-131.834 127.91,-135.922 132.593,-141.125"/>
</g>
<!-- Node3&#45;&gt;Node2 -->
<g id="edge4" class="edge"><title>Node3&#45;&gt;Node2</title>
<path fill="none" stroke="midnightblue" d="M145.774,-112.368C142.223,-94.617 134.033,-53.6664 129.219,-29.5974"/>
<polygon fill="midnightblue" stroke="midnightblue" points="132.612,-28.7108 127.218,-19.5914 125.747,-30.0837 132.612,-28.7108"/>
</g>
<!-- Node4 -->
<g id="node5" class="node"><title>Node4</title>
<g id="a_node5"><a xlink:href="DataStructure_8hpp.html" target="_top" xlink:title="DataStructure.hpp">
<polygon fill="none" stroke="black" points="153.5,-56.5 153.5,-75.5 249.5,-75.5 249.5,-56.5 153.5,-56.5"/>
<text text-anchor="middle" x="201.5" y="-63.5" font-family="Helvetica,sans-Serif" font-size="10.00">DataStructure.hpp</text>
</a>
</g>
</g>
<!-- Node3&#45;&gt;Node4 -->
<g id="edge5" class="edge"><title>Node3&#45;&gt;Node4</title>
<path fill="none" stroke="midnightblue" d="M156.417,-112.083C164.28,-104.22 175.931,-92.5688 185.419,-83.0813"/>
<polygon fill="midnightblue" stroke="midnightblue" points="188.153,-85.2971 192.749,-75.7511 183.203,-80.3473 188.153,-85.2971"/>
</g>
<!-- Node4&#45;&gt;Node2 -->
<g id="edge6" class="edge"><title>Node4&#45;&gt;Node2</title>
<path fill="none" stroke="midnightblue" d="M189.289,-56.324C177.724,-48.1066 160.125,-35.6017 146.339,-25.8069"/>
<polygon fill="midnightblue" stroke="midnightblue" points="148.112,-22.7729 137.933,-19.8339 144.057,-28.4791 148.112,-22.7729"/>
</g>
</g>
</svg>
