<?xml version="1.0" encoding="UTF-8" standalone="no"?>
<!DOCTYPE svg PUBLIC "-//W3C//DTD SVG 1.1//EN"
 "http://www.w3.org/Graphics/SVG/1.1/DTD/svg11.dtd">
<!-- Generated by graphviz version 2.38.0 (20140413.2041)
 -->
<!-- Title: include/StaticStack.hpp Pages: 1 -->
<svg width="258pt" height="196pt"
 viewBox="0.00 0.00 257.50 196.00" xmlns="http://www.w3.org/2000/svg" xmlns:xlink="http://www.w3.org/1999/xlink">
<g id="graph0" class="graph" transform="scale(1 1) rotate(0) translate(4 192)">
<title>include/StaticStack.hpp</title>
<!-- Node0 -->
<g id="node1" class="node"><title>Node0</title>
<polygon fill="#bfbfbf" stroke="black" points="27.5,-168.5 27.5,-187.5 147.5,-187.5 147.5,-168.5 27.5,-168.5"/>
<text text-anchor="middle" x="87.5" y="-175.5" font-family="Helvetica,sans-Serif" font-size="10.00">include/StaticStack.hpp</text>
</g>
<!-- Node1 -->
<g id="node2" class="node"><title>Node1</title>
<polygon fill="none" stroke="#bfbfbf" points="0,-112.5 0,-131.5 59,-131.5 59,-112.5 0,-112.5"/>
<text text-anchor="middle" x="29.5" y="-119.5" font-family="Helvetica,sans-Serif" font-size="10.00">stdexcept</text>
</g>
<!-- Node0&#45;&gt;Node1 -->
<g id="edge1" class="edge"><title>Node0&#45;&gt;Node1</title>
<path fill="none" stroke="midnightblue" d="M78.1813,-168.324C69.6074,-160.341 56.6878,-148.313 46.3124,-138.653"/>
<polygon fill="midnightblue" stroke="midnightblue" points="48.6922,-136.086 38.9883,-131.834 43.9223,-141.21 48.6922,-136.086"/>
</g>
<!-- Node2 -->
<g id="node3" class="node"><title>Node2</title>
<polygon fill="none" stroke="#bfbfbf" points="105,-0.5 105,-19.5 146,-19.5 146,-0.5 105,-0.5"/>
<text text-anchor="middle" x="125.5" y="-7.5" font-family="Helvetica,sans-Serif" font-size="10.00">string</text>
</g>
<!-- Node0&#45;&gt;Node2 -->
<g id="edge2" class="edge"><title>Node0&#45;&gt;Node2</title>
<path fill="none" stroke="midnightblue" d="M89.543,-168.075C95.5246,-141.945 113.09,-65.2106 121.247,-29.577"/>
<polygon fill="midnightblue" stroke="midnightblue" points="124.719,-30.097 123.539,-19.5681 117.895,-28.5349 124.719,-30.097"/>
</g>
<!-- Node3 -->
<g id="node4" class="node"><title>Node3</title>
<g id="a_node4"><a xlink:href="Stack_8hpp.html" target="_top" xlink:title="Stack.hpp">
<polygon fill="none" stroke="black" points="116,-112.5 116,-131.5 177,-131.5 177,-112.5 116,-112.5"/>
<text text-anchor="middle" x="146.5" y="-119.5" font-family="Helvetica,sans-Serif" font-size="10.00">Stack.hpp</text>
</a>
</g>
</g>
<!-- Node0&#45;&gt;Node3 -->
<g id="edge3" class="edge"><title>Node0&#45;&gt;Node3</title>
<path fill="none" stroke="midnightblue" d="M96.9794,-168.324C105.701,-160.341 118.843,-148.313 129.398,-138.653"/>
<polygon fill="midnightblue" stroke="midnightblue" points="131.834,-141.167 136.848,-131.834 127.108,-136.004 131.834,-141.167"/>
</g>
<!-- Node3&#45;&gt;Node2 -->
<g id="edge4" class="edge"><title>Node3&#45;&gt;Node2</title>
<path fill="none" stroke="midnightblue" d="M144.852,-112.368C141.463,-94.617 133.645,-53.6664 129.05,-29.5974"/>
<polygon fill="midnightblue" stroke="midnightblue" points="132.453,-28.7577 127.14,-19.5914 125.578,-30.0704 132.453,-28.7577"/>
</g>
<!-- Node4 -->
<g id="node5" class="node"><title>Node4</title>
<g id="a_node5"><a xlink:href="DataStructure_8hpp.html" target="_top" xlink:title="DataStructure.hpp">
<polygon fill="none" stroke="black" points="153.5,-56.5 153.5,-75.5 249.5,-75.5 249.5,-56.5 153.5,-56.5"/>
<text text-anchor="middle" x="201.5" y="-63.5" font-family="Helvetica,sans-Serif" font-size="10.00">DataStructure.hpp</text>
</a>
</g>
</g>
<!-- Node3&#45;&gt;Node4 -->
<g id="edge5" class="edge"><title>Node3&#45;&gt;Node4</title>
<path fill="none" stroke="midnightblue" d="M155.582,-112.083C163.671,-104.141 175.695,-92.3354 185.41,-82.7973"/>
<polygon fill="midnightblue" stroke="midnightblue" points="187.903,-85.2545 192.587,-75.7511 182.999,-80.2595 187.903,-85.2545"/>
</g>
<!-- Node4&#45;&gt;Node2 -->
<g id="edge6" class="edge"><title>Node4&#45;&gt;Node2</title>
<path fill="none" stroke="midnightblue" d="M189.289,-56.324C177.724,-48.1066 160.125,-35.6017 146.339,-25.8069"/>
<polygon fill="midnightblue" stroke="midnightblue" points="148.112,-22.7729 137.933,-19.8339 144.057,-28.4791 148.112,-22.7729"/>
</g>
</g>
</svg>
